{"glyphs":{"0":{"ha":847,"x_min":0,"x_max":0,"o":"m 771 492 b 748 276 771 412 763 340 b 681 114 733 213 710 158 b 573 11 652 69 616 35 b 425 -25 530 -13 481 -25 b 276 11 369 -25 320 -13 b 167 114 233 35 196 69 b 99 276 137 158 115 213 b 76 492 84 340 76 412 b 99 707 76 571 84 643 b 167 869 115 771 137 825 b 276 972 196 914 233 948 b 425 1008 320 996 369 1008 b 573 972 481 1008 530 996 b 681 869 616 948 652 914 b 748 707 710 825 733 771 b 771 492 763 643 771 571 m 600 492 b 594 608 600 526 598 565 b 569 732 590 652 581 693 b 515 830 556 771 538 803 b 425 869 492 856 462 869 b 333 830 387 869 356 856 b 280 732 310 803 292 771 b 254 608 267 693 259 652 b 247 492 250 565 247 526 b 254 375 247 457 250 419 b 280 253 259 331 267 291 b 333 156 292 215 310 183 b 425 117 356 130 387 117 b 515 156 462 117 492 130 b 569 253 538 183 556 215 b 594 375 581 291 590 331 b 600 492 598 419 600 457 "},"1":{"ha":847,"x_min":0,"x_max":0,"o":"m 193 621 l 96 736 l 403 983 l 554 983 l 554 0 l 388 0 l 388 781 "},"2":{"ha":847,"x_min":0,"x_max":0,"o":"m 475 525 b 548 615 506 555 530 584 b 575 718 566 645 575 679 b 530 828 575 764 560 801 b 418 869 500 856 463 869 b 304 822 371 869 333 853 b 251 701 275 790 258 750 l 89 726 b 124 839 94 767 105 805 b 194 928 142 873 166 903 b 295 987 223 953 257 972 b 421 1008 334 1001 375 1008 b 544 990 463 1008 504 1002 b 649 935 583 978 618 960 b 722 845 679 911 703 881 b 749 721 740 809 749 768 b 736 633 749 689 744 660 b 702 556 728 605 716 580 b 652 487 688 531 671 509 b 590 424 633 465 613 444 l 307 153 l 750 153 l 750 0 l 96 0 l 96 153 "},"3":{"ha":847,"x_min":0,"x_max":0,"o":"m 339 579 b 413 585 364 579 389 581 b 481 608 438 590 460 597 b 530 653 501 619 517 634 b 549 728 542 672 549 697 b 536 788 549 750 544 770 b 502 832 528 805 516 820 b 452 860 488 844 471 853 b 393 869 433 866 413 869 b 292 835 352 869 319 858 b 236 743 265 812 246 781 l 79 783 b 122 874 88 817 102 847 b 194 945 141 902 166 925 b 289 992 222 965 254 981 b 400 1008 324 1003 361 1008 b 522 991 443 1008 483 1003 b 623 940 560 979 594 962 b 692 856 652 917 675 889 b 717 739 708 822 717 783 b 669 598 717 686 701 639 b 540 517 637 557 594 530 l 540 514 b 687 433 600 502 649 475 b 743 278 724 391 743 339 b 713 144 743 227 733 182 b 634 50 693 106 667 75 b 524 -6 601 25 564 6 b 400 -25 483 -19 442 -25 b 282 -12 358 -25 319 -21 b 180 29 245 -3 211 11 b 98 101 149 48 122 72 b 43 207 74 131 56 166 l 199 256 b 266 157 211 217 233 184 b 394 117 299 130 342 117 b 459 126 416 117 437 120 b 517 154 481 132 500 141 b 559 204 534 167 548 184 b 575 279 570 225 575 250 b 552 359 575 311 567 337 b 494 410 537 381 518 398 b 417 438 471 423 446 432 b 336 446 389 443 362 446 l 294 446 l 294 579 "},"4":{"ha":847,"x_min":0,"x_max":0,"o":"m 29 204 l 29 351 l 447 983 l 647 983 l 647 347 l 785 347 l 785 204 l 647 204 l 647 0 l 483 0 l 483 204 m 481 788 l 201 347 l 483 347 l 483 788 "},"5":{"ha":847,"x_min":0,"x_max":0,"o":"m 300 833 l 290 621 b 347 631 306 625 325 629 b 406 633 368 632 388 633 b 540 613 454 633 498 626 b 647 552 581 599 617 578 b 719 455 678 526 702 493 b 744 322 736 416 744 372 b 716 176 744 268 735 219 b 639 67 697 133 671 96 b 525 -1 606 37 569 14 b 386 -25 481 -17 435 -25 b 178 33 304 -25 234 -6 b 54 190 121 71 80 124 l 206 246 b 275 152 219 207 243 176 b 390 117 307 128 346 117 b 461 129 415 117 439 121 b 519 165 483 138 503 150 b 559 224 536 181 549 201 b 574 304 569 248 574 275 b 554 399 574 342 567 374 b 503 459 541 424 524 444 b 433 491 483 474 459 485 b 354 500 407 497 381 500 b 295 496 336 500 316 499 b 234 484 274 493 254 489 b 176 467 214 479 195 473 b 125 446 157 460 140 453 l 142 983 l 701 983 l 701 833 "},"6":{"ha":847,"x_min":0,"x_max":0,"o":"m 361 619 l 363 618 b 412 631 375 624 392 628 b 467 635 432 633 450 635 b 589 610 510 635 551 627 b 689 544 627 594 660 572 b 756 444 718 516 740 482 b 781 319 772 405 781 364 b 753 178 781 268 771 220 b 677 69 734 135 709 99 b 563 -1 645 39 607 16 b 422 -25 519 -17 472 -25 b 279 1 370 -25 323 -16 b 165 72 236 18 198 42 b 90 180 133 103 108 139 b 63 313 72 221 63 265 b 69 391 63 340 65 366 b 90 462 74 416 81 439 b 122 531 98 484 109 507 b 164 603 134 554 148 578 l 410 983 l 613 983 m 232 308 b 245 235 232 282 236 258 b 283 174 254 212 267 191 b 343 132 300 156 320 142 b 421 117 366 122 392 117 b 558 170 477 117 523 134 b 610 311 592 206 610 253 b 597 388 610 339 605 365 b 558 449 588 412 575 432 b 499 488 542 465 522 478 b 424 503 477 498 451 503 b 347 489 396 503 370 498 b 285 449 323 480 303 466 b 246 388 268 432 255 412 b 232 308 237 363 232 337 "},"7":{"ha":847,"x_min":0,"x_max":0,"o":"m 739 983 l 739 831 l 346 0 l 150 0 l 564 833 l 71 833 l 71 983 "},"8":{"ha":847,"x_min":0,"x_max":0,"o":"m 424 1008 b 544 990 466 1008 506 1002 b 644 938 582 978 616 961 b 710 853 672 914 694 886 b 735 742 727 821 735 783 b 692 599 735 684 720 637 b 582 519 663 561 626 534 l 582 517 b 654 485 608 510 632 500 b 713 433 676 471 696 453 b 752 363 729 412 742 388 b 767 278 762 337 767 308 b 740 148 767 229 758 185 b 666 53 722 110 697 79 b 557 -6 635 27 599 7 b 424 -25 515 -19 471 -25 b 290 -6 376 -25 332 -19 b 181 53 249 7 212 27 b 108 148 150 79 126 110 b 81 278 90 185 81 229 b 96 365 81 309 86 338 b 137 436 106 392 120 416 b 196 487 154 456 174 473 b 265 517 218 500 241 510 l 265 519 b 156 596 221 535 184 561 b 113 735 127 631 113 677 b 137 848 113 776 121 814 b 203 934 153 882 175 910 b 302 989 232 958 265 976 b 424 1008 340 1002 380 1008 m 424 871 b 322 833 382 871 348 858 b 282 732 295 808 282 775 b 320 631 282 692 295 658 b 424 589 346 603 380 589 b 479 600 443 589 462 593 b 525 631 497 607 512 618 b 556 676 538 644 548 659 b 567 732 563 694 567 713 b 555 790 567 753 563 772 b 523 833 547 807 536 821 b 477 861 509 845 494 855 b 424 871 460 868 442 871 m 424 447 b 356 435 400 447 377 443 b 302 401 335 426 317 415 b 266 348 287 386 275 369 b 253 279 257 327 253 304 b 301 158 253 227 269 187 b 424 115 334 130 375 115 b 544 158 472 115 512 130 b 593 279 577 187 593 227 b 580 347 593 303 589 326 b 544 400 571 367 559 385 b 490 435 528 415 510 426 b 424 447 469 443 447 447 "},"9":{"ha":847,"x_min":0,"x_max":0,"o":"m 486 365 l 485 367 b 434 353 471 360 454 356 b 379 349 414 350 396 349 b 257 373 336 349 295 357 b 157 440 219 389 186 411 b 90 540 128 468 106 501 b 65 664 73 578 65 619 b 93 806 65 716 75 763 b 169 915 112 848 137 884 b 283 984 201 945 239 968 b 424 1008 327 1000 374 1008 b 566 983 475 1008 522 1000 b 681 911 610 966 648 942 b 756 803 713 881 738 845 b 783 671 774 762 783 718 b 776 592 783 643 781 617 b 756 522 772 568 765 544 b 724 453 747 499 737 476 b 682 381 712 430 698 406 l 436 0 l 233 0 m 614 675 b 601 749 614 701 609 725 b 563 810 592 772 579 792 b 503 853 546 828 526 843 b 425 869 480 864 454 869 b 288 815 369 869 323 851 b 236 672 253 778 236 731 b 249 595 236 644 241 619 b 288 535 258 572 271 551 b 347 495 304 518 324 505 b 422 481 369 485 394 481 b 499 494 450 481 476 485 b 560 534 523 504 543 517 b 600 596 578 551 591 572 b 614 675 609 620 614 646 "},"\u0000":{"ha":694,"x_min":0,"x_max":0,"o":""},"\r":{"ha":0,"x_min":0,"x_max":0,"o":""}," ":{"ha":347,"x_min":0,"x_max":0,"o":""},"!":{"ha":472,"x_min":0,"x_max":0,"o":"m 153 308 l 153 983 l 319 983 l 319 308 m 125 97 b 158 174 125 127 136 152 b 236 206 179 195 206 206 b 314 175 266 206 292 195 b 347 100 336 155 347 130 b 315 24 347 70 336 45 b 236 -8 293 2 267 -8 b 194 0 221 -8 207 -6 b 158 22 180 6 169 13 b 134 56 148 31 140 43 b 125 97 128 69 125 82 "},"\"":{"ha":638,"x_min":0,"x_max":0,"o":"m 267 983 l 267 617 l 125 617 l 125 983 m 513 983 l 513 617 l 371 617 l 371 983 "},"#":{"ha":822,"x_min":0,"x_max":0,"o":"m 65 290 l 65 407 l 206 407 l 231 576 l 106 576 l 106 693 l 246 693 l 288 983 l 410 983 l 368 693 l 511 693 l 553 983 l 674 983 l 632 693 l 757 693 l 757 576 l 615 576 l 592 407 l 717 407 l 717 290 l 578 290 l 535 0 l 414 0 l 456 290 l 311 290 l 269 0 l 149 0 l 190 290 m 328 407 l 471 407 l 494 576 l 351 576 "},"$":{"ha":847,"x_min":0,"x_max":0,"o":"m 458 1000 b 613 974 509 999 561 991 b 747 901 664 958 709 934 l 635 785 b 555 840 613 809 587 827 b 458 858 523 852 491 858 l 458 578 b 564 539 494 567 529 554 b 659 483 599 524 631 505 b 728 400 687 460 710 432 b 754 281 745 368 754 328 b 730 153 754 232 746 190 b 665 62 714 117 692 86 b 570 6 637 37 606 19 b 458 -15 534 -7 497 -14 l 458 -115 l 383 -115 l 383 -15 b 208 19 322 -13 264 -2 b 57 114 152 40 101 71 l 179 231 b 274 158 204 201 236 177 b 383 128 312 139 348 129 l 383 436 b 269 474 343 447 305 460 b 177 529 234 489 203 507 b 115 609 151 551 130 578 b 93 722 100 640 93 678 b 117 834 93 764 101 801 b 183 918 134 867 155 895 b 276 973 210 941 241 959 b 383 997 310 986 346 994 l 383 1092 l 458 1092 l 458 1000 m 383 858 b 297 822 351 855 322 843 b 260 731 272 802 260 771 b 295 642 260 692 272 662 b 383 597 319 622 348 607 l 383 858 m 458 128 b 552 169 497 130 528 144 b 588 271 576 195 588 229 b 551 363 588 312 575 342 b 458 414 526 384 495 401 l 458 128 "},"%":{"ha":1292,"x_min":0,"x_max":0,"o":"m 719 242 b 740 342 719 278 726 311 b 795 424 753 373 772 401 b 877 480 819 448 846 466 b 978 500 908 493 942 500 b 1078 480 1014 500 1047 493 b 1160 424 1109 466 1137 448 b 1216 342 1184 401 1203 373 b 1236 242 1229 311 1236 278 b 1216 141 1236 206 1229 172 b 1160 59 1203 110 1184 83 b 1078 3 1137 35 1109 17 b 978 -17 1047 -10 1014 -17 b 877 3 942 -17 908 -10 b 795 59 846 17 819 35 b 740 141 772 83 753 110 b 719 242 726 172 719 206 m 1103 242 b 1067 331 1103 277 1091 306 b 978 367 1043 355 1013 367 b 889 331 943 367 913 355 b 853 242 865 306 853 277 b 889 153 853 206 865 177 b 978 117 913 129 943 117 b 1067 153 1013 117 1043 129 b 1103 242 1091 177 1103 206 m 56 742 b 76 842 56 778 62 811 b 131 924 89 873 108 901 b 213 980 155 948 182 966 b 314 1000 244 993 278 1000 b 415 980 350 1000 384 993 b 497 924 446 966 473 948 b 552 842 520 901 539 873 b 572 742 566 811 572 778 b 552 641 572 706 566 672 b 497 559 539 610 520 583 b 415 503 473 535 446 517 b 314 483 384 490 350 483 b 213 503 278 483 244 490 b 131 559 182 517 155 535 b 76 641 108 583 89 610 b 56 742 62 672 56 706 m 439 742 b 403 831 439 777 427 806 b 314 867 379 855 349 867 b 225 831 279 867 249 855 b 189 742 201 806 189 777 b 225 653 189 706 201 677 b 314 617 249 629 279 617 b 403 653 349 617 379 629 b 439 742 427 677 439 706 m 992 975 l 414 -44 l 299 8 l 876 1028 "},"&":{"ha":1029,"x_min":0,"x_max":0,"o":"m 1021 0 l 799 0 l 690 113 b 572 18 658 75 619 43 b 396 -19 526 -7 467 -19 b 271 -1 352 -19 311 -13 b 166 53 231 11 196 29 b 94 142 136 77 112 107 b 67 267 76 178 67 219 b 85 365 67 303 73 335 b 133 443 97 394 113 420 b 201 503 153 466 175 486 b 281 546 226 519 253 534 b 203 649 248 579 222 614 b 175 767 184 685 175 724 b 199 875 175 808 183 844 b 263 951 216 906 237 931 b 352 994 290 971 319 985 b 453 1008 385 1004 419 1008 b 555 994 488 1008 522 1003 b 642 949 588 984 617 969 b 702 874 667 929 687 904 b 725 769 717 844 725 809 b 709 683 725 738 720 709 b 666 610 698 656 684 632 b 602 553 648 589 627 569 b 524 508 578 536 551 521 l 685 340 l 799 519 l 989 519 l 792 235 m 456 874 b 374 843 423 874 396 863 b 340 764 351 823 340 796 b 363 683 340 736 348 709 b 428 607 378 657 400 632 b 483 635 447 615 466 625 b 528 669 500 645 515 656 b 558 713 541 682 551 697 b 569 764 566 728 569 745 b 538 841 569 794 559 819 b 456 874 516 863 489 874 m 375 439 b 323 415 356 432 339 425 b 280 382 307 406 292 395 b 250 335 267 369 257 353 b 239 274 243 317 239 297 b 253 208 239 250 244 228 b 292 160 263 189 276 173 b 344 130 307 147 325 137 b 401 119 364 123 383 119 b 506 146 442 119 477 128 b 585 221 534 163 561 188 l 375 439 "},"'":{"ha":392,"x_min":0,"x_max":0,"o":"m 267 983 l 267 617 l 125 617 l 125 983 "},"(":{"ha":458,"x_min":0,"x_max":0,"o":"m 50 400 b 103 728 50 514 68 623 b 253 1017 139 832 189 929 l 369 940 b 240 684 314 863 271 777 b 193 400 209 591 193 496 b 240 116 193 304 209 209 b 369 -140 271 23 314 -62 l 253 -217 b 103 72 189 -129 139 -32 b 50 400 68 177 50 286 "},")":{"ha":458,"x_min":0,"x_max":0,"o":"m 408 400 b 355 72 408 286 391 177 b 206 -217 319 -32 269 -129 l 89 -140 b 219 116 144 -62 188 23 b 265 400 250 209 265 304 b 219 684 265 496 250 591 b 89 940 188 777 144 863 l 206 1017 b 355 728 269 929 319 832 b 408 400 391 623 408 514 "},"*":{"ha":643,"x_min":0,"x_max":0,"o":"m 568 847 l 604 736 l 415 675 l 535 513 l 439 443 l 319 607 l 203 447 l 110 518 l 229 675 l 39 740 l 75 851 l 264 786 l 264 983 l 381 983 l 381 786 "},"+":{"ha":925,"x_min":0,"x_max":0,"o":"m 392 797 l 533 797 l 533 492 l 839 492 l 839 350 l 533 350 l 533 44 l 392 44 l 392 350 l 86 350 l 86 492 l 392 492 "},",":{"ha":361,"x_min":0,"x_max":0,"o":"m 292 192 l 174 -175 l 33 -175 l 131 192 "},"-":{"ha":444,"x_min":0,"x_max":0,"o":"m 56 271 l 56 413 l 389 413 l 389 271 "},".":{"ha":361,"x_min":0,"x_max":0,"o":"m 69 97 b 102 174 69 127 80 152 b 181 206 124 195 150 206 b 258 175 210 206 236 195 b 292 100 281 155 292 130 b 259 24 292 70 281 45 b 181 -8 237 2 211 -8 b 138 0 166 -8 152 -6 b 103 22 125 6 113 13 b 78 56 93 31 84 43 b 69 97 72 69 69 82 "},"/":{"ha":540,"x_min":0,"x_max":0,"o":"m -12 -25 l 421 1053 l 536 1008 l 103 -67 "},":":{"ha":417,"x_min":0,"x_max":0,"o":"m 97 97 b 130 174 97 127 108 152 b 208 206 152 195 178 206 b 286 175 238 206 264 195 b 319 100 308 155 319 130 b 287 24 319 70 309 45 b 208 -8 265 2 239 -8 b 166 0 194 -8 179 -6 b 131 22 153 6 141 13 b 106 56 120 31 112 43 b 97 97 100 69 97 82 m 97 567 b 130 643 97 596 108 622 b 208 675 152 664 178 675 b 286 644 238 675 264 665 b 319 569 308 624 319 599 b 287 493 319 540 309 514 b 208 461 265 472 239 461 b 166 469 194 461 179 464 b 131 492 153 475 141 482 b 106 525 120 501 112 512 b 97 567 100 538 97 552 "},";":{"ha":417,"x_min":0,"x_max":0,"o":"m 322 192 l 204 -175 l 56 -175 l 153 192 m 97 568 b 130 644 97 598 108 623 b 208 676 152 666 178 676 b 286 646 238 676 264 666 b 319 571 308 625 319 600 b 287 494 319 541 309 516 b 208 463 265 473 239 463 b 166 471 194 463 179 465 b 131 493 153 476 141 484 b 106 526 120 502 112 513 b 97 568 100 539 97 553 "},"<":{"ha":925,"x_min":0,"x_max":0,"o":"m 111 471 l 814 783 l 814 631 l 344 421 l 814 211 l 814 58 l 111 371 "},"=":{"ha":925,"x_min":0,"x_max":0,"o":"m 814 475 l 111 475 l 111 617 l 814 617 m 814 225 l 111 225 l 111 367 l 814 367 "},">":{"ha":925,"x_min":0,"x_max":0,"o":"m 814 371 l 111 58 l 111 211 l 581 421 l 111 631 l 111 783 l 814 471 "},"?":{"ha":721,"x_min":0,"x_max":0,"o":"m 292 343 b 297 403 292 365 293 385 b 312 453 300 420 305 437 b 340 499 319 469 328 484 b 383 546 351 513 366 529 l 446 606 b 491 658 463 621 478 639 b 510 729 503 678 510 701 b 476 820 510 765 498 796 b 379 857 453 845 421 857 b 322 845 358 857 339 853 b 277 813 304 837 290 827 b 249 767 265 800 255 784 b 238 713 242 749 238 731 l 67 728 b 102 847 72 772 84 812 b 172 935 120 881 144 911 b 271 990 201 959 234 977 b 390 1008 308 1002 348 1008 b 503 991 430 1008 468 1003 b 598 940 539 979 571 962 b 663 856 625 917 647 889 b 686 740 678 822 686 784 b 676 663 686 711 683 685 b 649 601 670 640 661 620 b 605 548 637 583 622 565 b 547 494 588 531 569 513 b 502 453 529 479 514 465 b 474 417 491 441 481 429 b 460 378 467 405 463 392 b 456 326 457 364 456 347 l 456 290 l 292 290 m 264 97 b 297 174 264 127 275 152 b 375 206 318 195 344 206 b 453 175 405 206 431 195 b 486 100 475 155 486 130 b 453 24 486 70 475 45 b 375 -8 432 2 406 -8 b 333 0 360 -8 346 -6 b 297 22 319 6 307 13 b 273 56 287 31 279 43 b 264 97 267 69 264 82 "},"@":{"ha":1111,"x_min":0,"x_max":0,"o":"m 572 649 b 514 629 550 649 531 642 b 472 580 497 616 483 600 b 445 514 460 560 451 538 b 436 444 439 490 436 467 b 440 409 436 433 437 422 b 453 374 442 397 447 385 b 481 348 460 364 469 355 b 525 338 492 341 506 338 b 589 356 550 338 571 344 b 632 403 606 369 621 384 b 656 465 643 422 651 443 b 664 526 661 488 664 508 b 660 570 664 541 663 556 b 645 609 657 584 652 597 b 617 638 638 621 629 630 b 572 649 605 645 590 649 m 1007 143 b 813 15 952 85 888 42 b 575 -25 738 -12 658 -25 b 358 13 495 -25 423 -12 b 190 119 292 39 237 74 b 83 283 144 165 108 219 b 44 490 57 346 44 415 b 86 696 44 564 58 633 b 200 860 114 759 152 813 b 369 969 248 906 304 942 b 575 1008 433 995 502 1008 b 758 981 638 1008 699 999 b 916 897 818 962 870 934 b 1026 758 962 860 998 814 b 1067 563 1053 703 1067 638 b 1044 415 1067 507 1059 458 b 983 308 1028 373 1008 337 b 895 244 957 280 928 258 b 792 222 862 229 828 222 b 703 249 755 222 725 231 b 669 315 681 266 669 288 l 663 315 b 599 252 649 293 627 272 b 493 222 570 232 535 222 b 347 285 430 222 381 243 b 296 447 313 326 296 381 b 315 563 296 486 302 525 b 371 664 328 600 347 634 b 457 735 395 694 424 717 b 568 763 490 753 527 763 b 657 740 603 763 633 755 b 704 686 681 725 697 707 l 706 686 l 717 742 l 840 742 l 786 479 b 778 436 784 466 782 452 b 774 392 775 420 774 406 b 783 352 774 376 777 363 b 818 336 789 341 800 336 b 908 394 854 336 884 356 b 943 551 931 433 943 486 b 915 699 943 607 934 656 b 838 808 897 742 871 778 b 721 874 805 837 766 859 b 572 896 675 888 626 896 b 412 865 514 896 460 885 b 288 778 363 844 322 815 b 208 649 253 742 227 699 b 179 489 189 600 179 546 b 209 324 179 428 189 373 b 293 198 229 275 257 233 b 422 118 329 163 372 137 b 588 90 472 100 527 90 b 781 126 663 90 727 102 b 931 226 835 150 885 184 l 1007 143 "},"A":{"ha":981,"x_min":0,"x_max":0,"o":"m 568 983 l 992 0 l 792 0 l 700 225 l 274 225 l 185 0 l -11 0 l 417 983 m 488 775 l 333 375 l 639 375 "},"B":{"ha":899,"x_min":0,"x_max":0,"o":"m 492 983 b 601 970 529 983 565 979 b 698 927 638 961 670 947 b 767 850 726 907 749 881 b 793 736 784 819 793 781 b 746 599 793 681 777 635 b 622 521 714 563 673 537 l 622 518 b 775 446 684 510 735 486 b 835 286 815 406 835 353 b 803 151 835 232 824 187 b 719 63 781 114 753 85 b 599 15 684 40 644 24 b 463 0 554 5 509 0 l 108 0 l 108 983 m 439 583 b 572 618 497 583 542 595 b 618 717 603 641 618 674 b 571 811 618 761 602 793 b 424 839 539 830 490 839 l 283 839 l 283 583 m 440 147 b 513 152 463 147 487 149 b 584 172 538 155 562 162 b 638 217 606 182 624 197 b 660 294 653 236 660 262 b 607 403 660 346 642 382 b 447 433 572 423 519 433 l 283 433 l 283 147 "},"C":{"ha":967,"x_min":0,"x_max":0,"o":"m 818 753 b 717 830 792 788 758 814 b 594 854 675 846 634 854 b 456 826 544 854 497 845 b 348 750 414 808 378 782 b 278 636 318 718 295 680 b 254 494 262 593 254 545 b 278 347 254 441 262 392 b 345 233 294 303 316 265 b 450 158 374 201 409 176 b 588 132 491 141 537 132 b 728 163 640 132 687 142 b 826 246 769 184 801 212 l 967 147 b 807 20 923 93 870 50 b 586 -25 744 -10 670 -25 b 374 13 509 -25 439 -12 b 208 120 310 39 255 74 b 100 284 162 166 126 221 b 61 494 74 347 61 418 b 102 708 61 573 75 644 b 215 869 129 771 167 825 b 383 972 262 914 319 948 b 594 1008 448 996 519 1008 b 693 999 626 1008 659 1005 b 792 972 727 993 760 984 b 881 925 823 959 853 944 b 951 858 908 906 932 884 l 818 753 "},"D":{"ha":1061,"x_min":0,"x_max":0,"o":"m 457 983 b 650 958 521 983 585 975 b 825 876 715 942 773 914 b 951 724 877 837 919 787 b 1000 492 984 662 1000 584 b 951 269 1000 406 984 331 b 825 117 919 207 877 156 b 650 28 773 77 715 47 b 457 0 585 9 521 0 l 108 0 l 108 983 m 429 153 b 565 169 475 153 520 158 b 688 223 611 179 652 197 b 778 326 725 248 755 283 b 813 492 801 370 813 425 b 778 664 813 562 801 619 b 688 768 755 708 725 743 b 565 819 652 793 611 810 b 429 833 520 829 475 833 l 283 833 l 283 153 l 429 153 "},"E":{"ha":847,"x_min":0,"x_max":0,"o":"m 760 983 l 760 831 l 283 831 l 283 581 l 735 581 l 735 433 l 283 433 l 283 156 l 785 156 l 785 0 l 108 0 l 108 983 "},"F":{"ha":796,"x_min":0,"x_max":0,"o":"m 743 983 l 743 831 l 283 831 l 283 561 l 717 561 l 717 414 l 283 414 l 283 0 l 108 0 l 108 983 "},"G":{"ha":1074,"x_min":0,"x_max":0,"o":"m 969 51 b 805 -5 919 27 865 9 b 599 -25 745 -18 676 -25 b 381 13 519 -25 446 -12 b 211 120 315 39 258 74 b 101 284 164 166 127 221 b 61 494 74 347 61 418 b 102 708 61 573 75 644 b 215 869 129 771 167 825 b 383 972 262 914 319 948 b 594 1008 448 996 519 1008 b 810 974 673 1008 745 997 b 968 885 876 952 928 922 l 847 754 b 742 825 822 782 787 806 b 596 854 697 844 649 854 b 455 826 544 854 497 845 b 347 750 413 808 377 782 b 278 636 318 718 295 680 b 254 494 262 593 254 545 b 278 349 254 442 262 393 b 348 235 295 305 318 267 b 458 159 378 202 415 177 b 604 132 501 141 550 132 b 800 167 679 132 744 144 l 800 417 l 593 417 l 593 561 l 969 561 l 969 51 "},"H":{"ha":1026,"x_min":0,"x_max":0,"o":"m 283 983 l 283 586 l 743 586 l 743 983 l 918 983 l 918 0 l 743 0 l 743 436 l 283 436 l 283 0 l 108 0 l 108 983 "},"I":{"ha":392,"x_min":0,"x_max":0,"o":"m 283 983 l 283 0 l 108 0 l 108 983 "},"J":{"ha":692,"x_min":0,"x_max":0,"o":"m 592 318 b 580 204 592 282 588 244 b 536 93 572 164 557 127 b 446 8 515 59 485 31 b 296 -25 407 -14 357 -25 b 105 35 216 -25 153 -5 b 7 192 57 75 25 127 l 168 238 b 214 160 176 205 192 179 b 293 132 236 141 263 132 b 355 146 318 132 339 137 b 392 185 371 155 384 168 b 411 247 401 203 407 223 b 417 324 415 270 417 296 l 417 983 l 592 983 l 592 318 "},"K":{"ha":957,"x_min":0,"x_max":0,"o":"m 283 983 l 283 558 l 288 558 l 699 983 l 935 983 l 475 529 l 965 0 l 719 0 l 288 493 l 283 493 l 283 0 l 108 0 l 108 983 "},"L":{"ha":710,"x_min":0,"x_max":0,"o":"m 283 983 l 283 156 l 701 156 l 701 0 l 108 0 l 108 983 "},"M":{"ha":1278,"x_min":0,"x_max":0,"o":"m 382 983 l 638 285 l 642 285 l 894 983 l 1169 983 l 1169 0 l 996 0 l 996 790 l 993 790 l 694 0 l 572 0 l 278 790 l 275 790 l 275 0 l 108 0 l 108 983 "},"N":{"ha":1083,"x_min":0,"x_max":0,"o":"m 340 983 l 797 247 l 800 247 l 800 983 l 975 983 l 975 0 l 753 0 l 286 760 l 283 760 l 283 0 l 108 0 l 108 983 "},"O":{"ha":1179,"x_min":0,"x_max":0,"o":"m 61 494 b 101 708 61 573 74 644 b 210 869 127 771 164 825 b 377 972 257 914 313 948 b 588 1008 441 996 512 1008 b 800 972 664 1008 735 996 b 968 869 865 948 921 914 b 1078 708 1015 825 1052 771 b 1118 494 1105 644 1118 573 b 1078 284 1118 418 1105 347 b 968 120 1052 221 1015 166 b 800 13 921 74 865 39 b 588 -25 735 -12 664 -25 b 377 13 512 -25 441 -12 b 210 120 313 39 257 74 b 101 284 164 166 127 221 b 61 494 74 347 61 418 m 251 494 b 276 349 251 442 259 393 b 345 235 292 305 315 267 b 452 159 375 202 411 177 b 589 132 493 141 539 132 b 726 159 639 132 685 141 b 834 235 768 177 804 202 b 903 349 864 267 887 305 b 928 494 920 393 928 442 b 903 636 928 545 920 593 b 835 750 887 680 864 718 b 728 826 805 782 769 808 b 589 854 686 845 640 854 b 451 826 538 854 492 845 b 344 750 409 808 374 782 b 276 636 315 718 292 680 b 251 494 259 593 251 545 "},"P":{"ha":847,"x_min":0,"x_max":0,"o":"m 429 983 b 582 968 486 983 537 978 b 699 918 627 958 666 941 b 774 829 731 895 756 865 b 800 699 791 793 800 750 b 769 561 800 644 790 598 b 687 472 749 524 722 494 b 565 422 652 449 612 432 b 418 407 519 412 470 407 l 283 407 l 283 0 l 108 0 l 108 983 m 406 554 b 488 560 434 554 462 556 b 557 583 513 565 537 572 b 606 626 577 593 594 608 b 624 699 618 645 624 669 b 606 769 624 727 618 751 b 558 811 594 787 578 801 b 490 831 538 821 515 828 b 411 836 464 834 438 836 l 283 836 l 283 554 l 406 554 "},"Q":{"ha":1183,"x_min":0,"x_max":0,"o":"m 575 0 b 360 34 496 0 425 11 b 195 133 296 57 241 90 b 89 291 149 176 114 228 b 51 504 64 353 51 425 b 91 709 51 579 65 647 b 201 868 117 771 154 824 b 369 972 249 913 304 947 b 578 1008 433 996 503 1008 b 786 972 653 1008 722 996 b 952 868 850 947 905 913 b 1061 709 999 824 1035 771 b 1100 504 1087 647 1100 579 b 1085 382 1100 460 1095 419 b 1045 281 1075 345 1061 311 b 990 202 1029 251 1010 225 b 925 144 969 179 947 160 l 925 142 l 1168 142 l 1168 0 m 578 851 b 445 825 531 851 486 843 b 339 753 404 807 369 783 b 269 643 309 722 286 686 b 243 504 252 600 243 554 b 267 360 243 451 251 403 b 335 250 284 317 306 281 b 440 178 365 219 400 196 b 575 153 481 161 526 153 b 709 178 623 153 668 161 b 815 250 750 196 786 219 b 885 360 845 281 868 317 b 910 504 901 403 910 451 b 886 643 910 554 902 600 b 819 753 870 686 848 722 b 714 825 790 783 755 807 b 578 851 673 843 628 851 "},"R":{"ha":874,"x_min":0,"x_max":0,"o":"m 450 983 b 585 969 496 983 541 978 b 701 921 628 959 667 943 b 782 833 734 899 762 869 b 813 701 802 797 813 753 b 752 527 813 630 792 572 b 588 436 712 482 657 452 l 850 0 l 639 0 l 411 417 l 283 417 l 283 0 l 108 0 l 108 983 m 426 560 b 501 565 451 560 476 562 b 569 586 526 569 549 576 b 618 630 589 596 605 611 b 638 703 631 649 638 673 b 619 769 638 730 631 752 b 574 810 607 786 592 800 b 510 831 555 820 534 827 b 442 836 487 834 464 836 l 283 836 l 283 560 l 426 560 "},"S":{"ha":797,"x_min":0,"x_max":0,"o":"m 610 778 b 531 838 591 802 565 822 b 429 863 497 854 463 863 b 368 855 409 863 388 860 b 313 831 348 850 329 842 b 272 790 296 821 282 807 b 256 728 261 772 256 752 b 269 671 256 706 260 687 b 308 631 279 655 291 642 b 367 601 324 619 344 610 b 443 576 390 593 415 585 b 541 542 475 566 507 555 b 634 490 575 529 606 512 b 703 410 662 469 685 442 b 731 289 722 377 731 337 b 701 151 731 236 721 190 b 624 53 682 111 656 79 b 510 -6 591 27 553 7 b 372 -25 466 -19 420 -25 b 185 10 308 -25 246 -13 b 35 115 124 34 74 69 l 160 232 b 256 153 184 199 216 172 b 375 124 297 133 336 124 b 438 131 395 124 416 126 b 495 157 459 136 478 145 b 537 202 512 169 526 184 b 553 269 547 220 553 243 b 535 334 553 295 547 317 b 486 378 523 351 506 366 b 414 411 466 391 442 402 l 326 440 b 238 474 297 450 267 461 b 158 525 208 487 181 504 b 100 603 134 546 115 572 b 78 719 85 634 78 673 b 109 849 78 769 88 813 b 191 938 130 885 157 915 b 306 991 225 962 263 979 b 438 1008 349 1003 393 1008 b 590 982 488 1008 538 1000 b 724 903 641 964 686 938 l 610 778 "},"T":{"ha":789,"x_min":0,"x_max":0,"o":"m 6 831 l 6 983 l 783 983 l 783 831 l 482 831 l 482 0 l 307 0 l 307 831 "},"U":{"ha":992,"x_min":0,"x_max":0,"o":"m 892 361 b 861 201 892 302 881 248 b 778 79 841 153 813 113 b 653 2 743 46 701 20 b 496 -25 605 -16 552 -25 b 339 2 439 -25 387 -16 b 213 79 291 20 249 46 b 130 201 178 113 150 153 b 100 361 110 248 100 302 l 100 983 l 275 983 l 275 368 b 286 283 275 339 279 311 b 323 207 294 254 306 229 b 391 153 340 185 363 167 b 496 132 419 139 454 132 b 601 153 538 132 572 139 b 669 207 629 167 652 185 b 706 283 686 229 698 254 b 717 368 713 311 717 339 l 717 983 l 892 983 l 892 361 "},"V":{"ha":907,"x_min":0,"x_max":0,"o":"m 182 983 l 453 226 l 458 226 l 732 983 l 921 983 l 526 0 l 375 0 l -14 983 "},"W":{"ha":1394,"x_min":0,"x_max":0,"o":"m 200 983 l 390 261 l 393 261 l 610 983 l 790 983 l 1003 261 l 1006 261 l 1200 983 l 1386 983 l 1099 0 l 929 0 l 699 738 l 696 738 l 465 0 l 296 0 l 8 983 "},"X":{"ha":914,"x_min":0,"x_max":0,"o":"m 40 983 l 251 983 l 454 647 l 654 983 l 856 983 l 556 521 l 908 0 l 688 0 l 447 386 l 217 0 l 6 0 l 346 525 "},"Y":{"ha":864,"x_min":0,"x_max":0,"o":"m -24 983 l 190 983 l 438 569 l 688 983 l 890 983 l 521 426 l 521 0 l 346 0 l 346 426 "},"Z":{"ha":849,"x_min":0,"x_max":0,"o":"m 583 831 l 57 831 l 57 983 l 792 983 l 792 825 l 254 156 l 800 156 l 800 0 l 49 0 l 49 158 "},"[":{"ha":458,"x_min":0,"x_max":0,"o":"m 225 908 l 225 -108 l 350 -108 l 350 -217 l 83 -217 l 83 1017 l 350 1017 l 350 908 "},"\\":{"ha":540,"x_min":0,"x_max":0,"o":"m 553 -25 l 438 -67 l 4 1008 l 119 1053 "},"]":{"ha":458,"x_min":0,"x_max":0,"o":"m 233 -108 l 233 908 l 108 908 l 108 1017 l 375 1017 l 375 -217 l 108 -217 l 108 -108 "},"^":{"ha":925,"x_min":0,"x_max":0,"o":"m 406 983 l 519 983 l 829 476 l 665 476 l 461 808 l 260 476 l 96 476 "},"_":{"ha":694,"x_min":0,"x_max":0,"o":"m 0 -208 l 0 -104 l 694 -104 l 694 -208 "},"`":{"ha":361,"x_min":0,"x_max":0,"o":"m 115 783 l -81 983 l 108 983 l 246 783 "},"a":{"ha":764,"x_min":0,"x_max":0,"o":"m 510 85 b 429 12 493 55 466 31 b 303 -17 392 -7 350 -17 b 219 -6 276 -17 248 -13 b 138 28 190 1 163 12 b 77 92 114 45 93 66 b 53 190 61 119 53 151 b 95 310 53 240 67 280 b 204 378 123 339 160 362 b 352 409 249 394 298 404 b 511 417 406 414 459 417 l 511 433 b 466 526 511 475 496 506 b 358 556 436 546 400 556 b 257 533 323 556 289 548 b 176 479 225 519 198 500 l 90 581 b 222 660 128 616 172 642 b 372 686 271 677 321 686 b 519 661 431 686 480 678 b 610 596 557 644 588 623 b 656 506 632 569 647 539 b 669 406 665 472 669 439 l 669 0 l 514 0 l 514 85 m 474 304 b 389 301 447 304 419 303 b 307 285 359 298 332 293 b 244 252 282 278 261 266 b 219 193 228 238 219 218 b 230 153 219 177 223 164 b 257 128 237 143 246 134 b 294 114 268 121 281 117 b 336 110 308 111 322 110 b 467 156 394 110 437 125 b 511 281 496 186 511 228 l 511 304 "},"b":{"ha":882,"x_min":0,"x_max":0,"o":"m 269 582 l 274 582 b 306 617 282 593 293 605 b 352 650 319 629 334 640 b 415 676 370 660 391 669 b 497 686 439 683 467 686 b 628 659 544 686 588 677 b 731 585 668 641 702 616 b 797 474 759 553 781 516 b 821 336 813 431 821 385 b 798 198 821 287 813 241 b 733 85 783 155 761 117 b 630 9 704 53 670 28 b 493 -19 590 -10 544 -19 b 360 11 446 -19 402 -9 b 264 100 319 31 287 61 l 261 100 l 261 0 l 103 0 l 103 1050 l 269 1050 m 651 336 b 640 413 651 362 647 388 b 604 482 632 439 620 462 b 544 531 588 502 569 519 b 460 550 520 544 492 550 b 378 531 429 550 402 544 b 316 481 354 518 333 501 b 277 411 299 460 286 437 b 264 333 268 385 264 359 b 277 256 264 307 268 282 b 316 188 286 231 299 208 b 378 138 333 167 354 151 b 460 119 402 126 429 119 b 544 139 492 119 520 126 b 604 189 569 152 588 169 b 640 258 620 209 632 232 b 651 336 647 284 651 310 "},"c":{"ha":678,"x_min":0,"x_max":0,"o":"m 556 482 b 497 528 543 500 523 516 b 418 547 471 541 445 547 b 338 528 388 547 361 541 b 280 479 314 516 295 500 b 246 410 265 459 253 436 b 235 333 238 385 235 359 b 247 256 235 307 239 282 b 282 188 254 231 266 208 b 341 138 298 167 317 151 b 424 119 365 126 392 119 b 501 135 450 119 475 125 b 564 179 527 145 548 160 l 668 74 b 562 5 640 44 605 21 b 422 -19 519 -11 472 -19 b 283 4 373 -19 327 -12 b 167 74 239 20 200 43 b 90 185 134 104 109 141 b 61 333 71 228 61 278 b 90 479 61 387 71 436 b 167 590 109 523 134 560 b 280 661 199 621 237 644 b 418 686 323 678 369 686 b 560 658 467 686 515 677 b 669 582 606 640 643 614 l 556 482 "},"d":{"ha":881,"x_min":0,"x_max":0,"o":"m 619 0 l 619 100 l 617 100 b 520 11 594 61 561 31 b 388 -19 479 -9 435 -19 b 251 9 337 -19 291 -10 b 148 85 210 28 176 53 b 83 198 120 117 98 155 b 60 336 67 241 60 287 b 83 474 60 385 68 431 b 150 585 99 516 121 553 b 253 659 179 616 213 641 b 383 686 293 677 336 686 b 465 676 414 686 441 683 b 528 650 489 669 510 660 b 575 617 547 640 562 629 b 607 582 588 605 599 593 l 611 582 l 611 1050 l 778 1050 l 778 0 m 229 336 b 241 258 229 310 233 284 b 276 189 249 232 261 209 b 336 139 292 169 312 152 b 421 119 360 126 388 119 b 503 138 451 119 479 126 b 565 188 527 151 547 167 b 603 256 582 208 595 231 b 617 333 612 282 617 307 b 603 411 617 359 612 385 b 565 481 595 437 582 460 b 503 531 547 501 527 518 b 421 550 479 544 451 550 b 336 531 388 550 360 544 b 276 482 312 519 292 502 b 241 413 261 462 249 439 b 229 336 233 388 229 362 "},"e":{"ha":797,"x_min":0,"x_max":0,"o":"m 569 400 b 560 461 569 421 566 442 b 532 513 554 481 545 498 b 483 548 519 527 503 539 b 413 561 463 557 439 561 b 285 516 363 561 320 546 b 228 400 251 486 231 447 l 569 400 m 736 303 b 735 281 736 295 736 288 l 228 281 b 247 215 230 256 236 234 b 289 163 257 195 271 178 b 349 129 306 149 326 138 b 418 117 371 121 394 117 b 524 140 460 117 495 124 b 594 203 552 155 576 176 l 706 114 b 419 -19 640 25 544 -19 b 276 5 368 -19 320 -11 b 163 74 233 21 195 44 b 88 183 131 103 106 140 b 61 329 70 226 61 275 b 88 476 61 383 70 432 b 163 588 106 520 131 557 b 274 660 194 619 231 643 b 414 686 317 678 364 686 b 542 663 460 686 503 678 b 644 595 582 648 616 625 b 712 483 673 565 696 528 b 736 325 728 438 736 385 "},"f":{"ha":450,"x_min":0,"x_max":0,"o":"m 0 533 l 0 667 l 126 667 l 126 765 b 140 880 126 805 131 843 b 184 976 148 916 163 949 b 267 1042 205 1004 232 1026 b 396 1067 301 1059 344 1067 b 442 1065 414 1067 430 1066 b 481 1057 455 1063 468 1061 l 469 915 b 440 922 460 918 450 920 b 406 925 429 924 418 925 b 347 911 381 925 362 920 b 313 875 332 902 321 890 b 297 826 305 860 300 844 b 293 775 294 809 293 792 l 293 667 l 447 667 l 447 533 l 293 533 l 293 0 l 126 0 l 126 533 "},"g":{"ha":878,"x_min":0,"x_max":0,"o":"m 778 60 b 756 -103 778 0 770 -55 b 687 -227 741 -152 718 -193 b 569 -306 656 -261 617 -287 b 401 -333 522 -324 466 -333 b 316 -326 375 -333 346 -331 b 227 -306 286 -322 256 -315 b 143 -271 198 -296 170 -285 b 71 -224 116 -257 92 -241 l 167 -94 b 276 -165 199 -125 236 -148 b 400 -189 317 -181 358 -189 b 501 -172 440 -189 473 -183 b 566 -124 528 -160 550 -144 b 601 -51 582 -103 594 -79 b 611 40 608 -24 611 7 l 611 89 l 608 89 b 516 15 584 56 553 32 b 390 -11 478 -3 437 -11 b 254 17 340 -11 295 -2 b 151 92 213 35 179 60 b 85 202 122 123 100 160 b 61 336 69 244 61 289 b 84 472 61 384 69 430 b 149 583 99 515 121 552 b 252 658 178 615 212 640 b 388 686 292 677 338 686 b 519 657 435 686 479 676 b 617 567 560 638 593 607 l 619 567 l 619 667 l 778 667 m 422 550 b 341 533 392 550 365 544 b 281 488 317 522 297 507 b 244 421 265 469 253 447 b 231 338 235 395 231 367 b 244 260 231 311 235 285 b 281 192 253 235 265 212 b 341 144 297 172 317 156 b 421 126 365 132 391 126 b 503 144 451 126 479 132 b 566 190 528 155 549 171 b 606 258 583 210 596 232 b 619 338 615 283 619 310 b 606 419 619 366 615 394 b 566 488 596 445 583 468 b 504 533 549 507 528 522 b 422 550 480 544 453 550 "},"h":{"ha":811,"x_min":0,"x_max":0,"o":"m 471 686 b 583 663 514 686 552 678 b 659 603 614 648 639 628 b 703 517 679 578 694 549 b 717 417 712 484 717 451 l 717 0 l 550 0 l 550 367 b 546 427 550 386 549 406 b 528 484 543 448 537 467 b 491 526 520 501 507 515 b 426 543 475 538 453 543 b 357 528 400 543 376 538 b 308 487 338 518 321 504 b 279 429 295 470 286 450 b 269 364 273 408 269 386 l 269 0 l 103 0 l 103 1050 l 269 1050 l 269 574 l 272 574 b 301 615 279 588 288 601 b 344 651 313 628 328 640 b 401 676 361 661 380 670 b 471 686 423 683 446 686 "},"i":{"ha":372,"x_min":0,"x_max":0,"o":"m 269 667 l 269 0 l 103 0 l 103 667 m 79 893 b 109 963 79 920 89 943 b 185 993 129 983 154 993 b 262 965 215 993 241 984 b 293 893 283 946 293 922 b 262 822 293 864 283 841 b 185 793 241 803 215 793 b 109 823 154 793 129 803 b 79 893 89 843 79 866 "},"j":{"ha":372,"x_min":0,"x_max":0,"o":"m 269 -40 b 260 -153 269 -80 266 -118 b 223 -247 253 -189 241 -220 b 149 -310 205 -273 180 -294 b 28 -333 118 -325 78 -333 b -14 -331 14 -333 0 -332 b -47 -325 -28 -329 -39 -327 l -33 -183 b -10 -187 -26 -185 -18 -187 b 13 -189 -1 -188 6 -189 b 60 -178 32 -189 48 -185 b 88 -147 72 -170 81 -160 b 100 -102 94 -134 98 -119 b 103 -47 102 -85 103 -67 l 103 667 l 269 667 m 79 893 b 109 963 79 920 89 943 b 185 993 129 983 154 993 b 262 965 215 993 241 984 b 293 893 283 946 293 922 b 262 822 293 864 283 841 b 185 793 241 803 215 793 b 109 823 154 793 129 803 b 79 893 89 843 79 866 "},"k":{"ha":754,"x_min":0,"x_max":0,"o":"m 269 1050 l 269 386 l 274 386 l 526 667 l 740 667 l 451 365 l 758 0 l 538 0 l 274 342 l 269 342 l 269 0 l 103 0 l 103 1050 "},"l":{"ha":372,"x_min":0,"x_max":0,"o":"m 269 1050 l 269 0 l 103 0 l 103 1050 "},"m":{"ha":1236,"x_min":0,"x_max":0,"o":"m 896 686 b 1008 663 939 686 977 678 b 1084 603 1039 648 1064 628 b 1128 517 1104 578 1119 549 b 1142 417 1137 484 1142 451 l 1142 0 l 975 0 l 975 369 b 971 431 975 389 974 409 b 953 488 968 452 962 471 b 915 531 944 505 931 519 b 850 547 898 542 877 547 b 783 531 824 547 802 542 b 738 488 765 519 750 505 b 711 428 725 470 717 450 b 703 364 706 407 703 385 l 703 0 l 536 0 l 536 403 b 506 506 536 444 526 479 b 413 547 486 534 455 547 b 347 531 388 547 366 542 b 302 490 329 521 314 507 b 276 433 291 474 282 454 b 267 367 270 411 267 389 l 267 0 l 100 0 l 100 667 l 258 667 l 258 560 l 261 560 b 291 607 269 576 278 592 b 335 647 303 622 318 635 b 394 676 353 659 372 669 b 468 686 417 683 441 686 b 597 651 520 686 563 675 b 676 560 631 628 658 598 b 765 653 699 600 728 632 b 896 686 802 675 846 686 "},"n":{"ha":808,"x_min":0,"x_max":0,"o":"m 258 667 l 258 560 l 261 560 b 338 648 276 593 302 622 b 468 686 375 673 418 686 b 580 663 512 686 549 678 b 656 603 611 648 636 628 b 700 517 676 578 691 549 b 714 417 709 484 714 451 l 714 0 l 547 0 l 547 369 b 543 431 547 389 546 409 b 525 488 540 452 534 471 b 487 531 516 505 503 519 b 422 547 471 542 449 547 b 353 531 395 547 372 542 b 305 490 333 521 317 507 b 276 433 292 474 283 454 b 267 367 270 411 267 389 l 267 0 l 100 0 l 100 667 "},"o":{"ha":847,"x_min":0,"x_max":0,"o":"m 61 336 b 90 480 61 389 71 437 b 167 590 109 523 134 560 b 282 661 199 621 238 644 b 424 686 326 678 374 686 b 565 661 474 686 521 678 b 681 590 610 644 648 621 b 758 480 713 560 739 523 b 786 336 777 437 786 389 b 758 192 786 283 777 235 b 681 80 739 148 713 111 b 565 7 648 49 610 25 b 424 -19 521 -11 474 -19 b 282 7 374 -19 326 -11 b 167 80 238 25 199 49 b 90 192 134 111 109 148 b 61 336 71 235 61 283 m 231 336 b 242 258 231 310 234 284 b 278 189 250 232 262 209 b 338 139 294 169 313 152 b 424 119 362 126 390 119 b 510 139 457 119 486 126 b 569 189 534 152 554 169 b 605 258 585 209 597 232 b 617 336 613 284 617 310 b 605 413 617 362 613 388 b 569 482 597 439 585 462 b 510 531 554 502 534 519 b 424 550 486 544 457 550 b 338 531 390 550 362 544 b 278 482 313 519 294 502 b 242 413 262 462 250 439 b 231 336 234 388 231 362 "},"p":{"ha":879,"x_min":0,"x_max":0,"o":"m 260 574 l 264 574 b 297 613 272 587 283 600 b 346 649 310 627 326 639 b 412 676 365 660 387 669 b 494 686 436 683 464 686 b 625 659 542 686 585 677 b 728 585 665 641 699 616 b 794 474 756 553 779 516 b 818 336 810 431 818 385 b 795 198 818 287 810 241 b 730 85 780 155 758 117 b 627 9 702 53 667 28 b 490 -19 587 -10 541 -19 b 360 10 443 -19 400 -10 b 269 89 321 29 291 56 l 267 89 l 267 -333 l 100 -333 l 100 667 l 260 667 m 649 336 b 637 413 649 362 645 388 b 601 482 629 439 617 462 b 542 531 586 502 566 519 b 457 550 518 544 489 550 b 375 531 426 550 399 544 b 313 481 351 518 330 501 b 274 411 296 460 283 437 b 261 333 266 385 261 359 b 274 256 261 307 266 282 b 313 188 283 231 296 208 b 375 138 330 167 351 151 b 457 119 399 126 426 119 b 542 139 489 119 518 126 b 601 189 566 152 586 169 b 637 258 617 209 629 232 b 649 336 645 284 649 310 "},"q":{"ha":878,"x_min":0,"x_max":0,"o":"m 611 -333 l 611 89 l 608 89 b 517 10 587 56 557 29 b 388 -19 478 -10 435 -19 b 251 9 337 -19 291 -10 b 148 85 210 28 176 53 b 83 198 120 117 98 155 b 60 336 67 241 60 287 b 83 474 60 385 68 431 b 150 585 99 516 121 553 b 253 659 179 616 213 641 b 383 686 293 677 336 686 b 466 676 414 686 441 683 b 532 649 491 669 513 660 b 581 613 551 639 568 627 b 614 574 595 600 606 587 l 618 574 l 618 667 l 778 667 l 778 -333 m 229 336 b 241 258 229 310 233 284 b 276 189 249 232 261 209 b 336 139 292 169 312 152 b 421 119 360 126 388 119 b 503 138 451 119 479 126 b 565 188 527 151 547 167 b 603 256 582 208 595 231 b 617 333 612 282 617 307 b 603 411 617 359 612 385 b 565 481 595 437 582 460 b 503 531 547 501 527 518 b 421 550 479 544 451 550 b 336 531 388 550 360 544 b 276 482 312 519 292 502 b 241 413 261 462 249 439 b 229 336 233 388 229 362 "},"r":{"ha":506,"x_min":0,"x_max":0,"o":"m 260 667 l 260 556 l 263 556 b 340 650 281 594 307 626 b 457 686 374 674 413 686 b 478 685 463 686 470 686 b 497 682 485 685 492 684 l 497 529 b 469 535 486 532 477 534 b 446 536 461 536 453 536 b 354 515 408 536 377 529 b 300 465 331 501 313 485 b 274 406 287 446 278 426 b 267 357 269 385 267 369 l 267 0 l 100 0 l 100 667 "},"s":{"ha":617,"x_min":0,"x_max":0,"o":"m 465 489 b 404 540 450 508 430 525 b 319 561 378 554 350 561 b 246 544 293 561 268 556 b 213 489 224 533 213 515 b 249 434 213 463 225 445 b 357 401 274 423 310 413 b 433 379 382 396 407 388 b 502 342 458 370 481 358 b 553 285 523 327 540 308 b 572 203 566 263 572 235 b 549 99 572 162 565 128 b 488 31 534 71 514 48 b 399 -8 463 13 433 0 b 294 -19 366 -16 331 -19 b 143 9 243 -19 192 -10 b 21 90 94 28 53 55 l 131 193 b 203 133 149 169 173 149 b 301 110 232 118 265 110 b 338 114 313 110 326 111 b 373 127 351 117 362 121 b 399 151 384 133 392 141 b 408 189 405 162 408 174 b 370 249 408 217 396 237 b 256 285 345 261 306 273 b 183 306 231 290 206 297 b 119 341 159 315 138 327 b 75 394 101 355 86 373 b 58 474 64 416 58 442 b 81 569 58 511 66 543 b 142 635 97 596 117 618 b 226 674 167 653 195 665 b 324 686 258 682 290 686 b 465 661 372 686 419 678 b 574 585 510 644 547 619 l 465 489 "},"t":{"ha":472,"x_min":0,"x_max":0,"o":"m 4 667 l 121 667 l 121 860 l 285 860 l 285 667 l 451 667 l 451 533 l 285 533 l 285 224 b 301 150 285 194 290 169 b 372 121 311 131 335 121 b 408 124 383 121 395 122 b 443 135 421 127 433 130 l 449 4 b 396 -9 434 -1 416 -6 b 338 -14 375 -12 356 -14 b 229 5 293 -14 257 -8 b 163 56 201 17 179 34 b 130 131 147 78 136 103 b 121 222 124 159 121 190 l 121 533 l 4 533 "},"u":{"ha":808,"x_min":0,"x_max":0,"o":"m 550 0 l 550 107 l 547 107 b 470 19 532 74 507 44 b 340 -19 434 -7 390 -19 b 228 3 297 -19 259 -12 b 152 64 197 19 172 39 b 108 150 132 89 118 118 b 94 250 99 182 94 216 l 94 667 l 261 667 l 261 297 b 265 236 261 278 263 257 b 283 178 268 215 274 196 b 322 136 293 161 305 147 b 386 119 338 125 359 119 b 455 135 412 119 435 125 b 503 176 475 146 491 160 b 532 234 516 193 525 212 b 542 300 538 256 542 278 l 542 667 l 708 667 l 708 0 "},"v":{"ha":713,"x_min":0,"x_max":0,"o":"m 182 667 l 357 181 l 360 181 l 536 667 l 713 667 l 447 0 l 269 0 l 0 667 "},"w":{"ha":1117,"x_min":0,"x_max":0,"o":"m 186 667 l 325 189 l 328 189 l 471 667 l 649 667 l 793 189 l 796 189 l 938 667 l 1111 667 l 881 0 l 711 0 l 560 467 l 557 467 l 407 0 l 238 0 l 6 667 "},"x":{"ha":746,"x_min":0,"x_max":0,"o":"m 29 667 l 229 667 l 374 460 l 522 667 l 714 667 l 475 354 l 747 0 l 544 0 l 371 243 l 196 0 l -1 0 l 269 354 "},"y":{"ha":713,"x_min":0,"x_max":0,"o":"m 185 667 l 371 182 l 374 182 l 539 667 l 713 667 l 397 -143 b 358 -224 385 -174 372 -201 b 308 -284 344 -248 328 -268 b 240 -321 289 -300 266 -312 b 144 -333 213 -329 181 -333 b 102 -331 131 -333 116 -333 b 58 -324 88 -330 73 -327 l 72 -179 b 105 -187 83 -183 94 -185 b 135 -189 116 -188 125 -189 b 179 -183 152 -189 167 -187 b 210 -163 191 -178 201 -172 b 232 -131 218 -154 225 -144 b 253 -85 238 -118 245 -102 l 286 0 l 0 667 "},"z":{"ha":669,"x_min":0,"x_max":0,"o":"m 407 533 l 64 533 l 64 667 l 606 667 l 606 519 l 244 136 l 622 136 l 622 0 l 47 0 l 47 147 "},"{":{"ha":458,"x_min":0,"x_max":0,"o":"m 14 461 b 45 465 23 461 34 463 b 76 480 57 468 67 473 b 100 510 86 487 94 497 b 110 558 106 523 110 539 l 110 833 b 124 915 110 865 115 892 b 164 972 134 937 147 956 b 221 1006 181 987 200 998 b 288 1017 242 1013 264 1017 l 389 1017 l 389 900 l 313 900 b 262 874 286 900 269 891 b 251 817 255 856 251 837 l 251 556 b 236 487 251 529 246 506 b 200 440 226 468 214 452 b 156 413 186 428 171 419 b 115 401 140 406 126 402 l 115 399 b 156 390 126 398 140 395 b 200 364 171 384 186 376 b 236 315 214 352 226 336 b 251 236 246 295 251 269 l 251 -17 b 262 -74 251 -37 255 -56 b 313 -100 269 -91 286 -100 l 389 -100 l 389 -217 l 288 -217 b 221 -206 264 -217 242 -213 b 164 -172 200 -198 181 -187 b 124 -115 147 -156 134 -137 b 110 -33 115 -92 110 -65 l 110 232 b 100 286 110 254 106 272 b 76 319 94 300 86 311 b 45 335 67 327 57 332 b 14 339 34 338 23 339 l 14 461 "},"|":{"ha":308,"x_min":0,"x_max":0,"o":"m 225 -347 l 83 -347 l 83 1042 l 225 1042 "},"}":{"ha":458,"x_min":0,"x_max":0,"o":"m 444 339 b 413 335 434 339 424 338 b 382 319 401 332 391 327 b 358 286 373 311 365 300 b 349 232 352 272 349 254 l 349 -33 b 334 -115 349 -65 344 -92 b 294 -172 324 -137 311 -156 b 238 -206 278 -187 259 -198 b 171 -217 216 -213 194 -217 l 69 -217 l 69 -100 l 146 -100 b 197 -74 173 -100 190 -91 b 207 -17 203 -56 207 -37 l 207 236 b 222 315 207 269 212 295 b 258 364 232 336 244 352 b 303 390 272 376 287 384 b 343 399 319 395 332 398 l 343 401 b 303 413 332 402 319 406 b 258 440 287 419 272 428 b 222 487 244 452 232 468 b 207 556 212 506 207 529 l 207 817 b 197 874 207 837 203 856 b 146 900 190 891 173 900 l 69 900 l 69 1017 l 171 1017 b 238 1006 194 1017 216 1013 b 294 972 259 998 278 987 b 334 915 311 956 324 937 b 349 833 344 892 349 865 l 349 558 b 358 510 349 539 352 523 b 382 480 365 497 373 487 b 413 465 391 473 401 468 b 444 461 424 463 434 461 l 444 339 "},"~":{"ha":925,"x_min":0,"x_max":0,"o":"m 479 492 b 527 463 499 479 515 469 b 559 447 540 456 550 451 b 583 441 568 444 576 441 b 610 440 591 441 600 440 b 669 463 632 440 652 448 b 718 528 687 478 703 500 l 825 438 b 722 326 793 384 758 347 b 613 296 686 306 650 296 b 529 309 583 296 555 300 b 444 351 503 318 475 332 b 397 378 426 363 410 372 b 363 394 384 385 373 391 b 338 400 353 397 345 399 b 315 401 330 401 323 401 b 260 382 296 401 277 395 b 207 314 242 369 225 346 l 100 404 b 205 518 134 461 169 499 b 313 547 241 538 276 547 b 400 533 347 547 376 543 b 479 492 424 524 450 510 "}," ":{"ha":347,"x_min":0,"x_max":0,"o":""},"¡":{"ha":472,"x_min":0,"x_max":0,"o":"m 153 378 l 319 378 l 319 -297 l 153 -297 m 125 589 b 134 631 125 604 128 618 b 158 664 140 644 148 655 b 194 686 169 673 180 681 b 236 694 207 692 221 694 b 315 663 267 694 293 684 b 347 586 336 641 347 616 b 314 511 347 556 336 531 b 236 481 292 491 266 481 b 158 513 206 481 179 491 b 125 589 136 534 125 559 "},"¢":{"ha":847,"x_min":0,"x_max":0,"o":"m 492 683 b 622 660 536 681 579 674 b 728 588 664 646 699 622 l 621 479 b 562 523 603 498 584 512 b 492 542 540 534 517 540 l 492 125 b 566 143 518 125 542 131 b 626 189 590 155 610 170 l 728 79 b 620 8 698 47 662 23 b 492 -17 578 -6 535 -15 l 492 -117 l 417 -117 l 417 -17 b 288 19 369 -13 327 -1 b 191 95 250 39 217 64 b 130 203 165 126 144 162 b 108 335 116 244 108 288 b 191 572 108 432 136 511 b 417 683 246 633 321 670 l 417 776 l 492 776 l 492 683 m 417 540 b 350 513 391 535 369 526 b 303 467 331 501 316 485 b 276 406 291 449 282 429 b 267 333 270 382 267 358 b 304 202 267 284 279 241 b 417 125 329 164 367 138 l 417 540 "},"£":{"ha":847,"x_min":0,"x_max":0,"o":"m 228 149 l 228 438 l 92 438 l 92 554 l 228 554 l 228 669 b 244 781 228 704 233 741 b 301 891 256 820 274 857 b 406 975 327 925 362 953 b 567 1008 449 997 503 1008 b 703 987 617 1008 662 1001 b 811 925 745 972 781 952 l 713 810 b 649 853 695 828 674 843 b 567 869 624 864 596 869 b 484 849 533 869 506 863 b 432 799 462 836 445 819 b 405 732 419 778 410 756 b 397 663 400 708 397 685 l 397 554 l 625 554 l 625 438 l 397 438 l 397 149 l 765 149 l 765 0 l 92 0 l 92 149 "},"€":{"ha":847,"x_min":0,"x_max":0,"o":"m 811 35 b 706 -8 784 17 749 3 b 567 -25 663 -19 617 -25 b 399 1 504 -25 448 -16 b 274 74 351 19 309 43 b 188 180 238 104 210 140 b 138 308 165 220 149 263 l 21 308 l 60 428 l 122 428 b 121 458 121 438 121 448 l 121 489 b 122 523 121 500 121 511 b 125 556 122 534 123 545 l 25 556 l 67 675 l 143 675 b 204 813 157 726 177 772 b 301 917 231 853 263 888 b 428 985 338 947 381 969 b 583 1008 476 1000 528 1008 b 709 995 628 1008 670 1004 b 806 963 748 986 781 975 l 753 824 b 674 853 731 837 705 846 b 575 863 642 859 609 863 b 492 850 547 863 519 858 b 415 814 464 842 438 830 b 352 756 391 798 370 779 b 311 675 334 732 320 706 l 711 675 l 672 556 l 285 556 b 281 488 282 536 281 513 l 281 458 b 283 428 281 447 281 437 l 639 428 l 601 308 l 304 308 b 338 235 311 282 322 258 b 396 176 353 213 373 193 b 475 137 419 160 445 147 b 572 122 505 127 537 122 b 754 168 643 122 703 138 l 811 35 "},"¥":{"ha":847,"x_min":0,"x_max":0,"o":"m 96 215 l 96 324 l 340 324 l 340 431 l 96 431 l 96 539 l 297 539 l 22 983 l 217 983 l 432 583 l 639 983 l 825 983 l 557 539 l 751 539 l 751 431 l 507 431 l 507 324 l 751 324 l 751 215 l 507 215 l 507 0 l 340 0 l 340 215 "},"Š":{"ha":797,"x_min":0,"x_max":0,"o":"m 610 778 b 531 838 591 802 565 822 b 429 863 497 854 463 863 b 368 855 409 863 388 860 b 313 831 348 850 329 842 b 272 790 296 821 282 807 b 256 728 261 772 256 752 b 269 671 256 706 260 687 b 308 631 279 655 291 642 b 367 601 324 619 344 610 b 443 576 390 593 415 585 b 541 542 475 566 507 555 b 634 490 575 529 606 512 b 703 410 662 469 685 442 b 731 289 722 377 731 337 b 701 151 731 236 721 190 b 624 53 682 111 656 79 b 510 -6 591 27 553 7 b 372 -25 466 -19 420 -25 b 185 10 308 -25 246 -13 b 35 115 124 34 74 69 l 160 232 b 256 153 184 199 216 172 b 375 124 297 133 336 124 b 438 131 395 124 416 126 b 495 157 459 136 478 145 b 537 202 512 169 526 184 b 553 269 547 220 553 243 b 535 334 553 295 547 317 b 486 378 523 351 506 366 b 414 411 466 391 442 402 l 326 440 b 238 474 297 450 267 461 b 158 525 208 487 181 504 b 100 603 134 546 115 572 b 78 719 85 634 78 673 b 109 849 78 769 88 813 b 191 938 130 885 157 915 b 306 991 225 962 263 979 b 438 1008 349 1003 393 1008 b 590 982 488 1008 538 1000 b 724 903 641 964 686 938 l 610 778 m 432 1136 l 528 1261 l 681 1261 l 521 1061 l 336 1061 l 178 1261 l 336 1261 "},"§":{"ha":847,"x_min":0,"x_max":0,"o":"m 621 788 b 549 851 602 814 578 836 b 461 875 520 867 491 875 b 418 869 447 875 433 873 b 378 853 403 866 390 860 b 348 824 366 845 356 836 b 336 783 340 813 336 799 b 350 737 336 766 341 750 b 388 700 359 723 372 711 b 444 668 403 689 422 678 b 517 636 467 658 491 647 b 601 597 544 624 572 611 b 677 546 629 582 654 565 b 732 478 700 526 718 504 b 753 389 746 453 753 423 b 720 283 753 350 742 315 b 640 211 698 251 672 227 b 697 140 667 191 686 167 b 713 50 707 113 713 83 b 685 -60 713 8 703 -28 b 615 -138 667 -91 644 -117 b 518 -185 587 -159 554 -175 b 410 -200 482 -195 446 -200 b 322 -190 381 -200 352 -197 b 235 -161 291 -184 263 -174 b 156 -112 207 -148 181 -132 b 94 -43 132 -93 111 -70 l 232 39 b 307 -34 249 6 274 -18 b 408 -58 340 -50 374 -58 b 453 -53 422 -58 437 -56 b 496 -35 469 -49 483 -43 b 528 -3 509 -26 519 -16 b 540 40 536 9 540 24 b 527 92 540 61 536 78 b 488 131 518 107 505 119 b 422 163 470 142 448 153 b 332 199 396 174 366 186 b 255 232 306 209 280 220 b 187 276 229 244 207 259 b 138 336 167 293 151 313 b 119 419 126 359 119 387 b 131 488 119 444 123 467 b 160 544 138 509 148 528 b 203 588 173 561 187 576 b 253 621 219 601 235 612 b 168 779 196 657 168 710 b 194 881 168 818 177 852 b 261 952 211 909 233 933 b 354 994 289 971 320 985 b 457 1008 388 1004 423 1008 b 613 978 512 1008 564 998 b 735 889 663 959 703 929 l 621 788 m 535 272 b 578 313 553 281 568 295 b 594 367 589 330 594 348 b 584 412 594 384 591 399 b 558 445 577 424 568 435 b 522 471 547 455 535 463 b 482 492 508 478 495 485 l 358 547 b 302 512 337 538 318 526 b 278 450 286 497 278 477 b 288 406 278 433 281 419 b 315 374 295 394 304 383 b 351 351 325 366 337 358 b 390 332 364 344 377 338 l 535 272 "},"š":{"ha":617,"x_min":0,"x_max":0,"o":"m 465 489 b 404 540 450 508 430 525 b 319 561 378 554 350 561 b 246 544 293 561 268 556 b 213 489 224 533 213 515 b 249 434 213 463 225 445 b 357 401 274 423 310 413 b 433 379 382 396 407 388 b 502 342 458 370 481 358 b 553 285 523 327 540 308 b 572 203 566 263 572 235 b 549 99 572 162 565 128 b 488 31 534 71 514 48 b 399 -8 463 13 433 0 b 294 -19 366 -16 331 -19 b 143 9 243 -19 192 -10 b 21 90 94 28 53 55 l 131 193 b 203 133 149 169 173 149 b 301 110 232 118 265 110 b 338 114 313 110 326 111 b 373 127 351 117 362 121 b 399 151 384 133 392 141 b 408 189 405 162 408 174 b 370 249 408 217 396 237 b 256 285 345 261 306 273 b 183 306 231 290 206 297 b 119 341 159 315 138 327 b 75 394 101 355 86 373 b 58 474 64 416 58 442 b 81 569 58 511 66 543 b 142 635 97 596 117 618 b 226 674 167 653 195 665 b 324 686 258 682 290 686 b 465 661 372 686 419 678 b 574 585 510 644 547 619 l 465 489 m 319 858 l 415 983 l 568 983 l 408 783 l 224 783 l 65 983 l 224 983 "},"©":{"ha":1111,"x_min":0,"x_max":0,"o":"m 714 615 b 658 657 701 632 682 646 b 581 674 633 668 607 674 b 506 658 553 674 528 669 b 452 617 484 648 466 634 b 419 558 438 600 427 581 b 408 490 412 536 408 513 b 420 420 408 466 412 443 b 455 360 428 397 440 378 b 512 319 470 343 489 329 b 590 303 534 308 561 303 b 662 317 614 303 638 307 b 719 356 685 326 705 339 l 800 261 b 706 199 776 234 744 214 b 581 178 667 185 625 178 b 456 198 536 178 495 184 b 355 258 418 211 384 231 b 286 355 326 284 303 316 b 261 488 269 393 261 438 b 286 618 261 536 269 579 b 355 716 303 657 326 690 b 457 777 384 742 418 763 b 581 799 496 791 537 799 b 706 774 625 799 667 790 b 801 703 746 757 777 733 l 714 615 m 28 490 b 69 695 28 563 42 632 b 183 861 97 759 135 814 b 351 973 230 908 286 946 b 557 1014 415 1000 484 1014 b 761 973 629 1014 697 1000 b 928 861 825 946 881 908 b 1042 695 976 814 1014 759 b 1083 490 1069 632 1083 563 b 1042 287 1083 418 1069 350 b 928 121 1014 223 976 168 b 761 10 881 74 825 37 b 557 -31 697 -17 629 -31 b 351 10 484 -31 415 -17 b 183 121 286 37 230 74 b 69 287 135 168 97 223 b 28 490 42 350 28 418 m 111 490 b 147 318 111 429 123 372 b 242 177 170 264 202 217 b 384 82 283 137 330 105 b 557 47 438 59 496 47 b 729 82 618 47 675 59 b 870 177 783 105 830 137 b 965 318 910 217 942 264 b 1000 490 988 372 1000 429 b 965 663 1000 551 988 609 b 870 805 942 717 910 765 b 729 901 830 845 783 877 b 557 936 675 924 618 936 b 384 901 496 936 438 924 b 242 805 330 877 283 845 b 147 663 202 765 170 717 b 111 490 123 609 111 551 "},"ª":{"ha":528,"x_min":0,"x_max":0,"o":"m 338 640 b 290 603 328 625 313 612 b 214 589 268 594 243 589 b 160 597 195 589 177 591 b 113 619 142 602 127 609 b 81 656 100 628 89 641 b 68 708 72 672 68 689 b 93 785 68 741 76 766 b 156 826 110 803 131 817 b 241 844 182 836 210 841 b 331 847 272 846 302 847 l 331 856 b 307 901 331 877 323 892 b 247 914 291 909 271 914 b 194 902 229 914 211 910 b 151 871 177 894 163 884 l 90 943 b 167 990 112 964 137 980 b 257 1004 196 999 226 1004 b 347 991 293 1004 323 1000 b 403 955 370 982 389 970 b 432 902 417 940 426 922 b 440 840 438 882 440 862 l 440 599 l 339 599 l 339 640 m 311 774 b 271 772 299 774 286 773 b 229 764 256 770 242 768 b 197 748 216 760 205 755 b 183 719 188 741 183 731 b 202 685 183 704 190 692 b 243 675 215 678 228 675 b 308 697 272 675 294 682 b 331 756 323 712 331 731 l 331 774 "},"«":{"ha":721,"x_min":0,"x_max":0,"o":"m 358 101 l 253 31 l 42 344 l 253 656 l 357 585 l 197 344 m 668 101 l 563 31 l 351 344 l 563 656 l 667 585 l 507 344 "},"¬":{"ha":925,"x_min":0,"x_max":0,"o":"m 86 475 l 86 617 l 839 617 l 839 204 l 697 204 l 697 475 "},"­":{"ha":444,"x_min":0,"x_max":0,"o":"m 56 271 l 56 413 l 389 413 l 389 271 "},"®":{"ha":833,"x_min":0,"x_max":0,"o":"m 733 685 b 708 563 733 641 725 600 b 641 464 692 525 669 492 b 541 398 613 436 579 414 b 418 374 503 382 462 374 b 294 398 375 374 333 382 b 193 464 256 414 222 436 b 125 563 164 492 142 525 b 100 685 108 600 100 641 b 125 808 100 728 108 769 b 193 908 142 846 164 879 b 294 975 222 936 256 958 b 418 1000 333 992 375 1000 b 541 975 462 1000 503 992 b 641 908 579 958 613 936 b 708 808 669 879 692 846 b 733 685 725 769 733 728 m 683 685 b 663 789 683 722 676 756 b 606 874 649 821 630 850 b 522 932 581 899 553 918 b 418 953 490 946 455 953 b 314 932 381 953 346 946 b 228 874 281 918 253 899 b 171 789 204 850 185 821 b 150 685 157 756 150 722 b 171 582 150 649 157 614 b 228 497 185 550 204 521 b 314 440 253 473 281 454 b 418 419 346 426 381 419 b 522 440 455 419 490 426 b 606 497 553 454 581 473 b 663 582 630 521 649 550 b 683 685 676 614 683 649 m 415 644 l 375 644 l 375 511 l 276 511 l 276 872 l 432 872 b 485 867 450 872 467 870 b 533 848 502 863 518 857 b 567 813 547 839 559 827 b 581 758 576 798 581 780 b 560 697 581 734 574 714 b 508 660 547 679 530 667 l 600 511 l 485 511 m 476 757 b 460 783 476 769 471 778 b 428 792 450 789 439 792 l 375 792 l 375 717 l 428 717 b 462 728 441 717 452 720 b 476 757 472 735 476 745 "},"¯":{"ha":361,"x_min":0,"x_max":0,"o":"m -42 826 l -42 935 l 403 935 l 403 826 "},"°":{"ha":556,"x_min":0,"x_max":0,"o":"m 56 778 b 73 864 56 808 61 837 b 121 935 84 891 100 914 b 192 983 141 955 165 971 b 278 1000 219 994 247 1000 b 364 983 308 1000 337 994 b 435 935 391 971 414 955 b 483 864 455 914 471 891 b 500 778 494 837 500 808 b 483 692 500 747 494 719 b 435 621 471 665 455 641 b 364 573 414 600 391 584 b 278 556 337 561 308 556 b 192 573 247 556 219 561 b 121 621 165 584 141 600 b 73 692 100 641 84 665 b 56 778 61 719 56 747 m 164 778 b 197 697 164 746 175 719 b 278 664 219 675 246 664 b 358 697 309 664 336 675 b 392 778 381 719 392 746 b 358 858 392 809 381 836 b 278 892 336 881 309 892 b 197 858 246 892 219 881 b 164 778 175 836 164 809 "},"±":{"ha":925,"x_min":0,"x_max":0,"o":"m 531 797 l 531 599 l 814 599 l 814 457 l 531 457 l 531 258 l 397 258 l 397 457 l 111 457 l 111 599 l 397 599 l 397 797 m 814 186 l 814 44 l 111 44 l 111 186 "},"²":{"ha":556,"x_min":0,"x_max":0,"o":"m 482 507 l 482 393 l 78 393 l 78 499 l 303 722 b 339 768 318 737 330 752 b 353 819 348 784 353 801 b 332 869 353 841 346 857 b 279 888 318 881 300 888 b 220 861 255 888 235 879 b 194 794 205 844 196 821 l 72 811 b 94 886 75 838 82 863 b 138 946 105 909 120 929 b 201 985 156 963 177 975 b 279 999 225 994 251 999 b 355 988 305 999 330 995 b 420 954 379 980 401 969 b 465 899 439 939 454 921 b 482 821 476 876 482 850 b 453 721 482 782 472 749 b 386 642 434 693 412 667 l 247 507 "},"³":{"ha":556,"x_min":0,"x_max":0,"o":"m 244 750 b 316 767 270 750 294 756 b 349 829 338 779 349 800 b 327 875 349 849 341 864 b 275 892 313 886 295 892 b 225 871 256 892 239 885 b 197 818 211 857 202 839 l 78 847 b 152 957 91 892 116 928 b 279 1000 189 986 231 1000 b 419 960 335 1000 381 987 b 476 836 457 933 476 892 b 456 761 476 809 470 784 b 400 707 443 738 424 720 b 468 654 430 696 452 678 b 492 568 484 630 492 601 b 473 486 492 537 485 509 b 424 429 460 463 444 444 b 356 396 403 414 381 403 b 279 385 331 388 305 385 b 143 421 228 385 183 397 b 56 540 103 445 74 485 l 174 575 b 209 517 181 552 193 533 b 274 494 225 502 247 494 b 336 513 296 494 317 500 b 365 574 356 525 365 545 b 353 613 365 589 361 602 b 324 636 346 623 336 631 b 285 648 313 642 300 646 b 243 651 271 650 257 651 l 206 651 l 206 750 "},"Ž":{"ha":849,"x_min":0,"x_max":0,"o":"m 583 831 l 57 831 l 57 983 l 792 983 l 792 825 l 254 156 l 800 156 l 800 0 l 49 0 l 49 158 m 429 1136 l 525 1261 l 678 1261 l 518 1061 l 333 1061 l 175 1261 l 333 1261 "},"µ":{"ha":797,"x_min":0,"x_max":0,"o":"m 261 329 b 264 267 261 311 262 290 b 278 203 266 245 271 223 b 315 153 286 184 298 167 b 383 133 331 140 354 133 b 453 147 411 133 434 138 b 501 185 472 156 488 169 b 528 239 513 200 522 219 b 536 303 533 259 536 281 l 536 667 l 703 667 l 703 0 l 544 0 l 544 107 l 542 107 b 515 60 534 90 525 75 b 476 20 504 45 491 32 b 422 -7 460 9 443 0 b 351 -17 402 -13 378 -17 b 301 -8 335 -17 318 -14 b 261 17 284 -3 270 6 l 261 -317 l 94 -317 l 94 667 l 261 667 "},"¶":{"ha":833,"x_min":0,"x_max":0,"o":"m 342 469 b 219 488 296 469 255 476 b 125 541 182 501 151 518 b 65 622 99 564 79 591 b 43 722 50 653 43 686 b 67 842 43 769 51 808 b 133 923 82 875 104 902 b 235 969 161 944 195 959 b 367 983 275 978 319 983 l 740 983 l 740 -175 l 615 -175 l 615 883 l 467 883 l 467 -175 l 342 -175 l 342 469 "},"·":{"ha":361,"x_min":0,"x_max":0,"o":"m 69 404 b 102 481 69 434 80 459 b 181 513 124 502 150 513 b 258 482 210 513 236 502 b 292 407 281 462 292 437 b 259 331 292 377 281 352 b 181 299 237 309 211 299 b 138 307 166 299 152 301 b 103 329 125 313 113 320 b 78 363 93 338 84 350 b 69 404 72 375 69 389 "},"ž":{"ha":669,"x_min":0,"x_max":0,"o":"m 407 533 l 64 533 l 64 667 l 606 667 l 606 519 l 244 136 l 622 136 l 622 0 l 47 0 l 47 147 m 344 858 l 440 983 l 593 983 l 433 783 l 249 783 l 90 983 l 249 983 "},"¹":{"ha":556,"x_min":0,"x_max":0,"o":"m 249 983 l 364 983 l 364 388 l 233 388 l 233 828 l 132 743 l 58 829 "},"º":{"ha":528,"x_min":0,"x_max":0,"o":"m 475 797 b 459 715 475 768 470 740 b 415 649 448 689 434 667 b 349 607 397 631 375 617 b 264 592 323 597 294 592 b 179 607 233 592 205 597 b 113 649 153 617 131 631 b 69 715 94 667 79 689 b 53 797 58 740 53 768 b 69 881 53 828 58 856 b 113 945 79 906 94 927 b 179 988 131 963 153 977 b 264 1003 205 998 233 1003 b 349 988 294 1003 323 998 b 415 945 375 977 397 963 b 459 881 434 927 448 906 b 475 797 470 856 475 828 m 361 797 b 337 870 361 825 353 849 b 264 901 321 891 296 901 b 192 870 231 901 207 891 b 168 797 176 849 168 825 b 192 725 168 770 176 746 b 264 693 207 704 231 693 b 337 725 296 693 321 704 b 361 797 353 746 361 770 "},"»":{"ha":721,"x_min":0,"x_max":0,"o":"m 363 585 l 468 656 l 679 342 l 468 31 l 364 101 l 524 342 m 53 585 l 158 656 l 369 342 l 158 31 l 54 101 l 214 342 "},"Œ":{"ha":1426,"x_min":0,"x_max":0,"o":"m 708 831 l 632 831 b 496 817 587 831 541 826 b 373 767 450 809 409 792 b 283 663 336 742 306 707 b 249 492 260 619 249 562 b 283 327 249 425 260 370 b 373 224 306 284 336 250 b 496 171 409 199 450 181 b 632 156 541 161 587 156 l 708 156 m 1339 831 l 883 831 l 883 581 l 1314 581 l 1314 433 l 883 433 l 883 156 l 1364 156 l 1364 0 l 604 0 b 411 28 540 0 476 9 b 236 117 346 47 288 77 b 110 269 184 156 142 207 b 61 492 77 331 61 406 b 110 724 61 584 77 662 b 236 876 142 787 184 837 b 411 958 288 914 346 942 b 604 983 476 975 540 983 l 1339 983 "},"œ":{"ha":1332,"x_min":0,"x_max":0,"o":"m 949 686 b 1077 663 995 686 1038 678 b 1179 595 1116 648 1150 625 b 1247 483 1208 565 1230 528 b 1271 325 1263 438 1271 385 l 1271 303 b 1269 281 1271 295 1270 288 l 763 281 b 783 214 765 256 772 234 b 826 162 794 194 809 176 b 884 128 843 147 862 136 b 953 117 906 121 929 117 b 1058 140 994 117 1030 125 b 1129 204 1087 156 1111 177 l 1239 114 b 953 -19 1173 25 1078 -19 b 794 15 894 -19 841 -8 b 682 107 747 37 710 68 b 572 15 654 69 617 38 b 418 -19 526 -8 475 -19 b 278 7 368 -19 321 -11 b 165 80 234 25 197 49 b 89 192 133 111 107 148 b 61 336 70 235 61 283 b 89 480 61 389 70 437 b 165 590 107 523 133 560 b 278 661 197 621 234 644 b 418 686 321 678 368 686 b 574 651 475 686 526 674 b 686 557 621 627 658 596 b 796 649 715 594 751 625 b 949 686 840 674 891 686 m 231 336 b 242 258 231 310 234 284 b 278 189 250 232 262 209 b 338 139 294 169 313 152 b 424 119 362 126 390 119 b 510 139 457 119 486 126 b 569 189 534 152 554 169 b 605 258 585 209 597 232 b 617 336 613 284 617 310 b 605 413 617 362 613 388 b 569 482 597 439 585 462 b 510 531 554 502 534 519 b 424 550 486 544 457 550 b 338 531 390 550 362 544 b 278 482 313 519 294 502 b 242 413 262 462 250 439 b 231 336 234 388 231 362 m 1104 400 b 1095 461 1104 421 1101 442 b 1067 513 1089 481 1080 498 b 1017 548 1054 527 1037 539 b 947 561 997 557 974 561 b 820 516 897 561 855 546 b 763 400 785 486 766 447 l 1104 400 "},"Ÿ":{"ha":864,"x_min":0,"x_max":0,"o":"m -24 983 l 190 983 l 438 569 l 688 983 l 890 983 l 521 426 l 521 0 l 346 0 l 346 426 m 201 1172 b 229 1240 201 1198 211 1221 b 300 1269 248 1260 271 1269 b 372 1242 329 1269 353 1260 b 401 1172 392 1223 401 1200 b 372 1103 401 1144 392 1121 b 300 1075 353 1084 329 1075 b 229 1104 271 1075 248 1085 b 201 1172 211 1124 201 1146 m 474 1172 b 501 1240 474 1198 483 1221 b 572 1269 520 1260 544 1269 b 644 1242 601 1269 625 1260 b 674 1172 664 1223 674 1200 b 644 1103 674 1144 664 1121 b 572 1075 625 1084 601 1075 b 501 1104 544 1075 520 1085 b 474 1172 483 1124 474 1146 "},"¿":{"ha":721,"x_min":0,"x_max":0,"o":"m 435 343 b 430 283 435 321 433 301 b 415 233 427 266 422 249 b 387 188 408 218 398 202 b 343 140 375 173 361 157 l 281 81 b 235 28 263 65 248 47 b 217 -43 223 8 217 -15 b 251 -134 217 -79 228 -109 b 347 -171 273 -159 306 -171 b 405 -159 369 -171 388 -167 b 449 -127 422 -151 437 -141 b 478 -81 462 -114 471 -98 b 489 -26 484 -63 488 -45 l 660 -42 b 624 -160 654 -86 642 -126 b 554 -249 606 -195 583 -225 b 456 -303 525 -273 493 -291 b 336 -322 419 -316 379 -322 b 223 -305 296 -322 259 -316 b 128 -253 187 -293 156 -276 b 64 -169 101 -231 80 -203 b 40 -54 48 -136 40 -98 b 50 24 40 -25 44 1 b 78 85 56 46 66 66 b 122 138 90 103 104 121 b 179 192 139 155 158 173 b 224 233 197 207 212 221 b 252 269 236 245 245 257 b 267 308 259 281 264 294 b 271 360 269 322 271 339 l 271 396 l 435 396 m 463 589 b 430 513 463 559 452 534 b 351 481 408 491 382 481 b 274 511 322 481 296 491 b 240 586 251 531 240 556 b 273 663 240 616 251 641 b 351 694 295 684 321 694 b 394 686 366 694 380 692 b 429 664 407 681 419 673 b 453 631 439 655 447 644 b 463 589 459 618 463 604 "},"À":{"ha":981,"x_min":0,"x_max":0,"o":"m 568 983 l 992 0 l 792 0 l 700 225 l 274 225 l 185 0 l -11 0 l 417 983 m 488 775 l 333 375 l 639 375 m 429 1061 l 233 1261 l 422 1261 l 560 1061 "},"Á":{"ha":981,"x_min":0,"x_max":0,"o":"m 568 983 l 992 0 l 792 0 l 700 225 l 274 225 l 185 0 l -11 0 l 417 983 m 488 775 l 333 375 l 639 375 m 744 1261 l 549 1061 l 418 1061 l 556 1261 "},"Â":{"ha":981,"x_min":0,"x_max":0,"o":"m 568 983 l 992 0 l 792 0 l 700 225 l 274 225 l 185 0 l -11 0 l 417 983 m 488 775 l 333 375 l 639 375 m 492 1186 l 396 1061 l 240 1061 l 400 1261 l 588 1261 l 746 1061 l 588 1061 "},"Ã":{"ha":981,"x_min":0,"x_max":0,"o":"m 568 983 l 992 0 l 792 0 l 700 225 l 274 225 l 185 0 l -11 0 l 417 983 m 488 775 l 333 375 l 639 375 m 236 1067 b 252 1132 240 1089 245 1111 b 281 1188 259 1153 269 1172 b 326 1228 293 1204 308 1218 b 392 1243 344 1238 366 1243 b 448 1236 410 1243 429 1241 b 501 1218 467 1231 485 1225 b 552 1199 520 1211 537 1204 b 592 1192 567 1194 581 1192 b 634 1209 610 1192 624 1197 b 656 1250 644 1221 651 1234 l 747 1250 b 731 1185 744 1228 738 1206 b 703 1128 724 1163 715 1145 b 658 1089 691 1112 676 1099 b 592 1074 640 1079 618 1074 b 533 1082 572 1074 553 1076 b 478 1101 514 1088 495 1094 b 431 1119 461 1109 445 1115 b 392 1126 416 1124 403 1126 b 349 1108 373 1126 359 1120 b 328 1067 340 1096 332 1082 l 236 1067 "},"Ä":{"ha":981,"x_min":0,"x_max":0,"o":"m 568 983 l 992 0 l 792 0 l 700 225 l 274 225 l 185 0 l -11 0 l 417 983 m 488 775 l 333 375 l 639 375 m 258 1172 b 286 1240 258 1198 268 1221 b 357 1269 305 1260 328 1269 b 429 1242 386 1269 410 1260 b 458 1172 449 1223 458 1200 b 429 1103 458 1144 449 1121 b 357 1075 410 1084 386 1075 b 286 1104 328 1075 305 1085 b 258 1172 268 1124 258 1146 m 531 1172 b 558 1240 531 1198 540 1221 b 629 1269 577 1260 600 1269 b 701 1242 658 1269 682 1260 b 731 1172 721 1223 731 1200 b 701 1103 731 1144 721 1121 b 629 1075 682 1084 658 1075 b 558 1104 600 1075 577 1085 b 531 1172 540 1124 531 1146 "},"Å":{"ha":981,"x_min":0,"x_max":0,"o":"m 568 983 l 992 0 l 792 0 l 700 225 l 274 225 l 185 0 l -11 0 l 417 983 m 488 775 l 333 375 l 639 375 m 636 1188 b 594 1085 636 1146 622 1112 b 490 1046 567 1059 532 1046 b 386 1085 449 1046 414 1059 b 344 1186 358 1112 344 1145 b 356 1243 344 1206 348 1225 b 386 1288 363 1261 373 1276 b 432 1318 399 1301 414 1311 b 490 1329 450 1325 469 1329 b 594 1290 532 1329 567 1316 b 636 1188 622 1263 636 1229 m 572 1188 b 549 1244 572 1211 564 1230 b 490 1267 533 1259 513 1267 b 431 1244 466 1267 447 1259 b 408 1186 416 1228 408 1209 b 432 1131 408 1164 416 1145 b 490 1108 448 1116 467 1108 b 549 1131 513 1108 533 1116 b 572 1188 564 1145 572 1164 "},"Æ":{"ha":1453,"x_min":0,"x_max":0,"o":"m 363 258 l 204 0 l -8 0 l 621 983 l 1365 983 l 1365 831 l 910 831 l 910 581 l 1340 581 l 1340 433 l 910 433 l 910 156 l 1390 156 l 1390 0 l 735 0 l 735 258 m 735 831 l 714 831 l 454 408 l 735 408 "},"Ç":{"ha":967,"x_min":0,"x_max":0,"o":"m 818 753 b 717 830 792 788 758 814 b 594 854 675 846 634 854 b 456 826 544 854 497 845 b 348 750 414 808 378 782 b 278 636 318 718 295 680 b 254 494 262 593 254 545 b 278 347 254 441 262 392 b 345 233 294 303 316 265 b 450 158 374 201 409 176 b 588 132 491 141 537 132 b 728 163 640 132 687 142 b 826 246 769 184 801 212 l 967 147 b 815 24 925 94 875 53 b 608 -24 756 -5 687 -21 l 564 -89 b 578 -87 569 -88 574 -87 l 590 -87 b 642 -92 608 -87 625 -89 b 689 -110 659 -96 675 -101 b 723 -144 703 -118 714 -130 b 736 -203 732 -159 736 -179 b 718 -266 736 -228 730 -249 b 673 -306 706 -283 691 -297 b 612 -327 655 -316 634 -323 b 547 -333 589 -331 568 -333 b 465 -323 519 -333 492 -330 b 394 -297 437 -316 414 -307 l 426 -231 b 540 -258 462 -249 500 -258 b 565 -256 548 -258 556 -258 b 591 -248 575 -255 583 -252 b 611 -231 599 -244 606 -238 b 619 -201 617 -223 619 -213 b 612 -176 619 -191 617 -183 b 593 -161 607 -170 600 -165 b 569 -153 586 -157 578 -155 b 546 -151 561 -152 553 -151 b 519 -153 538 -151 530 -152 b 492 -160 509 -155 500 -157 l 460 -125 l 531 -22 b 340 28 461 -17 398 0 b 192 137 283 56 233 92 b 95 295 150 182 118 234 b 61 494 72 356 61 422 b 102 708 61 573 75 644 b 215 869 129 771 167 825 b 383 972 262 914 319 948 b 594 1008 448 996 519 1008 b 693 999 626 1008 659 1005 b 792 972 727 993 760 984 b 881 925 823 959 853 944 b 951 858 908 906 932 884 l 818 753 "},"È":{"ha":847,"x_min":0,"x_max":0,"o":"m 760 983 l 760 831 l 283 831 l 283 581 l 735 581 l 735 433 l 283 433 l 283 156 l 785 156 l 785 0 l 108 0 l 108 983 m 418 1061 l 222 1261 l 411 1261 l 549 1061 "},"É":{"ha":847,"x_min":0,"x_max":0,"o":"m 760 983 l 760 831 l 283 831 l 283 581 l 735 581 l 735 433 l 283 433 l 283 156 l 785 156 l 785 0 l 108 0 l 108 983 m 678 1261 l 482 1061 l 351 1061 l 489 1261 "},"Ê":{"ha":847,"x_min":0,"x_max":0,"o":"m 760 983 l 760 831 l 283 831 l 283 581 l 735 581 l 735 433 l 283 433 l 283 156 l 785 156 l 785 0 l 108 0 l 108 983 m 439 1186 l 343 1061 l 188 1061 l 347 1261 l 535 1261 l 693 1061 l 535 1061 "},"Ë":{"ha":847,"x_min":0,"x_max":0,"o":"m 760 983 l 760 831 l 283 831 l 283 581 l 735 581 l 735 433 l 283 433 l 283 156 l 785 156 l 785 0 l 108 0 l 108 983 m 206 1172 b 233 1240 206 1198 215 1221 b 304 1269 252 1260 275 1269 b 376 1242 333 1269 357 1260 b 406 1172 396 1223 406 1200 b 376 1103 406 1144 396 1121 b 304 1075 357 1084 333 1075 b 233 1104 275 1075 252 1085 b 206 1172 215 1124 206 1146 m 478 1172 b 506 1240 478 1198 487 1221 b 576 1269 524 1260 548 1269 b 649 1242 605 1269 629 1260 b 678 1172 668 1223 678 1200 b 649 1103 678 1144 668 1121 b 576 1075 629 1084 605 1075 b 506 1104 548 1075 524 1085 b 478 1172 487 1124 478 1146 "},"Ì":{"ha":392,"x_min":0,"x_max":0,"o":"m 283 983 l 283 0 l 108 0 l 108 983 m 151 1061 l -44 1261 l 144 1261 l 282 1061 "},"Í":{"ha":392,"x_min":0,"x_max":0,"o":"m 283 983 l 283 0 l 108 0 l 108 983 m 435 1261 l 239 1061 l 108 1061 l 246 1261 "},"Î":{"ha":392,"x_min":0,"x_max":0,"o":"m 283 983 l 283 0 l 108 0 l 108 983 m 193 1186 l 97 1061 l -58 1061 l 101 1261 l 289 1261 l 447 1061 l 289 1061 "},"Ï":{"ha":392,"x_min":0,"x_max":0,"o":"m 283 983 l 283 0 l 108 0 l 108 983 m -40 1172 b -12 1240 -40 1198 -31 1221 b 58 1269 6 1260 30 1269 b 131 1242 87 1269 111 1260 b 160 1172 150 1223 160 1200 b 131 1103 160 1144 150 1121 b 58 1075 111 1084 87 1075 b -12 1104 30 1075 6 1085 b -40 1172 -31 1124 -40 1146 m 232 1172 b 260 1240 232 1198 241 1221 b 331 1269 278 1260 302 1269 b 403 1242 359 1269 383 1260 b 432 1172 422 1223 432 1200 b 403 1103 432 1144 422 1121 b 331 1075 383 1084 359 1075 b 260 1104 302 1075 278 1085 b 232 1172 241 1124 232 1146 "},"Ð":{"ha":1061,"x_min":0,"x_max":0,"o":"m 18 450 l 18 567 l 110 567 l 110 983 l 497 983 b 685 953 562 983 625 973 b 844 863 745 934 798 903 b 956 709 891 822 928 771 b 997 492 983 647 997 575 b 949 273 997 407 981 334 b 826 120 917 211 876 160 b 658 30 775 80 719 50 b 476 0 596 10 536 0 l 110 0 l 110 450 m 415 158 b 570 177 470 158 522 165 b 697 235 619 190 661 209 b 783 338 733 262 762 296 b 814 492 803 380 814 431 b 786 644 814 551 805 602 b 709 748 768 687 742 722 b 592 806 676 774 637 794 b 444 825 547 819 498 825 l 285 825 l 285 567 l 585 567 l 585 450 l 285 450 l 285 158 l 415 158 "},"Ñ":{"ha":1083,"x_min":0,"x_max":0,"o":"m 340 983 l 797 247 l 800 247 l 800 983 l 975 983 l 975 0 l 753 0 l 286 760 l 283 760 l 283 0 l 108 0 l 108 983 m 285 1067 b 301 1132 288 1089 294 1111 b 329 1188 308 1153 317 1172 b 374 1228 341 1204 356 1218 b 440 1243 392 1238 414 1243 b 497 1236 459 1243 478 1241 b 550 1218 516 1231 533 1225 b 601 1199 569 1211 585 1204 b 640 1192 616 1194 629 1192 b 683 1209 659 1192 673 1197 b 704 1250 692 1221 700 1234 l 796 1250 b 780 1185 792 1228 787 1206 b 751 1128 773 1163 763 1145 b 706 1089 739 1112 724 1099 b 640 1074 688 1079 666 1074 b 582 1082 621 1074 601 1076 b 526 1101 563 1088 544 1094 b 479 1119 510 1109 494 1115 b 440 1126 464 1124 451 1126 b 398 1108 422 1126 408 1120 b 376 1067 388 1096 381 1082 l 285 1067 "},"Ò":{"ha":1179,"x_min":0,"x_max":0,"o":"m 61 494 b 101 708 61 573 74 644 b 210 869 127 771 164 825 b 377 972 257 914 313 948 b 588 1008 441 996 512 1008 b 800 972 664 1008 735 996 b 968 869 865 948 921 914 b 1078 708 1015 825 1052 771 b 1118 494 1105 644 1118 573 b 1078 284 1118 418 1105 347 b 968 120 1052 221 1015 166 b 800 13 921 74 865 39 b 588 -25 735 -12 664 -25 b 377 13 512 -25 441 -12 b 210 120 313 39 257 74 b 101 284 164 166 127 221 b 61 494 74 347 61 418 m 251 494 b 276 349 251 442 259 393 b 345 235 292 305 315 267 b 452 159 375 202 411 177 b 589 132 493 141 539 132 b 726 159 639 132 685 141 b 834 235 768 177 804 202 b 903 349 864 267 887 305 b 928 494 920 393 928 442 b 903 636 928 545 920 593 b 835 750 887 680 864 718 b 728 826 805 782 769 808 b 589 854 686 845 640 854 b 451 826 538 854 492 845 b 344 750 409 808 374 782 b 276 636 315 718 292 680 b 251 494 259 593 251 545 m 556 1061 l 360 1261 l 549 1261 l 686 1061 "},"Ó":{"ha":1179,"x_min":0,"x_max":0,"o":"m 61 494 b 101 708 61 573 74 644 b 210 869 127 771 164 825 b 377 972 257 914 313 948 b 588 1008 441 996 512 1008 b 800 972 664 1008 735 996 b 968 869 865 948 921 914 b 1078 708 1015 825 1052 771 b 1118 494 1105 644 1118 573 b 1078 284 1118 418 1105 347 b 968 120 1052 221 1015 166 b 800 13 921 74 865 39 b 588 -25 735 -12 664 -25 b 377 13 512 -25 441 -12 b 210 120 313 39 257 74 b 101 284 164 166 127 221 b 61 494 74 347 61 418 m 251 494 b 276 349 251 442 259 393 b 345 235 292 305 315 267 b 452 159 375 202 411 177 b 589 132 493 141 539 132 b 726 159 639 132 685 141 b 834 235 768 177 804 202 b 903 349 864 267 887 305 b 928 494 920 393 928 442 b 903 636 928 545 920 593 b 835 750 887 680 864 718 b 728 826 805 782 769 808 b 589 854 686 845 640 854 b 451 826 538 854 492 845 b 344 750 409 808 374 782 b 276 636 315 718 292 680 b 251 494 259 593 251 545 m 828 1261 l 632 1061 l 501 1061 l 639 1261 "},"Ô":{"ha":1179,"x_min":0,"x_max":0,"o":"m 61 494 b 101 708 61 573 74 644 b 210 869 127 771 164 825 b 377 972 257 914 313 948 b 588 1008 441 996 512 1008 b 800 972 664 1008 735 996 b 968 869 865 948 921 914 b 1078 708 1015 825 1052 771 b 1118 494 1105 644 1118 573 b 1078 284 1118 418 1105 347 b 968 120 1052 221 1015 166 b 800 13 921 74 865 39 b 588 -25 735 -12 664 -25 b 377 13 512 -25 441 -12 b 210 120 313 39 257 74 b 101 284 164 166 127 221 b 61 494 74 347 61 418 m 251 494 b 276 349 251 442 259 393 b 345 235 292 305 315 267 b 452 159 375 202 411 177 b 589 132 493 141 539 132 b 726 159 639 132 685 141 b 834 235 768 177 804 202 b 903 349 864 267 887 305 b 928 494 920 393 928 442 b 903 636 928 545 920 593 b 835 750 887 680 864 718 b 728 826 805 782 769 808 b 589 854 686 845 640 854 b 451 826 538 854 492 845 b 344 750 409 808 374 782 b 276 636 315 718 292 680 b 251 494 259 593 251 545 m 594 1186 l 499 1061 l 343 1061 l 503 1261 l 690 1261 l 849 1061 l 690 1061 "},"Õ":{"ha":1179,"x_min":0,"x_max":0,"o":"m 61 494 b 101 708 61 573 74 644 b 210 869 127 771 164 825 b 377 972 257 914 313 948 b 588 1008 441 996 512 1008 b 800 972 664 1008 735 996 b 968 869 865 948 921 914 b 1078 708 1015 825 1052 771 b 1118 494 1105 644 1118 573 b 1078 284 1118 418 1105 347 b 968 120 1052 221 1015 166 b 800 13 921 74 865 39 b 588 -25 735 -12 664 -25 b 377 13 512 -25 441 -12 b 210 120 313 39 257 74 b 101 284 164 166 127 221 b 61 494 74 347 61 418 m 251 494 b 276 349 251 442 259 393 b 345 235 292 305 315 267 b 452 159 375 202 411 177 b 589 132 493 141 539 132 b 726 159 639 132 685 141 b 834 235 768 177 804 202 b 903 349 864 267 887 305 b 928 494 920 393 928 442 b 903 636 928 545 920 593 b 835 750 887 680 864 718 b 728 826 805 782 769 808 b 589 854 686 845 640 854 b 451 826 538 854 492 845 b 344 750 409 808 374 782 b 276 636 315 718 292 680 b 251 494 259 593 251 545 m 339 1067 b 355 1132 343 1089 348 1111 b 383 1188 362 1153 371 1172 b 428 1228 395 1204 410 1218 b 494 1243 447 1238 469 1243 b 551 1236 513 1243 532 1241 b 604 1218 570 1231 588 1225 b 655 1199 623 1211 640 1204 b 694 1192 670 1194 683 1192 b 737 1209 713 1192 727 1197 b 758 1250 747 1221 754 1234 l 850 1250 b 834 1185 846 1228 841 1206 b 806 1128 827 1163 818 1145 b 760 1089 794 1112 778 1099 b 694 1074 742 1079 720 1074 b 636 1082 675 1074 656 1076 b 581 1101 617 1088 598 1094 b 533 1119 564 1109 548 1115 b 494 1126 519 1124 506 1126 b 452 1108 476 1126 462 1120 b 431 1067 442 1096 435 1082 l 339 1067 "},"Ö":{"ha":1179,"x_min":0,"x_max":0,"o":"m 61 494 b 101 708 61 573 74 644 b 210 869 127 771 164 825 b 377 972 257 914 313 948 b 588 1008 441 996 512 1008 b 800 972 664 1008 735 996 b 968 869 865 948 921 914 b 1078 708 1015 825 1052 771 b 1118 494 1105 644 1118 573 b 1078 284 1118 418 1105 347 b 968 120 1052 221 1015 166 b 800 13 921 74 865 39 b 588 -25 735 -12 664 -25 b 377 13 512 -25 441 -12 b 210 120 313 39 257 74 b 101 284 164 166 127 221 b 61 494 74 347 61 418 m 251 494 b 276 349 251 442 259 393 b 345 235 292 305 315 267 b 452 159 375 202 411 177 b 589 132 493 141 539 132 b 726 159 639 132 685 141 b 834 235 768 177 804 202 b 903 349 864 267 887 305 b 928 494 920 393 928 442 b 903 636 928 545 920 593 b 835 750 887 680 864 718 b 728 826 805 782 769 808 b 589 854 686 845 640 854 b 451 826 538 854 492 845 b 344 750 409 808 374 782 b 276 636 315 718 292 680 b 251 494 259 593 251 545 m 357 1172 b 385 1240 357 1198 366 1221 b 456 1269 403 1260 427 1269 b 528 1242 484 1269 508 1260 b 557 1172 547 1223 557 1200 b 528 1103 557 1144 547 1121 b 456 1075 508 1084 484 1075 b 385 1104 427 1075 403 1085 b 357 1172 366 1124 357 1146 m 629 1172 b 657 1240 629 1198 638 1221 b 728 1269 675 1260 699 1269 b 800 1242 756 1269 781 1260 b 829 1172 819 1223 829 1200 b 800 1103 829 1144 819 1121 b 728 1075 781 1084 756 1075 b 657 1104 699 1075 675 1085 b 629 1172 638 1124 629 1146 "},"×":{"ha":925,"x_min":0,"x_max":0,"o":"m 715 772 l 813 675 l 561 424 l 818 165 l 715 63 l 461 314 l 210 63 l 107 164 l 364 417 l 108 675 l 208 774 l 463 519 "},"Ø":{"ha":1179,"x_min":0,"x_max":0,"o":"m 61 494 b 101 708 61 573 74 644 b 210 869 127 771 164 825 b 377 972 257 914 313 948 b 588 1008 441 996 512 1008 b 757 986 648 1008 704 1001 b 900 922 810 971 857 950 l 1018 1051 l 1086 992 l 971 865 b 1080 704 1018 820 1054 766 b 1118 494 1105 642 1118 572 b 1078 285 1118 418 1105 348 b 968 122 1052 222 1015 168 b 800 15 921 77 865 41 b 588 -25 735 -11 664 -24 b 405 2 522 -25 461 -16 b 254 82 349 20 299 47 l 136 -46 l 67 14 l 188 144 b 94 299 147 187 116 238 b 61 494 72 359 61 424 m 936 494 b 917 626 936 542 930 586 b 857 736 904 667 884 704 l 368 204 b 589 128 424 153 497 128 b 729 155 640 128 687 137 b 839 231 772 173 808 198 b 910 347 869 263 893 302 b 936 494 928 391 936 441 m 243 494 b 258 372 243 449 248 408 b 306 274 269 336 284 303 l 790 799 b 703 842 766 817 737 832 b 589 858 669 853 631 858 b 446 831 536 858 488 849 b 337 754 403 812 367 787 b 267 639 307 722 284 683 b 243 494 251 594 243 546 "},"Ù":{"ha":992,"x_min":0,"x_max":0,"o":"m 892 361 b 861 201 892 302 881 248 b 778 79 841 153 813 113 b 653 2 743 46 701 20 b 496 -25 605 -16 552 -25 b 339 2 439 -25 387 -16 b 213 79 291 20 249 46 b 130 201 178 113 150 153 b 100 361 110 248 100 302 l 100 983 l 275 983 l 275 368 b 286 283 275 339 279 311 b 323 207 294 254 306 229 b 391 153 340 185 363 167 b 496 132 419 139 454 132 b 601 153 538 132 572 139 b 669 207 629 167 652 185 b 706 283 686 229 698 254 b 717 368 713 311 717 339 l 717 983 l 892 983 l 892 361 m 476 1061 l 281 1261 l 469 1261 l 607 1061 "},"Ú":{"ha":992,"x_min":0,"x_max":0,"o":"m 892 361 b 861 201 892 302 881 248 b 778 79 841 153 813 113 b 653 2 743 46 701 20 b 496 -25 605 -16 552 -25 b 339 2 439 -25 387 -16 b 213 79 291 20 249 46 b 130 201 178 113 150 153 b 100 361 110 248 100 302 l 100 983 l 275 983 l 275 368 b 286 283 275 339 279 311 b 323 207 294 254 306 229 b 391 153 340 185 363 167 b 496 132 419 139 454 132 b 601 153 538 132 572 139 b 669 207 629 167 652 185 b 706 283 686 229 698 254 b 717 368 713 311 717 339 l 717 983 l 892 983 l 892 361 m 731 1261 l 535 1061 l 404 1061 l 542 1261 "},"Û":{"ha":992,"x_min":0,"x_max":0,"o":"m 892 361 b 861 201 892 302 881 248 b 778 79 841 153 813 113 b 653 2 743 46 701 20 b 496 -25 605 -16 552 -25 b 339 2 439 -25 387 -16 b 213 79 291 20 249 46 b 130 201 178 113 150 153 b 100 361 110 248 100 302 l 100 983 l 275 983 l 275 368 b 286 283 275 339 279 311 b 323 207 294 254 306 229 b 391 153 340 185 363 167 b 496 132 419 139 454 132 b 601 153 538 132 572 139 b 669 207 629 167 652 185 b 706 283 686 229 698 254 b 717 368 713 311 717 339 l 717 983 l 892 983 l 892 361 m 497 1186 l 401 1061 l 246 1061 l 406 1261 l 593 1261 l 751 1061 l 593 1061 "},"Ü":{"ha":992,"x_min":0,"x_max":0,"o":"m 892 361 b 861 201 892 302 881 248 b 778 79 841 153 813 113 b 653 2 743 46 701 20 b 496 -25 605 -16 552 -25 b 339 2 439 -25 387 -16 b 213 79 291 20 249 46 b 130 201 178 113 150 153 b 100 361 110 248 100 302 l 100 983 l 275 983 l 275 368 b 286 283 275 339 279 311 b 323 207 294 254 306 229 b 391 153 340 185 363 167 b 496 132 419 139 454 132 b 601 153 538 132 572 139 b 669 207 629 167 652 185 b 706 283 686 229 698 254 b 717 368 713 311 717 339 l 717 983 l 892 983 l 892 361 m 263 1172 b 290 1240 263 1198 272 1221 b 361 1269 309 1260 332 1269 b 433 1242 390 1269 414 1260 b 463 1172 453 1223 463 1200 b 433 1103 463 1144 453 1121 b 361 1075 414 1084 390 1075 b 290 1104 332 1075 309 1085 b 263 1172 272 1124 263 1146 m 535 1172 b 563 1240 535 1198 544 1221 b 633 1269 581 1260 605 1269 b 706 1242 662 1269 686 1260 b 735 1172 725 1223 735 1200 b 706 1103 735 1144 725 1121 b 633 1075 686 1084 662 1075 b 563 1104 605 1075 581 1085 b 535 1172 544 1124 535 1146 "},"Ý":{"ha":864,"x_min":0,"x_max":0,"o":"m -24 983 l 190 983 l 438 569 l 688 983 l 890 983 l 521 426 l 521 0 l 346 0 l 346 426 m 696 1261 l 500 1061 l 369 1061 l 507 1261 "},"Þ":{"ha":847,"x_min":0,"x_max":0,"o":"m 283 983 l 283 797 l 429 797 b 582 782 486 797 537 792 b 699 732 627 772 666 755 b 774 643 731 709 756 679 b 800 513 791 607 800 563 b 769 375 800 458 790 412 b 687 285 749 338 722 308 b 565 236 652 263 612 246 b 418 221 519 226 470 221 l 283 221 l 283 0 l 108 0 l 108 983 m 406 368 b 488 374 434 368 462 370 b 557 397 513 378 537 386 b 606 440 577 407 594 422 b 624 513 618 459 624 483 b 606 583 624 541 618 565 b 558 625 594 601 578 615 b 490 645 538 635 515 642 b 411 650 464 648 438 650 l 283 650 l 283 368 l 406 368 "},"ß":{"ha":871,"x_min":0,"x_max":0,"o":"m 100 704 b 119 842 100 752 106 798 b 178 957 131 885 151 924 b 283 1037 206 990 241 1017 b 439 1067 326 1057 378 1067 b 559 1046 482 1067 522 1060 b 653 988 596 1032 627 1013 b 715 902 680 964 700 935 b 736 796 729 869 736 834 b 725 726 736 772 732 749 b 694 665 718 704 707 684 b 647 617 680 647 665 631 b 588 589 628 604 609 594 l 588 586 b 683 553 623 581 654 570 b 754 492 711 537 735 517 b 799 409 774 468 789 440 b 815 308 810 378 815 344 b 792 178 815 261 807 218 b 723 75 776 138 753 104 b 615 8 693 46 657 24 b 472 -17 572 -9 525 -17 b 413 -13 453 -17 433 -16 b 351 -1 393 -11 373 -7 l 351 139 b 399 128 364 134 380 131 b 449 125 418 126 435 125 b 590 176 507 125 554 142 b 644 317 626 211 644 257 b 627 401 644 349 639 377 b 581 460 616 425 600 445 b 513 494 561 476 538 487 b 431 506 487 502 459 506 l 413 506 l 413 647 l 433 647 b 533 683 475 647 508 659 b 571 781 558 707 571 740 b 563 832 571 798 568 815 b 538 876 557 849 549 863 b 494 908 526 889 512 900 b 432 921 477 917 456 921 b 350 900 399 921 371 914 b 299 846 329 886 312 868 b 274 773 287 824 278 799 b 267 696 269 747 267 721 l 267 0 l 100 0 l 100 704 "},"à":{"ha":764,"x_min":0,"x_max":0,"o":"m 510 85 b 429 12 493 55 466 31 b 303 -17 392 -7 350 -17 b 219 -6 276 -17 248 -13 b 138 28 190 1 163 12 b 77 92 114 45 93 66 b 53 190 61 119 53 151 b 95 310 53 240 67 280 b 204 378 123 339 160 362 b 352 409 249 394 298 404 b 511 417 406 414 459 417 l 511 433 b 466 526 511 475 496 506 b 358 556 436 546 400 556 b 257 533 323 556 289 548 b 176 479 225 519 198 500 l 90 581 b 222 660 128 616 172 642 b 372 686 271 677 321 686 b 519 661 431 686 480 678 b 610 596 557 644 588 623 b 656 506 632 569 647 539 b 669 406 665 472 669 439 l 669 0 l 514 0 l 514 85 m 474 304 b 389 301 447 304 419 303 b 307 285 359 298 332 293 b 244 252 282 278 261 266 b 219 193 228 238 219 218 b 230 153 219 177 223 164 b 257 128 237 143 246 134 b 294 114 268 121 281 117 b 336 110 308 111 322 110 b 467 156 394 110 437 125 b 511 281 496 186 511 228 l 511 304 m 335 783 l 139 983 l 328 983 l 465 783 "},"á":{"ha":764,"x_min":0,"x_max":0,"o":"m 510 85 b 429 12 493 55 466 31 b 303 -17 392 -7 350 -17 b 219 -6 276 -17 248 -13 b 138 28 190 1 163 12 b 77 92 114 45 93 66 b 53 190 61 119 53 151 b 95 310 53 240 67 280 b 204 378 123 339 160 362 b 352 409 249 394 298 404 b 511 417 406 414 459 417 l 511 433 b 466 526 511 475 496 506 b 358 556 436 546 400 556 b 257 533 323 556 289 548 b 176 479 225 519 198 500 l 90 581 b 222 660 128 616 172 642 b 372 686 271 677 321 686 b 519 661 431 686 480 678 b 610 596 557 644 588 623 b 656 506 632 569 647 539 b 669 406 665 472 669 439 l 669 0 l 514 0 l 514 85 m 474 304 b 389 301 447 304 419 303 b 307 285 359 298 332 293 b 244 252 282 278 261 266 b 219 193 228 238 219 218 b 230 153 219 177 223 164 b 257 128 237 143 246 134 b 294 114 268 121 281 117 b 336 110 308 111 322 110 b 467 156 394 110 437 125 b 511 281 496 186 511 228 l 511 304 m 597 983 l 401 783 l 271 783 l 408 983 "},"â":{"ha":764,"x_min":0,"x_max":0,"o":"m 510 85 b 429 12 493 55 466 31 b 303 -17 392 -7 350 -17 b 219 -6 276 -17 248 -13 b 138 28 190 1 163 12 b 77 92 114 45 93 66 b 53 190 61 119 53 151 b 95 310 53 240 67 280 b 204 378 123 339 160 362 b 352 409 249 394 298 404 b 511 417 406 414 459 417 l 511 433 b 466 526 511 475 496 506 b 358 556 436 546 400 556 b 257 533 323 556 289 548 b 176 479 225 519 198 500 l 90 581 b 222 660 128 616 172 642 b 372 686 271 677 321 686 b 519 661 431 686 480 678 b 610 596 557 644 588 623 b 656 506 632 569 647 539 b 669 406 665 472 669 439 l 669 0 l 514 0 l 514 85 m 474 304 b 389 301 447 304 419 303 b 307 285 359 298 332 293 b 244 252 282 278 261 266 b 219 193 228 238 219 218 b 230 153 219 177 223 164 b 257 128 237 143 246 134 b 294 114 268 121 281 117 b 336 110 308 111 322 110 b 467 156 394 110 437 125 b 511 281 496 186 511 228 l 511 304 m 379 908 l 283 783 l 128 783 l 288 983 l 475 983 l 633 783 l 475 783 "},"ã":{"ha":764,"x_min":0,"x_max":0,"o":"m 510 85 b 429 12 493 55 466 31 b 303 -17 392 -7 350 -17 b 219 -6 276 -17 248 -13 b 138 28 190 1 163 12 b 77 92 114 45 93 66 b 53 190 61 119 53 151 b 95 310 53 240 67 280 b 204 378 123 339 160 362 b 352 409 249 394 298 404 b 511 417 406 414 459 417 l 511 433 b 466 526 511 475 496 506 b 358 556 436 546 400 556 b 257 533 323 556 289 548 b 176 479 225 519 198 500 l 90 581 b 222 660 128 616 172 642 b 372 686 271 677 321 686 b 519 661 431 686 480 678 b 610 596 557 644 588 623 b 656 506 632 569 647 539 b 669 406 665 472 669 439 l 669 0 l 514 0 l 514 85 m 474 304 b 389 301 447 304 419 303 b 307 285 359 298 332 293 b 244 252 282 278 261 266 b 219 193 228 238 219 218 b 230 153 219 177 223 164 b 257 128 237 143 246 134 b 294 114 268 121 281 117 b 336 110 308 111 322 110 b 467 156 394 110 437 125 b 511 281 496 186 511 228 l 511 304 m 121 789 b 137 854 125 811 130 833 b 165 910 144 875 153 894 b 210 950 177 927 192 940 b 276 965 228 960 250 965 b 333 958 295 965 314 963 b 386 940 352 954 369 948 b 437 922 405 933 422 927 b 476 914 452 916 465 914 b 519 931 495 914 509 920 b 540 972 528 943 536 956 l 632 972 b 616 907 628 950 623 928 b 588 851 609 886 600 867 b 542 811 575 834 560 821 b 476 796 524 801 502 796 b 418 804 457 796 438 799 b 363 824 399 810 380 816 b 315 842 346 831 330 837 b 276 849 300 846 288 849 b 234 831 258 849 244 843 b 213 789 224 819 217 805 l 121 789 "},"ä":{"ha":764,"x_min":0,"x_max":0,"o":"m 510 85 b 429 12 493 55 466 31 b 303 -17 392 -7 350 -17 b 219 -6 276 -17 248 -13 b 138 28 190 1 163 12 b 77 92 114 45 93 66 b 53 190 61 119 53 151 b 95 310 53 240 67 280 b 204 378 123 339 160 362 b 352 409 249 394 298 404 b 511 417 406 414 459 417 l 511 433 b 466 526 511 475 496 506 b 358 556 436 546 400 556 b 257 533 323 556 289 548 b 176 479 225 519 198 500 l 90 581 b 222 660 128 616 172 642 b 372 686 271 677 321 686 b 519 661 431 686 480 678 b 610 596 557 644 588 623 b 656 506 632 569 647 539 b 669 406 665 472 669 439 l 669 0 l 514 0 l 514 85 m 474 304 b 389 301 447 304 419 303 b 307 285 359 298 332 293 b 244 252 282 278 261 266 b 219 193 228 238 219 218 b 230 153 219 177 223 164 b 257 128 237 143 246 134 b 294 114 268 121 281 117 b 336 110 308 111 322 110 b 467 156 394 110 437 125 b 511 281 496 186 511 228 l 511 304 m 143 894 b 171 963 143 920 152 943 b 242 992 189 982 213 992 b 314 964 270 992 294 982 b 343 894 333 945 343 922 b 314 825 343 867 333 844 b 242 797 294 806 270 797 b 171 826 213 797 189 807 b 143 894 152 846 143 869 m 415 894 b 443 963 415 920 425 943 b 514 992 462 982 485 992 b 586 964 543 992 567 982 b 615 894 606 945 615 922 b 586 825 615 867 606 844 b 514 797 567 806 543 797 b 443 826 485 797 462 807 b 415 894 425 846 415 869 "},"å":{"ha":764,"x_min":0,"x_max":0,"o":"m 510 85 b 429 12 493 55 466 31 b 303 -17 392 -7 350 -17 b 219 -6 276 -17 248 -13 b 138 28 190 1 163 12 b 77 92 114 45 93 66 b 53 190 61 119 53 151 b 95 310 53 240 67 280 b 204 378 123 339 160 362 b 352 409 249 394 298 404 b 511 417 406 414 459 417 l 511 433 b 466 526 511 475 496 506 b 358 556 436 546 400 556 b 257 533 323 556 289 548 b 176 479 225 519 198 500 l 90 581 b 222 660 128 616 172 642 b 372 686 271 677 321 686 b 519 661 431 686 480 678 b 610 596 557 644 588 623 b 656 506 632 569 647 539 b 669 406 665 472 669 439 l 669 0 l 514 0 l 514 85 m 474 304 b 389 301 447 304 419 303 b 307 285 359 298 332 293 b 244 252 282 278 261 266 b 219 193 228 238 219 218 b 230 153 219 177 223 164 b 257 128 237 143 246 134 b 294 114 268 121 281 117 b 336 110 308 111 322 110 b 467 156 394 110 437 125 b 511 281 496 186 511 228 l 511 304 m 519 910 b 478 808 519 868 506 834 b 374 768 450 781 415 768 b 269 808 332 768 297 781 b 228 908 242 834 228 868 b 239 965 228 929 231 948 b 269 1010 246 983 256 998 b 315 1040 282 1023 298 1033 b 374 1051 333 1048 352 1051 b 478 1012 415 1051 450 1038 b 519 910 506 985 519 951 m 456 910 b 432 967 456 933 448 952 b 374 989 416 981 397 989 b 315 966 350 989 330 981 b 292 908 299 951 292 931 b 315 853 292 886 300 868 b 374 831 331 838 350 831 b 432 853 397 831 416 838 b 456 910 448 868 456 887 "},"æ":{"ha":1232,"x_min":0,"x_max":0,"o":"m 849 686 b 977 663 895 686 938 678 b 1079 595 1016 648 1050 625 b 1147 483 1108 565 1130 528 b 1171 325 1163 438 1171 385 l 1171 303 b 1169 281 1171 295 1170 288 l 663 281 b 683 214 665 256 672 234 b 726 162 694 194 709 176 b 784 128 743 147 762 136 b 853 117 806 121 829 117 b 958 140 894 117 930 125 b 1029 204 987 156 1011 177 l 1139 114 b 853 -19 1073 25 978 -19 b 696 15 793 -19 740 -8 b 589 114 651 38 616 71 b 494 22 569 78 538 47 b 310 -17 450 -4 388 -17 b 222 -6 282 -17 253 -13 b 139 31 192 2 164 14 b 77 95 114 47 93 69 b 53 190 61 122 53 153 b 90 301 53 237 65 274 b 190 365 114 329 147 350 b 336 393 232 379 281 388 b 511 400 392 398 450 400 l 511 414 b 470 522 511 464 497 500 b 360 556 443 544 406 556 b 259 533 326 556 293 548 b 176 479 225 519 198 500 l 92 581 b 222 660 129 616 172 642 b 372 686 271 677 321 686 b 515 651 431 686 478 675 b 599 572 552 628 580 602 b 698 654 623 606 656 633 b 849 686 740 675 790 686 m 474 281 b 288 265 395 281 333 275 b 219 193 242 254 219 230 b 230 153 219 177 223 164 b 257 128 237 143 246 134 b 294 114 268 121 281 117 b 336 110 308 111 322 110 b 467 149 394 110 437 123 b 511 258 496 175 511 211 l 511 281 m 1004 400 b 995 461 1004 421 1001 442 b 967 513 989 481 980 498 b 917 548 954 527 937 539 b 847 561 897 557 874 561 b 720 516 797 561 755 546 b 663 400 685 486 666 447 l 1004 400 "},"ç":{"ha":678,"x_min":0,"x_max":0,"o":"m 556 482 b 497 528 543 500 523 516 b 418 547 471 541 445 547 b 338 528 388 547 361 541 b 280 479 314 516 295 500 b 246 410 265 459 253 436 b 235 333 238 385 235 359 b 247 256 235 307 239 282 b 282 188 254 231 266 208 b 341 138 298 167 317 151 b 424 119 365 126 392 119 b 501 135 450 119 475 125 b 564 179 527 145 548 160 l 668 74 b 568 7 641 45 608 23 b 439 -19 528 -9 485 -18 l 390 -89 b 405 -87 396 -88 401 -87 l 417 -87 b 469 -92 434 -87 452 -89 b 515 -110 486 -96 501 -101 b 549 -144 529 -118 541 -130 b 563 -203 558 -159 563 -179 b 544 -266 563 -228 556 -249 b 499 -306 532 -283 517 -297 b 438 -327 481 -316 461 -323 b 374 -333 416 -331 394 -333 b 291 -323 346 -333 318 -330 b 221 -297 264 -316 240 -307 l 253 -231 b 367 -258 288 -249 326 -258 b 392 -256 374 -258 382 -258 b 417 -248 401 -255 409 -252 b 438 -231 425 -244 432 -238 b 446 -201 443 -223 446 -213 b 438 -176 446 -191 443 -183 b 419 -161 433 -170 427 -165 b 396 -153 412 -157 404 -155 b 372 -151 388 -152 380 -151 b 346 -153 365 -151 356 -152 b 318 -160 336 -155 326 -157 l 286 -125 l 361 -15 b 242 21 319 -10 279 2 b 147 93 206 39 174 63 b 84 198 120 123 99 158 b 61 333 69 238 61 283 b 90 479 61 387 71 436 b 167 590 109 523 134 560 b 280 661 199 621 237 644 b 418 686 323 678 369 686 b 560 658 467 686 515 677 b 669 582 606 640 643 614 l 556 482 "},"è":{"ha":797,"x_min":0,"x_max":0,"o":"m 569 400 b 560 461 569 421 566 442 b 532 513 554 481 545 498 b 483 548 519 527 503 539 b 413 561 463 557 439 561 b 285 516 363 561 320 546 b 228 400 251 486 231 447 l 569 400 m 736 303 b 735 281 736 295 736 288 l 228 281 b 247 215 230 256 236 234 b 289 163 257 195 271 178 b 349 129 306 149 326 138 b 418 117 371 121 394 117 b 524 140 460 117 495 124 b 594 203 552 155 576 176 l 706 114 b 419 -19 640 25 544 -19 b 276 5 368 -19 320 -11 b 163 74 233 21 195 44 b 88 183 131 103 106 140 b 61 329 70 226 61 275 b 88 476 61 383 70 432 b 163 588 106 520 131 557 b 274 660 194 619 231 643 b 414 686 317 678 364 686 b 542 663 460 686 503 678 b 644 595 582 648 616 625 b 712 483 673 565 696 528 b 736 325 728 438 736 385 m 368 783 l 172 983 l 361 983 l 499 783 "},"é":{"ha":797,"x_min":0,"x_max":0,"o":"m 569 400 b 560 461 569 421 566 442 b 532 513 554 481 545 498 b 483 548 519 527 503 539 b 413 561 463 557 439 561 b 285 516 363 561 320 546 b 228 400 251 486 231 447 l 569 400 m 736 303 b 735 281 736 295 736 288 l 228 281 b 247 215 230 256 236 234 b 289 163 257 195 271 178 b 349 129 306 149 326 138 b 418 117 371 121 394 117 b 524 140 460 117 495 124 b 594 203 552 155 576 176 l 706 114 b 419 -19 640 25 544 -19 b 276 5 368 -19 320 -11 b 163 74 233 21 195 44 b 88 183 131 103 106 140 b 61 329 70 226 61 275 b 88 476 61 383 70 432 b 163 588 106 520 131 557 b 274 660 194 619 231 643 b 414 686 317 678 364 686 b 542 663 460 686 503 678 b 644 595 582 648 616 625 b 712 483 673 565 696 528 b 736 325 728 438 736 385 m 647 983 l 451 783 l 321 783 l 458 983 "},"ê":{"ha":797,"x_min":0,"x_max":0,"o":"m 569 400 b 560 461 569 421 566 442 b 532 513 554 481 545 498 b 483 548 519 527 503 539 b 413 561 463 557 439 561 b 285 516 363 561 320 546 b 228 400 251 486 231 447 l 569 400 m 736 303 b 735 281 736 295 736 288 l 228 281 b 247 215 230 256 236 234 b 289 163 257 195 271 178 b 349 129 306 149 326 138 b 418 117 371 121 394 117 b 524 140 460 117 495 124 b 594 203 552 155 576 176 l 706 114 b 419 -19 640 25 544 -19 b 276 5 368 -19 320 -11 b 163 74 233 21 195 44 b 88 183 131 103 106 140 b 61 329 70 226 61 275 b 88 476 61 383 70 432 b 163 588 106 520 131 557 b 274 660 194 619 231 643 b 414 686 317 678 364 686 b 542 663 460 686 503 678 b 644 595 582 648 616 625 b 712 483 673 565 696 528 b 736 325 728 438 736 385 m 418 908 l 322 783 l 167 783 l 326 983 l 514 983 l 672 783 l 514 783 "},"ë":{"ha":797,"x_min":0,"x_max":0,"o":"m 569 400 b 560 461 569 421 566 442 b 532 513 554 481 545 498 b 483 548 519 527 503 539 b 413 561 463 557 439 561 b 285 516 363 561 320 546 b 228 400 251 486 231 447 l 569 400 m 736 303 b 735 281 736 295 736 288 l 228 281 b 247 215 230 256 236 234 b 289 163 257 195 271 178 b 349 129 306 149 326 138 b 418 117 371 121 394 117 b 524 140 460 117 495 124 b 594 203 552 155 576 176 l 706 114 b 419 -19 640 25 544 -19 b 276 5 368 -19 320 -11 b 163 74 233 21 195 44 b 88 183 131 103 106 140 b 61 329 70 226 61 275 b 88 476 61 383 70 432 b 163 588 106 520 131 557 b 274 660 194 619 231 643 b 414 686 317 678 364 686 b 542 663 460 686 503 678 b 644 595 582 648 616 625 b 712 483 673 565 696 528 b 736 325 728 438 736 385 m 181 894 b 208 963 181 920 190 943 b 279 992 227 982 250 992 b 351 964 308 992 332 982 b 381 894 371 945 381 922 b 351 825 381 867 371 844 b 279 797 332 806 308 797 b 208 826 250 797 227 807 b 181 894 190 846 181 869 m 453 894 b 481 963 453 920 462 943 b 551 992 499 982 523 992 b 624 964 580 992 604 982 b 653 894 643 945 653 922 b 624 825 653 867 643 844 b 551 797 604 806 580 797 b 481 826 523 797 499 807 b 453 894 462 846 453 869 "},"ì":{"ha":372,"x_min":0,"x_max":0,"o":"m 269 667 l 269 0 l 103 0 l 103 667 m 138 783 l -58 983 l 131 983 l 268 783 "},"í":{"ha":372,"x_min":0,"x_max":0,"o":"m 269 667 l 269 0 l 103 0 l 103 667 m 431 983 l 235 783 l 104 783 l 242 983 "},"î":{"ha":372,"x_min":0,"x_max":0,"o":"m 269 667 l 269 0 l 103 0 l 103 667 m 186 908 l 90 783 l -65 783 l 94 983 l 282 983 l 440 783 l 282 783 "},"ï":{"ha":372,"x_min":0,"x_max":0,"o":"m 269 667 l 269 0 l 103 0 l 103 667 m -49 894 b -21 963 -49 920 -39 943 b 50 992 -2 982 21 992 b 122 964 79 992 103 982 b 151 894 142 945 151 922 b 122 825 151 867 142 844 b 50 797 103 806 79 797 b -21 826 21 797 -2 807 b -49 894 -39 846 -49 869 m 224 894 b 251 963 224 920 233 943 b 322 992 270 982 294 992 b 394 964 351 992 375 982 b 424 894 414 945 424 922 b 394 825 424 867 414 844 b 322 797 375 806 351 797 b 251 826 294 797 270 807 b 224 894 233 846 224 869 "},"ð":{"ha":847,"x_min":0,"x_max":0,"o":"m 540 914 b 635 798 574 878 605 839 b 714 669 666 757 692 714 b 767 528 736 624 754 577 b 788 378 781 480 788 430 b 764 220 788 321 780 269 b 694 94 748 172 725 130 b 581 11 664 59 626 31 b 424 -19 535 -9 483 -19 b 280 6 372 -19 324 -11 b 165 78 236 23 198 47 b 89 190 133 109 107 147 b 61 333 70 233 61 281 b 89 477 61 386 70 434 b 165 588 107 520 133 557 b 276 660 197 619 234 643 b 413 686 319 678 364 686 b 498 673 443 686 472 682 b 568 631 524 664 548 650 l 571 633 b 492 749 547 672 520 711 b 394 850 463 787 431 820 l 244 781 l 161 860 l 314 929 b 265 974 301 943 284 958 b 206 1019 245 989 225 1005 l 336 1096 b 408 1038 361 1076 385 1057 b 457 993 430 1018 447 1003 l 614 1067 l 703 989 m 424 119 b 510 138 457 119 486 126 b 572 188 535 151 555 167 b 608 256 588 208 600 231 b 619 333 616 282 619 307 b 608 410 619 359 616 385 b 572 479 600 436 588 459 b 510 528 555 500 535 516 b 424 547 486 541 457 547 b 337 528 390 547 361 541 b 276 479 312 516 292 500 b 240 410 259 459 247 436 b 228 333 232 385 228 359 b 240 256 228 307 232 282 b 276 188 247 231 259 208 b 337 138 292 167 312 151 b 424 119 361 126 390 119 "},"ñ":{"ha":808,"x_min":0,"x_max":0,"o":"m 258 667 l 258 560 l 261 560 b 338 648 276 593 302 622 b 468 686 375 673 418 686 b 580 663 512 686 549 678 b 656 603 611 648 636 628 b 700 517 676 578 691 549 b 714 417 709 484 714 451 l 714 0 l 547 0 l 547 369 b 543 431 547 389 546 409 b 525 488 540 452 534 471 b 487 531 516 505 503 519 b 422 547 471 542 449 547 b 353 531 395 547 372 542 b 305 490 333 521 317 507 b 276 433 292 474 283 454 b 267 367 270 411 267 389 l 267 0 l 100 0 l 100 667 m 151 789 b 167 854 155 811 160 833 b 196 910 174 875 184 894 b 241 950 208 927 223 940 b 307 965 259 960 281 965 b 363 958 325 965 344 963 b 417 940 382 954 400 948 b 467 922 435 933 452 927 b 507 914 483 916 496 914 b 549 931 525 914 540 920 b 571 972 559 943 566 956 l 663 972 b 647 907 659 950 653 928 b 618 851 640 886 630 867 b 573 811 606 834 591 821 b 507 796 555 801 533 796 b 449 804 488 796 468 799 b 393 824 429 810 411 816 b 346 842 376 831 361 837 b 307 849 331 846 318 849 b 265 831 288 849 274 843 b 243 789 255 819 248 805 l 151 789 "},"ò":{"ha":847,"x_min":0,"x_max":0,"o":"m 61 336 b 90 480 61 389 71 437 b 167 590 109 523 134 560 b 282 661 199 621 238 644 b 424 686 326 678 374 686 b 565 661 474 686 521 678 b 681 590 610 644 648 621 b 758 480 713 560 739 523 b 786 336 777 437 786 389 b 758 192 786 283 777 235 b 681 80 739 148 713 111 b 565 7 648 49 610 25 b 424 -19 521 -11 474 -19 b 282 7 374 -19 326 -11 b 167 80 238 25 199 49 b 90 192 134 111 109 148 b 61 336 71 235 61 283 m 231 336 b 242 258 231 310 234 284 b 278 189 250 232 262 209 b 338 139 294 169 313 152 b 424 119 362 126 390 119 b 510 139 457 119 486 126 b 569 189 534 152 554 169 b 605 258 585 209 597 232 b 617 336 613 284 617 310 b 605 413 617 362 613 388 b 569 482 597 439 585 462 b 510 531 554 502 534 519 b 424 550 486 544 457 550 b 338 531 390 550 362 544 b 278 482 313 519 294 502 b 242 413 262 462 250 439 b 231 336 234 388 231 362 m 396 783 l 200 983 l 389 983 l 526 783 "},"ó":{"ha":847,"x_min":0,"x_max":0,"o":"m 61 336 b 90 480 61 389 71 437 b 167 590 109 523 134 560 b 282 661 199 621 238 644 b 424 686 326 678 374 686 b 565 661 474 686 521 678 b 681 590 610 644 648 621 b 758 480 713 560 739 523 b 786 336 777 437 786 389 b 758 192 786 283 777 235 b 681 80 739 148 713 111 b 565 7 648 49 610 25 b 424 -19 521 -11 474 -19 b 282 7 374 -19 326 -11 b 167 80 238 25 199 49 b 90 192 134 111 109 148 b 61 336 71 235 61 283 m 231 336 b 242 258 231 310 234 284 b 278 189 250 232 262 209 b 338 139 294 169 313 152 b 424 119 362 126 390 119 b 510 139 457 119 486 126 b 569 189 534 152 554 169 b 605 258 585 209 597 232 b 617 336 613 284 617 310 b 605 413 617 362 613 388 b 569 482 597 439 585 462 b 510 531 554 502 534 519 b 424 550 486 544 457 550 b 338 531 390 550 362 544 b 278 482 313 519 294 502 b 242 413 262 462 250 439 b 231 336 234 388 231 362 m 650 983 l 454 783 l 324 783 l 461 983 "},"ô":{"ha":847,"x_min":0,"x_max":0,"o":"m 61 336 b 90 480 61 389 71 437 b 167 590 109 523 134 560 b 282 661 199 621 238 644 b 424 686 326 678 374 686 b 565 661 474 686 521 678 b 681 590 610 644 648 621 b 758 480 713 560 739 523 b 786 336 777 437 786 389 b 758 192 786 283 777 235 b 681 80 739 148 713 111 b 565 7 648 49 610 25 b 424 -19 521 -11 474 -19 b 282 7 374 -19 326 -11 b 167 80 238 25 199 49 b 90 192 134 111 109 148 b 61 336 71 235 61 283 m 231 336 b 242 258 231 310 234 284 b 278 189 250 232 262 209 b 338 139 294 169 313 152 b 424 119 362 126 390 119 b 510 139 457 119 486 126 b 569 189 534 152 554 169 b 605 258 585 209 597 232 b 617 336 613 284 617 310 b 605 413 617 362 613 388 b 569 482 597 439 585 462 b 510 531 554 502 534 519 b 424 550 486 544 457 550 b 338 531 390 550 362 544 b 278 482 313 519 294 502 b 242 413 262 462 250 439 b 231 336 234 388 231 362 m 425 908 l 329 783 l 174 783 l 333 983 l 521 983 l 679 783 l 521 783 "},"õ":{"ha":847,"x_min":0,"x_max":0,"o":"m 61 336 b 90 480 61 389 71 437 b 167 590 109 523 134 560 b 282 661 199 621 238 644 b 424 686 326 678 374 686 b 565 661 474 686 521 678 b 681 590 610 644 648 621 b 758 480 713 560 739 523 b 786 336 777 437 786 389 b 758 192 786 283 777 235 b 681 80 739 148 713 111 b 565 7 648 49 610 25 b 424 -19 521 -11 474 -19 b 282 7 374 -19 326 -11 b 167 80 238 25 199 49 b 90 192 134 111 109 148 b 61 336 71 235 61 283 m 231 336 b 242 258 231 310 234 284 b 278 189 250 232 262 209 b 338 139 294 169 313 152 b 424 119 362 126 390 119 b 510 139 457 119 486 126 b 569 189 534 152 554 169 b 605 258 585 209 597 232 b 617 336 613 284 617 310 b 605 413 617 362 613 388 b 569 482 597 439 585 462 b 510 531 554 502 534 519 b 424 550 486 544 457 550 b 338 531 390 550 362 544 b 278 482 313 519 294 502 b 242 413 262 462 250 439 b 231 336 234 388 231 362 m 171 789 b 187 854 175 811 180 833 b 215 910 194 875 203 894 b 260 950 227 927 242 940 b 326 965 278 960 300 965 b 383 958 345 965 364 963 b 436 940 402 954 419 948 b 487 922 455 933 472 927 b 526 914 502 916 515 914 b 569 931 545 914 559 920 b 590 972 578 943 586 956 l 682 972 b 666 907 678 950 673 928 b 638 851 659 886 650 867 b 592 811 625 834 610 821 b 526 796 574 801 552 796 b 468 804 507 796 488 799 b 413 824 449 810 430 816 b 365 842 396 831 380 837 b 326 849 350 846 338 849 b 284 831 308 849 294 843 b 263 789 274 819 267 805 l 171 789 "},"ö":{"ha":847,"x_min":0,"x_max":0,"o":"m 61 336 b 90 480 61 389 71 437 b 167 590 109 523 134 560 b 282 661 199 621 238 644 b 424 686 326 678 374 686 b 565 661 474 686 521 678 b 681 590 610 644 648 621 b 758 480 713 560 739 523 b 786 336 777 437 786 389 b 758 192 786 283 777 235 b 681 80 739 148 713 111 b 565 7 648 49 610 25 b 424 -19 521 -11 474 -19 b 282 7 374 -19 326 -11 b 167 80 238 25 199 49 b 90 192 134 111 109 148 b 61 336 71 235 61 283 m 231 336 b 242 258 231 310 234 284 b 278 189 250 232 262 209 b 338 139 294 169 313 152 b 424 119 362 126 390 119 b 510 139 457 119 486 126 b 569 189 534 152 554 169 b 605 258 585 209 597 232 b 617 336 613 284 617 310 b 605 413 617 362 613 388 b 569 482 597 439 585 462 b 510 531 554 502 534 519 b 424 550 486 544 457 550 b 338 531 390 550 362 544 b 278 482 313 519 294 502 b 242 413 262 462 250 439 b 231 336 234 388 231 362 m 190 894 b 218 963 190 920 200 943 b 289 992 237 982 260 992 b 361 964 318 992 342 982 b 390 894 381 945 390 922 b 361 825 390 867 381 844 b 289 797 342 806 318 797 b 218 826 260 797 237 807 b 190 894 200 846 190 869 m 463 894 b 490 963 463 920 472 943 b 561 992 509 982 532 992 b 633 964 590 992 614 982 b 663 894 653 945 663 922 b 633 825 663 867 653 844 b 561 797 614 806 590 797 b 490 826 532 797 509 807 b 463 894 472 846 463 869 "},"÷":{"ha":925,"x_min":0,"x_max":0,"o":"m 358 671 b 389 744 358 700 369 724 b 463 775 409 765 434 775 b 536 744 491 775 516 765 b 567 671 556 724 567 700 b 536 597 567 642 556 618 b 463 567 516 577 491 567 b 389 597 434 567 409 577 b 358 671 369 618 358 642 m 358 171 b 389 244 358 200 369 224 b 463 275 409 265 434 275 b 536 244 491 275 516 265 b 567 171 556 224 567 200 b 536 97 567 142 556 118 b 463 67 516 77 491 67 b 389 97 434 67 409 77 b 358 171 369 118 358 142 m 111 496 l 814 496 l 814 347 l 111 347 "},"ø":{"ha":847,"x_min":0,"x_max":0,"o":"m 543 513 b 490 544 528 525 510 536 b 424 556 469 552 447 556 b 335 535 389 556 360 549 b 273 483 310 522 289 504 b 237 410 257 461 245 437 b 225 332 229 384 225 358 b 233 269 225 312 228 291 b 256 217 238 248 245 231 l 543 513 m 303 158 b 358 126 319 144 337 133 b 424 115 378 119 400 115 b 514 135 459 115 489 122 b 576 187 539 149 559 166 b 611 258 592 208 604 231 b 622 336 619 284 622 310 b 615 399 622 357 620 378 b 593 453 611 419 603 437 l 303 158 m 703 563 b 765 459 730 532 750 497 b 786 333 779 421 786 379 b 758 190 786 281 777 233 b 681 78 739 147 713 109 b 565 6 648 47 610 23 b 424 -19 521 -11 474 -19 b 203 51 337 -19 263 4 l 106 -47 l 50 10 l 143 104 b 83 206 117 134 97 168 b 61 333 68 245 61 287 b 90 477 61 386 71 434 b 167 588 109 520 134 557 b 282 660 199 619 238 643 b 424 686 326 678 374 686 b 544 668 466 686 506 680 b 643 617 581 656 614 639 l 740 717 l 799 661 "},"ù":{"ha":808,"x_min":0,"x_max":0,"o":"m 550 0 l 550 107 l 547 107 b 470 19 532 74 507 44 b 340 -19 434 -7 390 -19 b 228 3 297 -19 259 -12 b 152 64 197 19 172 39 b 108 150 132 89 118 118 b 94 250 99 182 94 216 l 94 667 l 261 667 l 261 297 b 265 236 261 278 263 257 b 283 178 268 215 274 196 b 322 136 293 161 305 147 b 386 119 338 125 359 119 b 455 135 412 119 435 125 b 503 176 475 146 491 160 b 532 234 516 193 525 212 b 542 300 538 256 542 278 l 542 667 l 708 667 l 708 0 m 374 783 l 178 983 l 367 983 l 504 783 "},"ú":{"ha":808,"x_min":0,"x_max":0,"o":"m 550 0 l 550 107 l 547 107 b 470 19 532 74 507 44 b 340 -19 434 -7 390 -19 b 228 3 297 -19 259 -12 b 152 64 197 19 172 39 b 108 150 132 89 118 118 b 94 250 99 182 94 216 l 94 667 l 261 667 l 261 297 b 265 236 261 278 263 257 b 283 178 268 215 274 196 b 322 136 293 161 305 147 b 386 119 338 125 359 119 b 455 135 412 119 435 125 b 503 176 475 146 491 160 b 532 234 516 193 525 212 b 542 300 538 256 542 278 l 542 667 l 708 667 l 708 0 m 639 983 l 443 783 l 313 783 l 450 983 "},"û":{"ha":808,"x_min":0,"x_max":0,"o":"m 550 0 l 550 107 l 547 107 b 470 19 532 74 507 44 b 340 -19 434 -7 390 -19 b 228 3 297 -19 259 -12 b 152 64 197 19 172 39 b 108 150 132 89 118 118 b 94 250 99 182 94 216 l 94 667 l 261 667 l 261 297 b 265 236 261 278 263 257 b 283 178 268 215 274 196 b 322 136 293 161 305 147 b 386 119 338 125 359 119 b 455 135 412 119 435 125 b 503 176 475 146 491 160 b 532 234 516 193 525 212 b 542 300 538 256 542 278 l 542 667 l 708 667 l 708 0 m 406 908 l 310 783 l 154 783 l 314 983 l 501 983 l 660 783 l 501 783 "},"ü":{"ha":808,"x_min":0,"x_max":0,"o":"m 550 0 l 550 107 l 547 107 b 470 19 532 74 507 44 b 340 -19 434 -7 390 -19 b 228 3 297 -19 259 -12 b 152 64 197 19 172 39 b 108 150 132 89 118 118 b 94 250 99 182 94 216 l 94 667 l 261 667 l 261 297 b 265 236 261 278 263 257 b 283 178 268 215 274 196 b 322 136 293 161 305 147 b 386 119 338 125 359 119 b 455 135 412 119 435 125 b 503 176 475 146 491 160 b 532 234 516 193 525 212 b 542 300 538 256 542 278 l 542 667 l 708 667 l 708 0 m 169 894 b 197 963 169 920 179 943 b 268 992 216 982 239 992 b 340 964 297 992 321 982 b 369 894 360 945 369 922 b 340 825 369 867 360 844 b 268 797 321 806 297 797 b 197 826 239 797 216 807 b 169 894 179 846 169 869 m 442 894 b 469 963 442 920 451 943 b 540 992 488 982 512 992 b 613 964 569 992 593 982 b 642 894 632 945 642 922 b 613 825 642 867 632 844 b 540 797 593 806 569 797 b 469 826 512 797 488 807 b 442 894 451 846 442 869 "},"ý":{"ha":713,"x_min":0,"x_max":0,"o":"m 185 667 l 371 182 l 374 182 l 539 667 l 713 667 l 397 -143 b 358 -224 385 -174 372 -201 b 308 -284 344 -248 328 -268 b 240 -321 289 -300 266 -312 b 144 -333 213 -329 181 -333 b 102 -331 131 -333 116 -333 b 58 -324 88 -330 73 -327 l 72 -179 b 105 -187 83 -183 94 -185 b 135 -189 116 -188 125 -189 b 179 -183 152 -189 167 -187 b 210 -163 191 -178 201 -172 b 232 -131 218 -154 225 -144 b 253 -85 238 -118 245 -102 l 286 0 l 0 667 m 611 983 l 415 783 l 285 783 l 422 983 "},"þ":{"ha":882,"x_min":0,"x_max":0,"o":"m 269 582 l 274 582 b 306 617 282 593 293 605 b 352 650 319 629 334 640 b 415 676 370 660 391 669 b 497 686 439 683 467 686 b 628 659 544 686 588 677 b 731 585 668 641 702 616 b 797 474 759 553 781 516 b 821 336 813 431 821 385 b 798 198 821 287 813 241 b 733 85 783 155 761 117 b 630 9 704 53 670 28 b 493 -19 590 -10 544 -19 b 362 10 447 -19 403 -9 b 272 92 321 30 291 57 l 269 92 l 269 -317 l 103 -317 l 103 1050 l 269 1050 m 651 336 b 640 413 651 362 647 388 b 604 482 632 439 620 462 b 544 531 588 502 569 519 b 460 550 520 544 492 550 b 378 531 429 550 402 544 b 316 481 354 518 333 501 b 277 411 299 460 286 437 b 264 333 268 385 264 359 b 277 256 264 307 268 282 b 316 188 286 231 299 208 b 378 138 333 167 354 151 b 460 119 402 126 429 119 b 544 139 492 119 520 126 b 604 189 569 152 588 169 b 640 258 620 209 632 232 b 651 336 647 284 651 310 "},"ÿ":{"ha":713,"x_min":0,"x_max":0,"o":"m 185 667 l 371 182 l 374 182 l 539 667 l 713 667 l 397 -143 b 358 -224 385 -174 372 -201 b 308 -284 344 -248 328 -268 b 240 -321 289 -300 266 -312 b 144 -333 213 -329 181 -333 b 102 -331 131 -333 116 -333 b 58 -324 88 -330 73 -327 l 72 -179 b 105 -187 83 -183 94 -185 b 135 -189 116 -188 125 -189 b 179 -183 152 -189 167 -187 b 210 -163 191 -178 201 -172 b 232 -131 218 -154 225 -144 b 253 -85 238 -118 245 -102 l 286 0 l 0 667 m 136 894 b 164 963 136 920 145 943 b 235 992 182 982 206 992 b 307 964 263 992 288 982 b 336 894 326 945 336 922 b 307 825 336 867 326 844 b 235 797 288 806 263 797 b 164 826 206 797 182 807 b 136 894 145 846 136 869 m 408 894 b 436 963 408 920 418 943 b 507 992 455 982 478 992 b 579 964 536 992 560 982 b 608 894 599 945 608 922 b 579 825 608 867 599 844 b 507 797 560 806 536 797 b 436 826 478 797 455 807 b 408 894 418 846 408 869 "},"¤":{"ha":847,"x_min":0,"x_max":0,"o":"m 706 583 b 760 394 742 529 760 466 b 744 290 760 358 755 324 b 703 200 734 257 720 227 l 818 83 l 731 -6 l 611 113 b 425 58 559 76 497 58 b 326 74 391 58 358 63 b 239 114 294 84 265 97 l 118 -6 l 29 83 l 149 204 b 109 292 133 230 120 259 b 93 394 98 325 93 359 b 107 494 93 430 98 463 b 144 581 116 525 129 554 l 29 696 l 118 783 l 233 671 b 323 712 260 688 290 701 b 425 728 356 722 390 728 b 528 713 461 728 496 723 b 615 671 561 702 590 688 l 729 783 l 818 696 l 706 583 m 425 594 b 345 578 395 594 369 589 b 285 535 322 568 301 553 b 247 472 268 517 255 496 b 233 394 238 448 233 422 b 247 316 233 367 238 341 b 285 252 255 291 268 270 b 345 209 301 234 322 220 b 425 193 369 198 395 193 b 506 209 455 193 481 198 b 567 252 530 220 550 234 b 605 316 583 270 596 291 b 618 394 614 341 618 367 b 605 472 618 422 614 448 b 567 535 596 496 583 517 b 506 578 550 553 530 568 b 425 594 481 589 455 594 "},"¦":{"ha":308,"x_min":0,"x_max":0,"o":"m 225 451 l 83 451 l 83 938 l 225 938 m 225 -243 l 83 -243 l 83 243 l 225 243 "},"¨":{"ha":361,"x_min":0,"x_max":0,"o":"m -56 894 b -28 963 -56 920 -46 943 b 43 992 -9 982 14 992 b 115 964 72 992 96 982 b 144 894 135 945 144 922 b 115 825 144 867 135 844 b 43 797 96 806 72 797 b -28 826 14 797 -9 807 b -56 894 -46 846 -56 869 m 217 894 b 244 963 217 920 226 943 b 315 992 263 982 287 992 b 388 964 344 992 368 982 b 417 894 407 945 417 922 b 388 825 417 867 407 844 b 315 797 368 806 344 797 b 244 826 287 797 263 807 b 217 894 226 846 217 869 "},"´":{"ha":361,"x_min":0,"x_max":0,"o":"m 442 983 l 246 783 l 115 783 l 253 983 "},"¸":{"ha":361,"x_min":0,"x_max":0,"o":"m 185 -89 b 199 -87 190 -88 195 -87 l 211 -87 b 263 -92 229 -87 246 -89 b 310 -110 280 -96 296 -101 b 344 -144 324 -118 335 -130 b 357 -203 353 -159 357 -179 b 339 -266 357 -228 351 -249 b 294 -306 327 -283 312 -297 b 233 -327 276 -316 255 -323 b 168 -333 210 -331 188 -333 b 85 -323 140 -333 113 -330 b 15 -297 58 -316 35 -307 l 47 -231 b 161 -258 82 -249 120 -258 b 186 -256 169 -258 177 -258 b 212 -248 195 -255 204 -252 b 232 -231 220 -244 226 -238 b 240 -201 238 -223 240 -213 b 233 -176 240 -191 238 -183 b 214 -161 228 -170 221 -165 b 190 -153 206 -157 199 -155 b 167 -151 182 -152 174 -151 b 140 -153 159 -151 150 -152 b 113 -160 130 -155 121 -157 l 81 -125 l 167 0 l 247 0 l 185 -89 "},"¼":{"ha":1250,"x_min":0,"x_max":0,"o":"m 683 118 l 683 221 l 932 596 l 1067 596 l 1067 228 l 1147 228 l 1147 118 l 1067 118 l 1067 0 l 947 0 l 947 118 m 946 435 l 813 228 l 947 228 l 947 435 m 944 975 l 367 -44 l 258 8 l 836 1028 m 249 983 l 364 983 l 364 388 l 233 388 l 233 828 l 132 743 l 58 829 "},"½":{"ha":1250,"x_min":0,"x_max":0,"o":"m 944 975 l 367 -44 l 258 8 l 836 1028 m 1167 114 l 1167 0 l 763 0 l 763 106 l 988 329 b 1024 375 1002 344 1014 359 b 1038 426 1033 391 1038 408 b 1017 476 1038 448 1031 464 b 964 494 1003 488 985 494 b 905 468 940 494 920 486 b 879 401 890 450 881 428 l 757 418 b 778 493 760 445 767 470 b 823 553 790 516 805 536 b 886 592 841 569 862 582 b 964 606 910 601 936 606 b 1040 594 990 606 1015 602 b 1105 561 1064 587 1086 576 b 1150 506 1124 546 1139 528 b 1167 428 1161 483 1167 457 b 1138 328 1167 389 1157 356 b 1071 249 1119 300 1097 274 l 932 114 m 249 983 l 364 983 l 364 388 l 233 388 l 233 828 l 132 743 l 58 829 "},"¾":{"ha":1250,"x_min":0,"x_max":0,"o":"m 683 118 l 683 221 l 932 596 l 1067 596 l 1067 228 l 1147 228 l 1147 118 l 1067 118 l 1067 0 l 947 0 l 947 118 m 946 435 l 813 228 l 947 228 l 947 435 m 944 975 l 367 -44 l 258 8 l 836 1028 m 244 750 b 316 767 270 750 294 756 b 349 829 338 779 349 800 b 327 875 349 849 341 864 b 275 892 313 886 295 892 b 225 871 256 892 239 885 b 197 818 211 857 202 839 l 78 847 b 152 957 91 892 116 928 b 279 1000 189 986 231 1000 b 419 960 335 1000 381 987 b 476 836 457 933 476 892 b 456 761 476 809 470 784 b 400 707 443 738 424 720 b 468 654 430 696 452 678 b 492 568 484 630 492 601 b 473 486 492 537 485 509 b 424 429 460 463 444 444 b 356 396 403 414 381 403 b 279 385 331 388 305 385 b 143 421 228 385 183 397 b 56 540 103 445 74 485 l 174 575 b 209 517 181 552 193 533 b 274 494 225 502 247 494 b 336 513 296 494 317 500 b 365 574 356 525 365 545 b 353 613 365 589 361 602 b 324 636 346 623 336 631 b 285 648 313 642 300 646 b 243 651 271 650 257 651 l 206 651 l 206 750 "},"Ā":{"ha":981,"x_min":0,"x_max":0,"o":"m 568 983 l 992 0 l 792 0 l 700 225 l 274 225 l 185 0 l -11 0 l 417 983 m 488 775 l 333 375 l 639 375 m 271 1104 l 271 1213 l 715 1213 l 715 1104 "},"ā":{"ha":764,"x_min":0,"x_max":0,"o":"m 510 85 b 429 12 493 55 466 31 b 303 -17 392 -7 350 -17 b 219 -6 276 -17 248 -13 b 138 28 190 1 163 12 b 77 92 114 45 93 66 b 53 190 61 119 53 151 b 95 310 53 240 67 280 b 204 378 123 339 160 362 b 352 409 249 394 298 404 b 511 417 406 414 459 417 l 511 433 b 466 526 511 475 496 506 b 358 556 436 546 400 556 b 257 533 323 556 289 548 b 176 479 225 519 198 500 l 90 581 b 222 660 128 616 172 642 b 372 686 271 677 321 686 b 519 661 431 686 480 678 b 610 596 557 644 588 623 b 656 506 632 569 647 539 b 669 406 665 472 669 439 l 669 0 l 514 0 l 514 85 m 474 304 b 389 301 447 304 419 303 b 307 285 359 298 332 293 b 244 252 282 278 261 266 b 219 193 228 238 219 218 b 230 153 219 177 223 164 b 257 128 237 143 246 134 b 294 114 268 121 281 117 b 336 110 308 111 322 110 b 467 156 394 110 437 125 b 511 281 496 186 511 228 l 511 304 m 172 826 l 172 935 l 617 935 l 617 826 "},"Ă":{"ha":981,"x_min":0,"x_max":0,"o":"m 568 983 l 992 0 l 792 0 l 700 225 l 274 225 l 185 0 l -11 0 l 417 983 m 488 775 l 333 375 l 639 375 m 349 1261 b 399 1189 355 1226 372 1202 b 492 1169 425 1176 456 1169 b 586 1186 531 1169 563 1175 b 636 1261 609 1197 626 1222 l 728 1261 b 653 1110 720 1193 696 1142 b 490 1061 611 1077 557 1061 b 326 1109 424 1061 369 1077 b 256 1261 284 1141 260 1192 l 349 1261 "},"ă":{"ha":764,"x_min":0,"x_max":0,"o":"m 510 85 b 429 12 493 55 466 31 b 303 -17 392 -7 350 -17 b 219 -6 276 -17 248 -13 b 138 28 190 1 163 12 b 77 92 114 45 93 66 b 53 190 61 119 53 151 b 95 310 53 240 67 280 b 204 378 123 339 160 362 b 352 409 249 394 298 404 b 511 417 406 414 459 417 l 511 433 b 466 526 511 475 496 506 b 358 556 436 546 400 556 b 257 533 323 556 289 548 b 176 479 225 519 198 500 l 90 581 b 222 660 128 616 172 642 b 372 686 271 677 321 686 b 519 661 431 686 480 678 b 610 596 557 644 588 623 b 656 506 632 569 647 539 b 669 406 665 472 669 439 l 669 0 l 514 0 l 514 85 m 474 304 b 389 301 447 304 419 303 b 307 285 359 298 332 293 b 244 252 282 278 261 266 b 219 193 228 238 219 218 b 230 153 219 177 223 164 b 257 128 237 143 246 134 b 294 114 268 121 281 117 b 336 110 308 111 322 110 b 467 156 394 110 437 125 b 511 281 496 186 511 228 l 511 304 m 244 983 b 294 911 251 948 268 924 b 388 892 321 898 352 892 b 482 908 427 892 459 897 b 532 983 505 919 522 944 l 624 983 b 549 832 616 915 591 864 b 386 783 507 800 453 783 b 222 831 319 783 265 799 b 151 983 180 863 156 914 l 244 983 "},"Ą":{"ha":981,"x_min":0,"x_max":0,"o":"m 942 -272 b 877 -310 922 -288 901 -301 b 803 -325 853 -320 829 -325 b 749 -317 784 -325 766 -322 b 703 -294 732 -312 717 -304 b 672 -255 690 -283 679 -270 b 660 -201 664 -240 660 -222 b 672 -144 660 -182 664 -163 b 703 -89 681 -125 691 -106 b 745 -39 716 -71 730 -55 b 790 1 760 -23 775 -10 l 700 225 l 274 225 l 185 0 l -11 0 l 417 983 l 568 983 l 992 0 l 874 0 b 839 -35 863 -10 851 -22 b 805 -78 827 -49 816 -63 b 778 -125 794 -94 785 -109 b 768 -169 772 -141 768 -156 b 787 -215 768 -187 774 -202 b 832 -233 799 -227 814 -233 b 872 -225 845 -233 858 -231 b 907 -204 885 -219 897 -212 l 942 -272 m 488 775 l 333 375 l 639 375 "},"ą":{"ha":764,"x_min":0,"x_max":0,"o":"m 656 -272 b 591 -310 636 -288 615 -301 b 517 -325 567 -320 543 -325 b 463 -317 498 -325 480 -322 b 417 -294 446 -312 431 -304 b 385 -255 404 -283 393 -270 b 374 -201 378 -240 374 -222 b 387 -142 374 -182 378 -162 b 421 -84 396 -121 407 -102 b 466 -33 435 -66 450 -49 b 513 8 482 -16 498 -3 l 514 8 l 514 85 l 510 85 b 429 12 493 55 466 31 b 303 -17 392 -7 350 -17 b 219 -6 276 -17 248 -13 b 138 28 190 1 163 12 b 77 92 114 45 93 66 b 53 190 61 119 53 151 b 95 310 53 240 67 280 b 204 378 123 339 160 362 b 352 409 249 394 298 404 b 511 417 406 414 459 417 l 511 433 b 466 526 511 475 496 506 b 358 556 436 546 400 556 b 257 533 323 556 289 548 b 176 479 225 519 198 500 l 90 581 b 222 660 128 616 172 642 b 372 686 271 677 321 686 b 519 661 431 686 480 678 b 610 596 557 644 588 623 b 656 506 632 569 647 539 b 669 406 665 472 669 439 l 669 0 l 588 0 b 553 -35 576 -10 565 -22 b 519 -78 541 -49 529 -63 b 492 -125 508 -94 499 -109 b 482 -169 485 -141 482 -156 b 501 -215 482 -187 488 -202 b 546 -233 513 -227 528 -233 b 585 -225 559 -233 572 -231 b 621 -204 599 -219 611 -212 l 656 -272 m 474 304 b 389 301 447 304 419 303 b 307 285 359 298 332 293 b 244 252 282 278 261 266 b 219 193 228 238 219 218 b 230 153 219 177 223 164 b 257 128 237 143 246 134 b 294 114 268 121 281 117 b 336 110 308 111 322 110 b 467 156 394 110 437 125 b 511 281 496 186 511 228 l 511 304 "},"Ć":{"ha":967,"x_min":0,"x_max":0,"o":"m 818 753 b 717 830 792 788 758 814 b 594 854 675 846 634 854 b 456 826 544 854 497 845 b 348 750 414 808 378 782 b 278 636 318 718 295 680 b 254 494 262 593 254 545 b 278 347 254 441 262 392 b 345 233 294 303 316 265 b 450 158 374 201 409 176 b 588 132 491 141 537 132 b 728 163 640 132 687 142 b 826 246 769 184 801 212 l 967 147 b 807 20 923 93 870 50 b 586 -25 744 -10 670 -25 b 374 13 509 -25 439 -12 b 208 120 310 39 255 74 b 100 284 162 166 126 221 b 61 494 74 347 61 418 b 102 708 61 573 75 644 b 215 869 129 771 167 825 b 383 972 262 914 319 948 b 594 1008 448 996 519 1008 b 693 999 626 1008 659 1005 b 792 972 727 993 760 984 b 881 925 823 959 853 944 b 951 858 908 906 932 884 l 818 753 m 785 1261 l 589 1061 l 458 1061 l 596 1261 "},"ć":{"ha":678,"x_min":0,"x_max":0,"o":"m 556 482 b 497 528 543 500 523 516 b 418 547 471 541 445 547 b 338 528 388 547 361 541 b 280 479 314 516 295 500 b 246 410 265 459 253 436 b 235 333 238 385 235 359 b 247 256 235 307 239 282 b 282 188 254 231 266 208 b 341 138 298 167 317 151 b 424 119 365 126 392 119 b 501 135 450 119 475 125 b 564 179 527 145 548 160 l 668 74 b 562 5 640 44 605 21 b 422 -19 519 -11 472 -19 b 283 4 373 -19 327 -12 b 167 74 239 20 200 43 b 90 185 134 104 109 141 b 61 333 71 228 61 278 b 90 479 61 387 71 436 b 167 590 109 523 134 560 b 280 661 199 621 237 644 b 418 686 323 678 369 686 b 560 658 467 686 515 677 b 669 582 606 640 643 614 l 556 482 m 644 983 l 449 783 l 318 783 l 456 983 "},"Ĉ":{"ha":967,"x_min":0,"x_max":0,"o":"m 818 753 b 717 830 792 788 758 814 b 594 854 675 846 634 854 b 456 826 544 854 497 845 b 348 750 414 808 378 782 b 278 636 318 718 295 680 b 254 494 262 593 254 545 b 278 347 254 441 262 392 b 345 233 294 303 316 265 b 450 158 374 201 409 176 b 588 132 491 141 537 132 b 728 163 640 132 687 142 b 826 246 769 184 801 212 l 967 147 b 807 20 923 93 870 50 b 586 -25 744 -10 670 -25 b 374 13 509 -25 439 -12 b 208 120 310 39 255 74 b 100 284 162 166 126 221 b 61 494 74 347 61 418 b 102 708 61 573 75 644 b 215 869 129 771 167 825 b 383 972 262 914 319 948 b 594 1008 448 996 519 1008 b 693 999 626 1008 659 1005 b 792 972 727 993 760 984 b 881 925 823 959 853 944 b 951 858 908 906 932 884 l 818 753 m 594 1186 l 499 1061 l 343 1061 l 503 1261 l 690 1261 l 849 1061 l 690 1061 "},"ĉ":{"ha":678,"x_min":0,"x_max":0,"o":"m 556 482 b 497 528 543 500 523 516 b 418 547 471 541 445 547 b 338 528 388 547 361 541 b 280 479 314 516 295 500 b 246 410 265 459 253 436 b 235 333 238 385 235 359 b 247 256 235 307 239 282 b 282 188 254 231 266 208 b 341 138 298 167 317 151 b 424 119 365 126 392 119 b 501 135 450 119 475 125 b 564 179 527 145 548 160 l 668 74 b 562 5 640 44 605 21 b 422 -19 519 -11 472 -19 b 283 4 373 -19 327 -12 b 167 74 239 20 200 43 b 90 185 134 104 109 141 b 61 333 71 228 61 278 b 90 479 61 387 71 436 b 167 590 109 523 134 560 b 280 661 199 621 237 644 b 418 686 323 678 369 686 b 560 658 467 686 515 677 b 669 582 606 640 643 614 l 556 482 m 417 908 l 321 783 l 165 783 l 325 983 l 513 983 l 671 783 l 513 783 "},"Ċ":{"ha":967,"x_min":0,"x_max":0,"o":"m 818 753 b 717 830 792 788 758 814 b 594 854 675 846 634 854 b 456 826 544 854 497 845 b 348 750 414 808 378 782 b 278 636 318 718 295 680 b 254 494 262 593 254 545 b 278 347 254 441 262 392 b 345 233 294 303 316 265 b 450 158 374 201 409 176 b 588 132 491 141 537 132 b 728 163 640 132 687 142 b 826 246 769 184 801 212 l 967 147 b 807 20 923 93 870 50 b 586 -25 744 -10 670 -25 b 374 13 509 -25 439 -12 b 208 120 310 39 255 74 b 100 284 162 166 126 221 b 61 494 74 347 61 418 b 102 708 61 573 75 644 b 215 869 129 771 167 825 b 383 972 262 914 319 948 b 594 1008 448 996 519 1008 b 693 999 626 1008 659 1005 b 792 972 727 993 760 984 b 881 925 823 959 853 944 b 951 858 908 906 932 884 l 818 753 m 485 1171 b 515 1241 485 1198 495 1221 b 590 1271 534 1261 560 1271 b 667 1242 621 1271 647 1261 b 699 1171 688 1223 699 1200 b 667 1099 699 1142 688 1118 b 590 1071 647 1080 621 1071 b 515 1101 560 1071 534 1081 b 485 1171 495 1121 485 1144 "},"ċ":{"ha":678,"x_min":0,"x_max":0,"o":"m 556 482 b 497 528 543 500 523 516 b 418 547 471 541 445 547 b 338 528 388 547 361 541 b 280 479 314 516 295 500 b 246 410 265 459 253 436 b 235 333 238 385 235 359 b 247 256 235 307 239 282 b 282 188 254 231 266 208 b 341 138 298 167 317 151 b 424 119 365 126 392 119 b 501 135 450 119 475 125 b 564 179 527 145 548 160 l 668 74 b 562 5 640 44 605 21 b 422 -19 519 -11 472 -19 b 283 4 373 -19 327 -12 b 167 74 239 20 200 43 b 90 185 134 104 109 141 b 61 333 71 228 61 278 b 90 479 61 387 71 436 b 167 590 109 523 134 560 b 280 661 199 621 237 644 b 418 686 323 678 369 686 b 560 658 467 686 515 677 b 669 582 606 640 643 614 l 556 482 m 308 893 b 338 963 308 920 318 943 b 414 993 358 983 383 993 b 491 965 444 993 470 984 b 522 893 512 946 522 922 b 491 822 522 864 512 841 b 414 793 470 803 444 793 b 338 823 383 793 358 803 b 308 893 318 843 308 866 "},"Č":{"ha":967,"x_min":0,"x_max":0,"o":"m 818 753 b 717 830 792 788 758 814 b 594 854 675 846 634 854 b 456 826 544 854 497 845 b 348 750 414 808 378 782 b 278 636 318 718 295 680 b 254 494 262 593 254 545 b 278 347 254 441 262 392 b 345 233 294 303 316 265 b 450 158 374 201 409 176 b 588 132 491 141 537 132 b 728 163 640 132 687 142 b 826 246 769 184 801 212 l 967 147 b 807 20 923 93 870 50 b 586 -25 744 -10 670 -25 b 374 13 509 -25 439 -12 b 208 120 310 39 255 74 b 100 284 162 166 126 221 b 61 494 74 347 61 418 b 102 708 61 573 75 644 b 215 869 129 771 167 825 b 383 972 262 914 319 948 b 594 1008 448 996 519 1008 b 693 999 626 1008 659 1005 b 792 972 727 993 760 984 b 881 925 823 959 853 944 b 951 858 908 906 932 884 l 818 753 m 592 1136 l 688 1261 l 840 1261 l 681 1061 l 496 1061 l 338 1261 l 496 1261 "},"č":{"ha":678,"x_min":0,"x_max":0,"o":"m 556 482 b 497 528 543 500 523 516 b 418 547 471 541 445 547 b 338 528 388 547 361 541 b 280 479 314 516 295 500 b 246 410 265 459 253 436 b 235 333 238 385 235 359 b 247 256 235 307 239 282 b 282 188 254 231 266 208 b 341 138 298 167 317 151 b 424 119 365 126 392 119 b 501 135 450 119 475 125 b 564 179 527 145 548 160 l 668 74 b 562 5 640 44 605 21 b 422 -19 519 -11 472 -19 b 283 4 373 -19 327 -12 b 167 74 239 20 200 43 b 90 185 134 104 109 141 b 61 333 71 228 61 278 b 90 479 61 387 71 436 b 167 590 109 523 134 560 b 280 661 199 621 237 644 b 418 686 323 678 369 686 b 560 658 467 686 515 677 b 669 582 606 640 643 614 l 556 482 m 422 858 l 518 983 l 671 983 l 511 783 l 326 783 l 168 983 l 326 983 "},"Ď":{"ha":1061,"x_min":0,"x_max":0,"o":"m 457 983 b 650 958 521 983 585 975 b 825 876 715 942 773 914 b 951 724 877 837 919 787 b 1000 492 984 662 1000 584 b 951 269 1000 406 984 331 b 825 117 919 207 877 156 b 650 28 773 77 715 47 b 457 0 585 9 521 0 l 108 0 l 108 983 m 429 153 b 565 169 475 153 520 158 b 688 223 611 179 652 197 b 778 326 725 248 755 283 b 813 492 801 370 813 425 b 778 664 813 562 801 619 b 688 768 755 708 725 743 b 565 819 652 793 611 810 b 429 833 520 829 475 833 l 283 833 l 283 153 l 429 153 m 481 1136 l 576 1261 l 729 1261 l 569 1061 l 385 1061 l 226 1261 l 385 1261 "},"ď":{"ha":881,"x_min":0,"x_max":0,"o":"m 619 0 l 619 100 l 617 100 b 520 11 594 61 561 31 b 388 -19 479 -9 435 -19 b 251 9 337 -19 291 -10 b 148 85 210 28 176 53 b 83 198 120 117 98 155 b 60 336 67 241 60 287 b 83 474 60 385 68 431 b 150 585 99 516 121 553 b 253 659 179 616 213 641 b 383 686 293 677 336 686 b 465 676 414 686 441 683 b 528 650 489 669 510 660 b 575 617 547 640 562 629 b 607 582 588 605 599 593 l 611 582 l 611 1050 l 778 1050 l 778 0 m 229 336 b 241 258 229 310 233 284 b 276 189 249 232 261 209 b 336 139 292 169 312 152 b 421 119 360 126 388 119 b 503 138 451 119 479 126 b 565 188 527 151 547 167 b 603 256 582 208 595 231 b 617 333 612 282 617 307 b 603 411 617 359 612 385 b 565 481 595 437 582 460 b 503 531 547 501 527 518 b 421 550 479 544 451 550 b 336 531 388 550 360 544 b 276 482 312 519 292 502 b 241 413 261 462 249 439 b 229 336 233 388 229 362 m 1053 983 l 942 713 l 815 713 l 906 983 "},"Đ":{"ha":1061,"x_min":0,"x_max":0,"o":"m 18 450 l 18 567 l 110 567 l 110 983 l 497 983 b 685 953 562 983 625 973 b 844 863 745 934 798 903 b 956 709 891 822 928 771 b 997 492 983 647 997 575 b 949 273 997 407 981 334 b 826 120 917 211 876 160 b 658 30 775 80 719 50 b 476 0 596 10 536 0 l 110 0 l 110 450 m 415 158 b 570 177 470 158 522 165 b 697 235 619 190 661 209 b 783 338 733 262 762 296 b 814 492 803 380 814 431 b 786 644 814 551 805 602 b 709 748 768 687 742 722 b 592 806 676 774 637 794 b 444 825 547 819 498 825 l 285 825 l 285 567 l 585 567 l 585 450 l 285 450 l 285 158 l 415 158 "},"đ":{"ha":881,"x_min":0,"x_max":0,"o":"m 778 792 l 778 0 l 619 0 l 619 100 l 617 100 b 520 11 594 61 561 31 b 388 -19 479 -9 435 -19 b 251 9 337 -19 291 -10 b 148 85 210 28 176 53 b 83 198 120 117 98 155 b 60 336 67 241 60 287 b 83 474 60 385 68 431 b 150 585 99 516 121 553 b 253 659 179 616 213 641 b 383 686 293 677 336 686 b 465 676 414 686 441 683 b 528 650 489 669 510 660 b 575 617 547 640 562 629 b 607 582 588 605 599 593 l 611 582 l 611 792 l 375 792 l 375 896 l 611 896 l 611 1050 l 778 1050 l 778 896 l 853 896 l 853 792 m 229 336 b 241 258 229 310 233 284 b 276 189 249 232 261 209 b 336 139 292 169 312 152 b 421 119 360 126 388 119 b 503 138 451 119 479 126 b 565 188 527 151 547 167 b 603 256 582 208 595 231 b 617 333 612 282 617 307 b 603 411 617 359 612 385 b 565 481 595 437 582 460 b 503 531 547 501 527 518 b 421 550 479 544 451 550 b 336 531 388 550 360 544 b 276 482 312 519 292 502 b 241 413 261 462 249 439 b 229 336 233 388 229 362 "},"Ē":{"ha":847,"x_min":0,"x_max":0,"o":"m 760 983 l 760 831 l 283 831 l 283 581 l 735 581 l 735 433 l 283 433 l 283 156 l 785 156 l 785 0 l 108 0 l 108 983 m 218 1104 l 218 1213 l 663 1213 l 663 1104 "},"ē":{"ha":797,"x_min":0,"x_max":0,"o":"m 569 400 b 560 461 569 421 566 442 b 532 513 554 481 545 498 b 483 548 519 527 503 539 b 413 561 463 557 439 561 b 285 516 363 561 320 546 b 228 400 251 486 231 447 l 569 400 m 736 303 b 735 281 736 295 736 288 l 228 281 b 247 215 230 256 236 234 b 289 163 257 195 271 178 b 349 129 306 149 326 138 b 418 117 371 121 394 117 b 524 140 460 117 495 124 b 594 203 552 155 576 176 l 706 114 b 419 -19 640 25 544 -19 b 276 5 368 -19 320 -11 b 163 74 233 21 195 44 b 88 183 131 103 106 140 b 61 329 70 226 61 275 b 88 476 61 383 70 432 b 163 588 106 520 131 557 b 274 660 194 619 231 643 b 414 686 317 678 364 686 b 542 663 460 686 503 678 b 644 595 582 648 616 625 b 712 483 673 565 696 528 b 736 325 728 438 736 385 m 193 826 l 193 935 l 638 935 l 638 826 "},"Ĕ":{"ha":847,"x_min":0,"x_max":0,"o":"m 760 983 l 760 831 l 283 831 l 283 581 l 735 581 l 735 433 l 283 433 l 283 156 l 785 156 l 785 0 l 108 0 l 108 983 m 296 1261 b 346 1189 302 1226 319 1202 b 439 1169 373 1176 404 1169 b 533 1186 479 1169 510 1175 b 583 1261 556 1197 573 1222 l 675 1261 b 601 1110 668 1193 643 1142 b 438 1061 559 1077 504 1061 b 274 1109 371 1061 316 1077 b 203 1261 231 1141 207 1192 l 296 1261 "},"ĕ":{"ha":797,"x_min":0,"x_max":0,"o":"m 569 400 b 560 461 569 421 566 442 b 532 513 554 481 545 498 b 483 548 519 527 503 539 b 413 561 463 557 439 561 b 285 516 363 561 320 546 b 228 400 251 486 231 447 l 569 400 m 736 303 b 735 281 736 295 736 288 l 228 281 b 247 215 230 256 236 234 b 289 163 257 195 271 178 b 349 129 306 149 326 138 b 418 117 371 121 394 117 b 524 140 460 117 495 124 b 594 203 552 155 576 176 l 706 114 b 419 -19 640 25 544 -19 b 276 5 368 -19 320 -11 b 163 74 233 21 195 44 b 88 183 131 103 106 140 b 61 329 70 226 61 275 b 88 476 61 383 70 432 b 163 588 106 520 131 557 b 274 660 194 619 231 643 b 414 686 317 678 364 686 b 542 663 460 686 503 678 b 644 595 582 648 616 625 b 712 483 673 565 696 528 b 736 325 728 438 736 385 m 275 983 b 325 911 281 948 298 924 b 418 892 352 898 383 892 b 513 908 458 892 489 897 b 563 983 536 919 552 944 l 654 983 b 580 832 647 915 622 864 b 417 783 538 800 483 783 b 253 831 350 783 295 799 b 182 983 210 863 187 914 l 275 983 "},"Ė":{"ha":847,"x_min":0,"x_max":0,"o":"m 760 983 l 760 831 l 283 831 l 283 581 l 735 581 l 735 433 l 283 433 l 283 156 l 785 156 l 785 0 l 108 0 l 108 983 m 339 1171 b 369 1241 339 1198 349 1221 b 444 1271 389 1261 414 1271 b 522 1242 475 1271 501 1261 b 553 1171 542 1223 553 1200 b 522 1099 553 1142 542 1118 b 444 1071 501 1080 475 1071 b 369 1101 414 1071 389 1081 b 339 1171 349 1121 339 1144 "},"ė":{"ha":797,"x_min":0,"x_max":0,"o":"m 569 400 b 560 461 569 421 566 442 b 532 513 554 481 545 498 b 483 548 519 527 503 539 b 413 561 463 557 439 561 b 285 516 363 561 320 546 b 228 400 251 486 231 447 l 569 400 m 736 303 b 735 281 736 295 736 288 l 228 281 b 247 215 230 256 236 234 b 289 163 257 195 271 178 b 349 129 306 149 326 138 b 418 117 371 121 394 117 b 524 140 460 117 495 124 b 594 203 552 155 576 176 l 706 114 b 419 -19 640 25 544 -19 b 276 5 368 -19 320 -11 b 163 74 233 21 195 44 b 88 183 131 103 106 140 b 61 329 70 226 61 275 b 88 476 61 383 70 432 b 163 588 106 520 131 557 b 274 660 194 619 231 643 b 414 686 317 678 364 686 b 542 663 460 686 503 678 b 644 595 582 648 616 625 b 712 483 673 565 696 528 b 736 325 728 438 736 385 m 308 893 b 338 963 308 920 318 943 b 414 993 358 983 383 993 b 491 965 444 993 470 984 b 522 893 512 946 522 922 b 491 822 522 864 512 841 b 414 793 470 803 444 793 b 338 823 383 793 358 803 b 308 893 318 843 308 866 "},"Ę":{"ha":847,"x_min":0,"x_max":0,"o":"m 760 983 l 760 831 l 283 831 l 283 581 l 735 581 l 735 433 l 283 433 l 283 156 l 785 156 l 785 0 l 749 0 b 714 -35 738 -10 726 -22 b 680 -78 702 -49 691 -63 b 653 -125 669 -94 660 -109 b 643 -169 647 -141 643 -156 b 662 -215 643 -187 649 -202 b 707 -233 674 -227 689 -233 b 747 -225 720 -233 733 -231 b 782 -204 760 -219 772 -212 l 817 -272 b 752 -310 797 -288 776 -301 b 678 -325 728 -320 704 -325 b 624 -317 659 -325 641 -322 b 578 -294 607 -312 592 -304 b 547 -255 565 -283 554 -270 b 535 -201 539 -240 535 -222 b 547 -145 535 -183 539 -164 b 577 -90 554 -126 565 -108 b 618 -41 590 -73 603 -56 b 663 0 633 -26 648 -12 l 108 0 l 108 983 "},"ę":{"ha":797,"x_min":0,"x_max":0,"o":"m 583 -272 b 519 -310 564 -288 542 -301 b 444 -325 495 -320 470 -325 b 391 -317 426 -325 408 -322 b 345 -294 374 -312 359 -304 b 313 -255 332 -283 321 -270 b 301 -201 305 -240 301 -222 b 310 -152 301 -185 304 -168 b 334 -104 316 -136 324 -120 b 368 -59 344 -88 355 -73 b 407 -19 381 -45 394 -31 b 269 7 357 -19 311 -10 b 159 77 227 24 190 47 b 87 186 128 107 104 144 b 61 329 70 229 61 276 b 88 476 61 383 70 432 b 163 588 106 520 131 557 b 274 660 194 619 231 643 b 414 686 317 678 364 686 b 542 663 460 686 503 678 b 644 595 582 648 616 625 b 712 483 673 565 696 528 b 736 325 728 438 736 385 l 736 303 b 735 281 736 295 736 288 l 228 281 b 247 215 230 256 236 234 b 289 163 257 195 271 178 b 349 129 306 149 326 138 b 418 117 371 121 394 117 b 524 140 460 117 495 124 b 594 203 552 155 576 176 l 706 114 b 503 -11 656 46 588 5 b 471 -46 493 -21 482 -33 b 440 -86 460 -59 450 -72 b 418 -128 431 -100 424 -114 b 410 -169 413 -143 410 -156 b 428 -215 410 -187 416 -202 b 474 -233 441 -227 456 -233 b 513 -225 487 -233 500 -231 b 549 -204 527 -219 538 -212 l 583 -272 m 569 400 b 560 461 569 421 566 442 b 532 513 554 481 545 498 b 483 548 519 527 503 539 b 413 561 463 557 439 561 b 285 516 363 561 320 546 b 228 400 251 486 231 447 l 569 400 "},"Ě":{"ha":847,"x_min":0,"x_max":0,"o":"m 760 983 l 760 831 l 283 831 l 283 581 l 735 581 l 735 433 l 283 433 l 283 156 l 785 156 l 785 0 l 108 0 l 108 983 m 442 1136 l 538 1261 l 690 1261 l 531 1061 l 346 1061 l 188 1261 l 346 1261 "},"ě":{"ha":797,"x_min":0,"x_max":0,"o":"m 569 400 b 560 461 569 421 566 442 b 532 513 554 481 545 498 b 483 548 519 527 503 539 b 413 561 463 557 439 561 b 285 516 363 561 320 546 b 228 400 251 486 231 447 l 569 400 m 736 303 b 735 281 736 295 736 288 l 228 281 b 247 215 230 256 236 234 b 289 163 257 195 271 178 b 349 129 306 149 326 138 b 418 117 371 121 394 117 b 524 140 460 117 495 124 b 594 203 552 155 576 176 l 706 114 b 419 -19 640 25 544 -19 b 276 5 368 -19 320 -11 b 163 74 233 21 195 44 b 88 183 131 103 106 140 b 61 329 70 226 61 275 b 88 476 61 383 70 432 b 163 588 106 520 131 557 b 274 660 194 619 231 643 b 414 686 317 678 364 686 b 542 663 460 686 503 678 b 644 595 582 648 616 625 b 712 483 673 565 696 528 b 736 325 728 438 736 385 m 421 858 l 517 983 l 669 983 l 510 783 l 325 783 l 167 983 l 325 983 "},"Ĝ":{"ha":1074,"x_min":0,"x_max":0,"o":"m 969 51 b 805 -5 919 27 865 9 b 599 -25 745 -18 676 -25 b 381 13 519 -25 446 -12 b 211 120 315 39 258 74 b 101 284 164 166 127 221 b 61 494 74 347 61 418 b 102 708 61 573 75 644 b 215 869 129 771 167 825 b 383 972 262 914 319 948 b 594 1008 448 996 519 1008 b 810 974 673 1008 745 997 b 968 885 876 952 928 922 l 847 754 b 742 825 822 782 787 806 b 596 854 697 844 649 854 b 455 826 544 854 497 845 b 347 750 413 808 377 782 b 278 636 318 718 295 680 b 254 494 262 593 254 545 b 278 349 254 442 262 393 b 348 235 295 305 318 267 b 458 159 378 202 415 177 b 604 132 501 141 550 132 b 800 167 679 132 744 144 l 800 417 l 593 417 l 593 561 l 969 561 l 969 51 m 597 1186 l 501 1061 l 346 1061 l 506 1261 l 693 1261 l 851 1061 l 693 1061 "},"ĝ":{"ha":878,"x_min":0,"x_max":0,"o":"m 778 60 b 756 -103 778 0 770 -55 b 687 -227 741 -152 718 -193 b 569 -306 656 -261 617 -287 b 401 -333 522 -324 466 -333 b 316 -326 375 -333 346 -331 b 227 -306 286 -322 256 -315 b 143 -271 198 -296 170 -285 b 71 -224 116 -257 92 -241 l 167 -94 b 276 -165 199 -125 236 -148 b 400 -189 317 -181 358 -189 b 501 -172 440 -189 473 -183 b 566 -124 528 -160 550 -144 b 601 -51 582 -103 594 -79 b 611 40 608 -24 611 7 l 611 89 l 608 89 b 516 15 584 56 553 32 b 390 -11 478 -3 437 -11 b 254 17 340 -11 295 -2 b 151 92 213 35 179 60 b 85 202 122 123 100 160 b 61 336 69 244 61 289 b 84 472 61 384 69 430 b 149 583 99 515 121 552 b 252 658 178 615 212 640 b 388 686 292 677 338 686 b 519 657 435 686 479 676 b 617 567 560 638 593 607 l 619 567 l 619 667 l 778 667 m 422 550 b 341 533 392 550 365 544 b 281 488 317 522 297 507 b 244 421 265 469 253 447 b 231 338 235 395 231 367 b 244 260 231 311 235 285 b 281 192 253 235 265 212 b 341 144 297 172 317 156 b 421 126 365 132 391 126 b 503 144 451 126 479 132 b 566 190 528 155 549 171 b 606 258 583 210 596 232 b 619 338 615 283 619 310 b 606 419 619 366 615 394 b 566 488 596 445 583 468 b 504 533 549 507 528 522 b 422 550 480 544 453 550 m 450 908 l 354 783 l 199 783 l 358 983 l 546 983 l 704 783 l 546 783 "},"Ğ":{"ha":1074,"x_min":0,"x_max":0,"o":"m 969 51 b 805 -5 919 27 865 9 b 599 -25 745 -18 676 -25 b 381 13 519 -25 446 -12 b 211 120 315 39 258 74 b 101 284 164 166 127 221 b 61 494 74 347 61 418 b 102 708 61 573 75 644 b 215 869 129 771 167 825 b 383 972 262 914 319 948 b 594 1008 448 996 519 1008 b 810 974 673 1008 745 997 b 968 885 876 952 928 922 l 847 754 b 742 825 822 782 787 806 b 596 854 697 844 649 854 b 455 826 544 854 497 845 b 347 750 413 808 377 782 b 278 636 318 718 295 680 b 254 494 262 593 254 545 b 278 349 254 442 262 393 b 348 235 295 305 318 267 b 458 159 378 202 415 177 b 604 132 501 141 550 132 b 800 167 679 132 744 144 l 800 417 l 593 417 l 593 561 l 969 561 l 969 51 m 454 1261 b 504 1189 461 1226 477 1202 b 597 1169 531 1176 562 1169 b 692 1186 637 1169 669 1175 b 742 1261 715 1197 731 1222 l 833 1261 b 759 1110 826 1193 801 1142 b 596 1061 717 1077 662 1061 b 432 1109 529 1061 475 1077 b 361 1261 389 1141 366 1192 l 454 1261 "},"ğ":{"ha":878,"x_min":0,"x_max":0,"o":"m 778 60 b 756 -103 778 0 770 -55 b 687 -227 741 -152 718 -193 b 569 -306 656 -261 617 -287 b 401 -333 522 -324 466 -333 b 316 -326 375 -333 346 -331 b 227 -306 286 -322 256 -315 b 143 -271 198 -296 170 -285 b 71 -224 116 -257 92 -241 l 167 -94 b 276 -165 199 -125 236 -148 b 400 -189 317 -181 358 -189 b 501 -172 440 -189 473 -183 b 566 -124 528 -160 550 -144 b 601 -51 582 -103 594 -79 b 611 40 608 -24 611 7 l 611 89 l 608 89 b 516 15 584 56 553 32 b 390 -11 478 -3 437 -11 b 254 17 340 -11 295 -2 b 151 92 213 35 179 60 b 85 202 122 123 100 160 b 61 336 69 244 61 289 b 84 472 61 384 69 430 b 149 583 99 515 121 552 b 252 658 178 615 212 640 b 388 686 292 677 338 686 b 519 657 435 686 479 676 b 617 567 560 638 593 607 l 619 567 l 619 667 l 778 667 m 422 550 b 341 533 392 550 365 544 b 281 488 317 522 297 507 b 244 421 265 469 253 447 b 231 338 235 395 231 367 b 244 260 231 311 235 285 b 281 192 253 235 265 212 b 341 144 297 172 317 156 b 421 126 365 132 391 126 b 503 144 451 126 479 132 b 566 190 528 155 549 171 b 606 258 583 210 596 232 b 619 338 615 283 619 310 b 606 419 619 366 615 394 b 566 488 596 445 583 468 b 504 533 549 507 528 522 b 422 550 480 544 453 550 m 292 983 b 342 911 298 948 315 924 b 435 892 369 898 400 892 b 529 908 475 892 506 897 b 579 983 552 919 569 944 l 671 983 b 597 832 663 915 639 864 b 433 783 554 800 500 783 b 269 831 367 783 312 799 b 199 983 227 863 203 914 l 292 983 "},"Ġ":{"ha":1074,"x_min":0,"x_max":0,"o":"m 969 51 b 805 -5 919 27 865 9 b 599 -25 745 -18 676 -25 b 381 13 519 -25 446 -12 b 211 120 315 39 258 74 b 101 284 164 166 127 221 b 61 494 74 347 61 418 b 102 708 61 573 75 644 b 215 869 129 771 167 825 b 383 972 262 914 319 948 b 594 1008 448 996 519 1008 b 810 974 673 1008 745 997 b 968 885 876 952 928 922 l 847 754 b 742 825 822 782 787 806 b 596 854 697 844 649 854 b 455 826 544 854 497 845 b 347 750 413 808 377 782 b 278 636 318 718 295 680 b 254 494 262 593 254 545 b 278 349 254 442 262 393 b 348 235 295 305 318 267 b 458 159 378 202 415 177 b 604 132 501 141 550 132 b 800 167 679 132 744 144 l 800 417 l 593 417 l 593 561 l 969 561 l 969 51 m 492 1171 b 522 1241 492 1198 502 1221 b 597 1271 541 1261 567 1271 b 674 1242 628 1271 653 1261 b 706 1171 695 1223 706 1200 b 674 1099 706 1142 695 1118 b 597 1071 653 1080 628 1071 b 522 1101 567 1071 541 1081 b 492 1171 502 1121 492 1144 "},"ġ":{"ha":878,"x_min":0,"x_max":0,"o":"m 778 60 b 756 -103 778 0 770 -55 b 687 -227 741 -152 718 -193 b 569 -306 656 -261 617 -287 b 401 -333 522 -324 466 -333 b 316 -326 375 -333 346 -331 b 227 -306 286 -322 256 -315 b 143 -271 198 -296 170 -285 b 71 -224 116 -257 92 -241 l 167 -94 b 276 -165 199 -125 236 -148 b 400 -189 317 -181 358 -189 b 501 -172 440 -189 473 -183 b 566 -124 528 -160 550 -144 b 601 -51 582 -103 594 -79 b 611 40 608 -24 611 7 l 611 89 l 608 89 b 516 15 584 56 553 32 b 390 -11 478 -3 437 -11 b 254 17 340 -11 295 -2 b 151 92 213 35 179 60 b 85 202 122 123 100 160 b 61 336 69 244 61 289 b 84 472 61 384 69 430 b 149 583 99 515 121 552 b 252 658 178 615 212 640 b 388 686 292 677 338 686 b 519 657 435 686 479 676 b 617 567 560 638 593 607 l 619 567 l 619 667 l 778 667 m 422 550 b 341 533 392 550 365 544 b 281 488 317 522 297 507 b 244 421 265 469 253 447 b 231 338 235 395 231 367 b 244 260 231 311 235 285 b 281 192 253 235 265 212 b 341 144 297 172 317 156 b 421 126 365 132 391 126 b 503 144 451 126 479 132 b 566 190 528 155 549 171 b 606 258 583 210 596 232 b 619 338 615 283 619 310 b 606 419 619 366 615 394 b 566 488 596 445 583 468 b 504 533 549 507 528 522 b 422 550 480 544 453 550 m 332 893 b 362 963 332 920 342 943 b 438 993 382 983 407 993 b 515 965 468 993 494 984 b 546 893 535 946 546 922 b 515 822 546 864 535 841 b 438 793 494 803 468 793 b 362 823 407 793 382 803 b 332 893 342 843 332 866 "},"Ģ":{"ha":1074,"x_min":0,"x_max":0,"o":"m 969 51 b 805 -5 919 27 865 9 b 599 -25 745 -18 676 -25 b 381 13 519 -25 446 -12 b 211 120 315 39 258 74 b 101 284 164 166 127 221 b 61 494 74 347 61 418 b 102 708 61 573 75 644 b 215 869 129 771 167 825 b 383 972 262 914 319 948 b 594 1008 448 996 519 1008 b 810 974 673 1008 745 997 b 968 885 876 952 928 922 l 847 754 b 742 825 822 782 787 806 b 596 854 697 844 649 854 b 455 826 544 854 497 845 b 347 750 413 808 377 782 b 278 636 318 718 295 680 b 254 494 262 593 254 545 b 278 349 254 442 262 393 b 348 235 295 305 318 267 b 458 159 378 202 415 177 b 604 132 501 141 550 132 b 800 167 679 132 744 144 l 800 417 l 593 417 l 593 561 l 969 561 l 969 51 m 683 -62 l 572 -333 l 446 -333 l 536 -62 "},"ģ":{"ha":878,"x_min":0,"x_max":0,"o":"m 778 60 b 756 -103 778 0 770 -55 b 687 -227 741 -152 718 -193 b 569 -306 656 -261 617 -287 b 401 -333 522 -324 466 -333 b 316 -326 375 -333 346 -331 b 227 -306 286 -322 256 -315 b 143 -271 198 -296 170 -285 b 71 -224 116 -257 92 -241 l 167 -94 b 276 -165 199 -125 236 -148 b 400 -189 317 -181 358 -189 b 501 -172 440 -189 473 -183 b 566 -124 528 -160 550 -144 b 601 -51 582 -103 594 -79 b 611 40 608 -24 611 7 l 611 89 l 608 89 b 516 15 584 56 553 32 b 390 -11 478 -3 437 -11 b 254 17 340 -11 295 -2 b 151 92 213 35 179 60 b 85 202 122 123 100 160 b 61 336 69 244 61 289 b 84 472 61 384 69 430 b 149 583 99 515 121 552 b 252 658 178 615 212 640 b 388 686 292 677 338 686 b 519 657 435 686 479 676 b 617 567 560 638 593 607 l 619 567 l 619 667 l 778 667 m 422 550 b 341 533 392 550 365 544 b 281 488 317 522 297 507 b 244 421 265 469 253 447 b 231 338 235 395 231 367 b 244 260 231 311 235 285 b 281 192 253 235 265 212 b 341 144 297 172 317 156 b 421 126 365 132 391 126 b 503 144 451 126 479 132 b 566 190 528 155 549 171 b 606 258 583 210 596 232 b 619 338 615 283 619 310 b 606 419 619 366 615 394 b 566 488 596 445 583 468 b 504 533 549 507 528 522 b 422 550 480 544 453 550 m 318 783 l 429 1054 l 556 1054 l 465 783 "},"Ĥ":{"ha":1026,"x_min":0,"x_max":0,"o":"m 283 983 l 283 586 l 743 586 l 743 983 l 918 983 l 918 0 l 743 0 l 743 436 l 283 436 l 283 0 l 108 0 l 108 983 m 514 1186 l 418 1061 l 263 1061 l 422 1261 l 610 1261 l 768 1061 l 610 1061 "},"ĥ":{"ha":811,"x_min":0,"x_max":0,"o":"m 471 686 b 583 663 514 686 552 678 b 659 603 614 648 639 628 b 703 517 679 578 694 549 b 717 417 712 484 717 451 l 717 0 l 550 0 l 550 367 b 546 427 550 386 549 406 b 528 484 543 448 537 467 b 491 526 520 501 507 515 b 426 543 475 538 453 543 b 357 528 400 543 376 538 b 308 487 338 518 321 504 b 279 429 295 470 286 450 b 269 364 273 408 269 386 l 269 0 l 103 0 l 103 1050 l 269 1050 l 269 574 l 272 574 b 301 615 279 588 288 601 b 344 651 313 628 328 640 b 401 676 361 661 380 670 b 471 686 423 683 446 686 m 407 1231 l 311 1106 l 156 1106 l 315 1306 l 503 1306 l 661 1106 l 503 1106 "},"Ħ":{"ha":1026,"x_min":0,"x_max":0,"o":"m 283 983 l 283 799 l 743 799 l 743 983 l 918 983 l 918 0 l 743 0 l 743 436 l 283 436 l 283 0 l 108 0 l 108 983 m 743 694 l 283 694 l 283 586 l 743 586 "},"ħ":{"ha":811,"x_min":0,"x_max":0,"o":"m 269 792 l 269 574 l 272 574 b 301 615 279 588 288 601 b 344 651 313 628 328 640 b 401 676 361 661 380 670 b 471 686 423 683 446 686 b 583 663 514 686 552 678 b 659 603 614 648 639 628 b 703 517 679 578 694 549 b 717 417 712 484 717 451 l 717 0 l 550 0 l 550 367 b 546 427 550 386 549 406 b 528 484 543 448 537 467 b 491 526 520 501 507 515 b 426 543 475 538 453 543 b 357 528 400 543 376 538 b 308 487 338 518 321 504 b 279 429 295 470 286 450 b 269 364 273 408 269 386 l 269 0 l 103 0 l 103 792 l 28 792 l 28 896 l 103 896 l 103 1050 l 269 1050 l 269 896 l 506 896 l 506 792 "},"Ĩ":{"ha":392,"x_min":0,"x_max":0,"o":"m 283 983 l 283 0 l 108 0 l 108 983 m -60 1067 b -44 1132 -56 1089 -51 1111 b -15 1188 -37 1153 -27 1172 b 30 1228 -3 1204 12 1218 b 96 1243 48 1238 70 1243 b 152 1236 114 1243 133 1241 b 206 1218 171 1231 189 1225 b 256 1199 224 1211 241 1204 b 296 1192 272 1194 285 1192 b 338 1209 314 1192 328 1197 b 360 1250 348 1221 355 1234 l 451 1250 b 435 1185 448 1228 442 1206 b 407 1128 428 1163 419 1145 b 362 1089 395 1112 380 1099 b 296 1074 344 1079 322 1074 b 238 1082 276 1074 257 1076 b 182 1101 218 1088 200 1094 b 135 1119 165 1109 150 1115 b 96 1126 120 1124 107 1126 b 53 1108 77 1126 63 1120 b 32 1067 44 1096 37 1082 l -60 1067 "},"ĩ":{"ha":372,"x_min":0,"x_max":0,"o":"m 269 667 l 269 0 l 103 0 l 103 667 m -67 789 b -51 854 -63 811 -58 833 b -22 910 -44 875 -34 894 b 23 950 -10 927 5 940 b 89 965 41 960 63 965 b 145 958 107 965 126 963 b 199 940 164 954 182 948 b 249 922 217 933 234 927 b 289 914 265 916 278 914 b 331 931 307 914 322 920 b 353 972 341 943 348 956 l 444 972 b 428 907 441 950 435 928 b 400 851 422 886 412 867 b 355 811 388 834 373 821 b 289 796 337 801 315 796 b 231 804 269 796 250 799 b 175 824 211 810 193 816 b 128 842 158 831 143 837 b 89 849 113 846 100 849 b 47 831 70 849 56 843 b 25 789 37 819 30 805 l -67 789 "},"Ī":{"ha":392,"x_min":0,"x_max":0,"o":"m 283 983 l 283 0 l 108 0 l 108 983 m -26 1104 l -26 1213 l 418 1213 l 418 1104 "},"ī":{"ha":372,"x_min":0,"x_max":0,"o":"m 269 667 l 269 0 l 103 0 l 103 667 m -33 826 l -33 935 l 411 935 l 411 826 "},"Į":{"ha":392,"x_min":0,"x_max":0,"o":"m 283 983 l 283 0 l 265 0 b 231 -35 254 -10 243 -22 b 197 -78 219 -49 207 -63 b 170 -125 186 -94 177 -109 b 160 -169 163 -141 160 -156 b 178 -215 160 -187 166 -202 b 224 -233 191 -227 206 -233 b 263 -225 237 -233 250 -231 b 299 -204 277 -219 288 -212 l 333 -272 b 269 -310 314 -288 292 -301 b 194 -325 245 -320 220 -325 b 141 -317 176 -325 158 -322 b 95 -294 124 -312 109 -304 b 63 -255 82 -283 71 -270 b 51 -201 55 -240 51 -222 b 63 -145 51 -183 55 -164 b 94 -90 71 -126 81 -108 b 135 -41 106 -73 120 -56 b 179 0 150 -26 164 -12 l 108 0 l 108 983 "},"į":{"ha":372,"x_min":0,"x_max":0,"o":"m 269 667 l 269 0 l 243 0 b 208 -35 232 -10 220 -22 b 174 -78 196 -49 185 -63 b 148 -125 164 -94 155 -109 b 138 -169 141 -141 138 -156 b 156 -215 138 -187 144 -202 b 201 -233 169 -227 184 -233 b 241 -225 214 -233 228 -231 b 276 -204 254 -219 266 -212 l 311 -272 b 247 -310 292 -288 270 -301 b 172 -325 223 -320 198 -325 b 119 -317 154 -325 136 -322 b 73 -294 102 -312 86 -304 b 41 -255 59 -283 49 -270 b 29 -201 33 -240 29 -222 b 41 -145 29 -183 33 -164 b 72 -90 49 -126 59 -108 b 113 -41 84 -73 98 -56 b 157 0 127 -26 142 -12 l 103 0 l 103 667 m 79 893 b 109 963 79 920 89 943 b 185 993 129 983 154 993 b 262 965 215 993 241 984 b 293 893 283 946 293 922 b 262 822 293 864 283 841 b 185 793 241 803 215 793 b 109 823 154 793 129 803 b 79 893 89 843 79 866 "},"İ":{"ha":392,"x_min":0,"x_max":0,"o":"m 283 983 l 283 0 l 108 0 l 108 983 m 88 1171 b 117 1241 88 1198 97 1221 b 193 1271 137 1261 163 1271 b 270 1242 224 1271 249 1261 b 301 1171 291 1223 301 1200 b 270 1099 301 1142 291 1118 b 193 1071 249 1080 224 1071 b 117 1101 163 1071 137 1081 b 88 1171 97 1121 88 1144 "},"ı":{"ha":372,"x_min":0,"x_max":0,"o":"m 269 667 l 269 0 l 103 0 l 103 667 "},"Ĳ":{"ha":1069,"x_min":0,"x_max":0,"o":"m 283 983 l 283 0 l 108 0 l 108 983 m 969 318 b 958 204 969 282 966 244 b 914 93 950 164 935 127 b 824 8 893 59 863 31 b 674 -25 785 -14 735 -25 b 483 35 594 -25 530 -5 b 385 192 435 75 402 127 l 546 238 b 592 160 554 205 569 179 b 671 132 614 141 640 132 b 733 146 696 132 716 137 b 770 185 749 155 761 168 b 789 247 779 203 785 223 b 794 324 793 270 794 296 l 794 983 l 969 983 l 969 318 "},"ĳ":{"ha":744,"x_min":0,"x_max":0,"o":"m 269 667 l 269 0 l 103 0 l 103 667 m 79 893 b 109 963 79 920 89 943 b 185 993 129 983 154 993 b 262 965 215 993 241 984 b 293 893 283 946 293 922 b 262 822 293 864 283 841 b 185 793 241 803 215 793 b 109 823 154 793 129 803 b 79 893 89 843 79 866 m 642 -40 b 632 -153 642 -80 638 -118 b 595 -247 625 -189 613 -220 b 522 -310 577 -273 553 -294 b 400 -333 491 -325 450 -333 b 358 -331 386 -333 372 -332 b 325 -325 344 -329 333 -327 l 339 -183 b 363 -187 346 -185 354 -187 b 385 -189 371 -188 378 -189 b 432 -178 404 -189 420 -185 b 460 -147 444 -170 453 -160 b 472 -102 466 -134 470 -119 b 475 -47 474 -85 475 -67 l 475 667 l 642 667 m 451 893 b 481 963 451 920 461 943 b 557 993 501 983 526 993 b 634 965 588 993 613 984 b 665 893 655 946 665 922 b 634 822 665 864 655 841 b 557 793 613 803 588 793 b 481 823 526 793 501 803 b 451 893 461 843 451 866 "},"Ĵ":{"ha":692,"x_min":0,"x_max":0,"o":"m 592 318 b 580 204 592 282 588 244 b 536 93 572 164 557 127 b 446 8 515 59 485 31 b 296 -25 407 -14 357 -25 b 105 35 216 -25 153 -5 b 7 192 57 75 25 127 l 168 238 b 214 160 176 205 192 179 b 293 132 236 141 263 132 b 355 146 318 132 339 137 b 392 185 371 155 384 168 b 411 247 401 203 407 223 b 417 324 415 270 417 296 l 417 983 l 592 983 l 592 318 m 501 1186 l 406 1061 l 250 1061 l 410 1261 l 597 1261 l 756 1061 l 597 1061 "},"ĵ":{"ha":372,"x_min":0,"x_max":0,"o":"m 269 -40 b 260 -153 269 -80 266 -118 b 223 -247 253 -189 241 -220 b 149 -310 205 -273 180 -294 b 28 -333 118 -325 78 -333 b -14 -331 14 -333 0 -332 b -47 -325 -28 -329 -39 -327 l -33 -183 b -10 -187 -26 -185 -18 -187 b 13 -189 -1 -188 6 -189 b 60 -178 32 -189 48 -185 b 88 -147 72 -170 81 -160 b 100 -102 94 -134 98 -119 b 103 -47 102 -85 103 -67 l 103 667 l 269 667 m 185 908 l 89 783 l -67 783 l 93 983 l 281 983 l 439 783 l 281 783 "},"Ķ":{"ha":957,"x_min":0,"x_max":0,"o":"m 283 983 l 283 558 l 288 558 l 699 983 l 935 983 l 475 529 l 965 0 l 719 0 l 288 493 l 283 493 l 283 0 l 108 0 l 108 983 m 583 -62 l 472 -333 l 346 -333 l 436 -62 "},"ķ":{"ha":754,"x_min":0,"x_max":0,"o":"m 269 1050 l 269 386 l 274 386 l 526 667 l 740 667 l 451 365 l 758 0 l 538 0 l 274 342 l 269 342 l 269 0 l 103 0 l 103 1050 m 489 -62 l 378 -333 l 251 -333 l 342 -62 "},"Ĺ":{"ha":710,"x_min":0,"x_max":0,"o":"m 283 983 l 283 156 l 701 156 l 701 0 l 108 0 l 108 983 m 456 1261 l 260 1061 l 129 1061 l 267 1261 "},"ĺ":{"ha":372,"x_min":0,"x_max":0,"o":"m 269 1050 l 269 0 l 103 0 l 103 1050 m 429 1300 l 233 1100 l 103 1100 l 240 1300 "},"Ļ":{"ha":710,"x_min":0,"x_max":0,"o":"m 283 983 l 283 156 l 701 156 l 701 0 l 108 0 l 108 983 m 497 -62 l 386 -333 l 260 -333 l 350 -62 "},"ļ":{"ha":372,"x_min":0,"x_max":0,"o":"m 269 1050 l 269 0 l 103 0 l 103 1050 m 278 -62 l 167 -333 l 40 -333 l 131 -62 "},"Ľ":{"ha":710,"x_min":0,"x_max":0,"o":"m 283 983 l 283 156 l 701 156 l 701 0 l 108 0 l 108 983 m 607 983 l 496 713 l 369 713 l 460 983 "},"ľ":{"ha":372,"x_min":0,"x_max":0,"o":"m 269 1050 l 269 0 l 103 0 l 103 1050 m 542 983 l 431 713 l 304 713 l 394 983 "},"Ŀ":{"ha":710,"x_min":0,"x_max":0,"o":"m 283 983 l 283 156 l 701 156 l 701 0 l 108 0 l 108 983 m 440 476 b 470 547 440 503 450 527 b 546 576 490 566 515 576 b 623 548 576 576 602 567 b 654 476 644 529 654 505 b 623 405 654 448 644 424 b 546 376 602 386 576 376 b 470 406 515 376 490 386 b 440 476 450 426 440 450 "},"ŀ":{"ha":543,"x_min":0,"x_max":0,"o":"m 269 1050 l 269 0 l 103 0 l 103 1050 m 349 476 b 378 547 349 503 359 527 b 454 576 398 566 424 576 b 531 548 485 576 510 567 b 563 476 552 529 563 505 b 531 405 563 448 552 424 b 454 376 510 386 485 376 b 378 406 424 376 398 386 b 349 476 359 426 349 450 "},"Ł":{"ha":710,"x_min":0,"x_max":0,"o":"m 11 193 l 11 346 l 108 432 l 108 983 l 283 983 l 283 567 l 569 818 l 569 667 l 283 414 l 283 156 l 701 156 l 701 0 l 108 0 l 108 279 "},"ł":{"ha":372,"x_min":0,"x_max":0,"o":"m 7 318 l 7 469 l 103 565 l 103 1050 l 269 1050 l 269 696 l 365 792 l 365 643 l 269 549 l 269 0 l 103 0 l 103 414 "},"Ń":{"ha":1083,"x_min":0,"x_max":0,"o":"m 340 983 l 797 247 l 800 247 l 800 983 l 975 983 l 975 0 l 753 0 l 286 760 l 283 760 l 283 0 l 108 0 l 108 983 m 756 1261 l 560 1061 l 429 1061 l 567 1261 "},"ń":{"ha":808,"x_min":0,"x_max":0,"o":"m 258 667 l 258 560 l 261 560 b 338 648 276 593 302 622 b 468 686 375 673 418 686 b 580 663 512 686 549 678 b 656 603 611 648 636 628 b 700 517 676 578 691 549 b 714 417 709 484 714 451 l 714 0 l 547 0 l 547 369 b 543 431 547 389 546 409 b 525 488 540 452 534 471 b 487 531 516 505 503 519 b 422 547 471 542 449 547 b 353 531 395 547 372 542 b 305 490 333 521 317 507 b 276 433 292 474 283 454 b 267 367 270 411 267 389 l 267 0 l 100 0 l 100 667 m 628 983 l 432 783 l 301 783 l 439 983 "},"Ņ":{"ha":1083,"x_min":0,"x_max":0,"o":"m 340 983 l 797 247 l 800 247 l 800 983 l 975 983 l 975 0 l 753 0 l 286 760 l 283 760 l 283 0 l 108 0 l 108 983 m 639 -62 l 528 -333 l 401 -333 l 492 -62 "},"ņ":{"ha":808,"x_min":0,"x_max":0,"o":"m 258 667 l 258 560 l 261 560 b 338 648 276 593 302 622 b 468 686 375 673 418 686 b 580 663 512 686 549 678 b 656 603 611 648 636 628 b 700 517 676 578 691 549 b 714 417 709 484 714 451 l 714 0 l 547 0 l 547 369 b 543 431 547 389 546 409 b 525 488 540 452 534 471 b 487 531 516 505 503 519 b 422 547 471 542 449 547 b 353 531 395 547 372 542 b 305 490 333 521 317 507 b 276 433 292 474 283 454 b 267 367 270 411 267 389 l 267 0 l 100 0 l 100 667 m 500 -62 l 389 -333 l 263 -333 l 353 -62 "},"Ň":{"ha":1083,"x_min":0,"x_max":0,"o":"m 340 983 l 797 247 l 800 247 l 800 983 l 975 983 l 975 0 l 753 0 l 286 760 l 283 760 l 283 0 l 108 0 l 108 983 m 543 1136 l 639 1261 l 792 1261 l 632 1061 l 447 1061 l 289 1261 l 447 1261 "},"ň":{"ha":808,"x_min":0,"x_max":0,"o":"m 258 667 l 258 560 l 261 560 b 338 648 276 593 302 622 b 468 686 375 673 418 686 b 580 663 512 686 549 678 b 656 603 611 648 636 628 b 700 517 676 578 691 549 b 714 417 709 484 714 451 l 714 0 l 547 0 l 547 369 b 543 431 547 389 546 409 b 525 488 540 452 534 471 b 487 531 516 505 503 519 b 422 547 471 542 449 547 b 353 531 395 547 372 542 b 305 490 333 521 317 507 b 276 433 292 474 283 454 b 267 367 270 411 267 389 l 267 0 l 100 0 l 100 667 m 403 858 l 499 983 l 651 983 l 492 783 l 307 783 l 149 983 l 307 983 "},"ŉ":{"ha":864,"x_min":0,"x_max":0,"o":"m 314 667 l 314 560 l 317 560 b 394 648 331 593 357 622 b 524 686 430 673 474 686 b 635 663 567 686 604 678 b 712 603 666 648 692 628 b 756 517 732 578 746 549 b 769 417 765 484 769 451 l 769 0 l 603 0 l 603 369 b 599 431 603 389 601 409 b 581 488 596 452 590 471 b 542 531 571 505 559 519 b 478 547 526 542 505 547 b 408 531 451 547 428 542 b 360 490 389 521 373 507 b 332 433 348 474 338 454 b 322 367 325 411 322 389 l 322 0 l 156 0 l 156 667 m 206 983 l 94 713 l -32 713 l 58 983 "},"Ō":{"ha":1179,"x_min":0,"x_max":0,"o":"m 61 494 b 101 708 61 573 74 644 b 210 869 127 771 164 825 b 377 972 257 914 313 948 b 588 1008 441 996 512 1008 b 800 972 664 1008 735 996 b 968 869 865 948 921 914 b 1078 708 1015 825 1052 771 b 1118 494 1105 644 1118 573 b 1078 284 1118 418 1105 347 b 968 120 1052 221 1015 166 b 800 13 921 74 865 39 b 588 -25 735 -12 664 -25 b 377 13 512 -25 441 -12 b 210 120 313 39 257 74 b 101 284 164 166 127 221 b 61 494 74 347 61 418 m 251 494 b 276 349 251 442 259 393 b 345 235 292 305 315 267 b 452 159 375 202 411 177 b 589 132 493 141 539 132 b 726 159 639 132 685 141 b 834 235 768 177 804 202 b 903 349 864 267 887 305 b 928 494 920 393 928 442 b 903 636 928 545 920 593 b 835 750 887 680 864 718 b 728 826 805 782 769 808 b 589 854 686 845 640 854 b 451 826 538 854 492 845 b 344 750 409 808 374 782 b 276 636 315 718 292 680 b 251 494 259 593 251 545 m 368 1104 l 368 1213 l 813 1213 l 813 1104 "},"ō":{"ha":847,"x_min":0,"x_max":0,"o":"m 61 336 b 90 480 61 389 71 437 b 167 590 109 523 134 560 b 282 661 199 621 238 644 b 424 686 326 678 374 686 b 565 661 474 686 521 678 b 681 590 610 644 648 621 b 758 480 713 560 739 523 b 786 336 777 437 786 389 b 758 192 786 283 777 235 b 681 80 739 148 713 111 b 565 7 648 49 610 25 b 424 -19 521 -11 474 -19 b 282 7 374 -19 326 -11 b 167 80 238 25 199 49 b 90 192 134 111 109 148 b 61 336 71 235 61 283 m 231 336 b 242 258 231 310 234 284 b 278 189 250 232 262 209 b 338 139 294 169 313 152 b 424 119 362 126 390 119 b 510 139 457 119 486 126 b 569 189 534 152 554 169 b 605 258 585 209 597 232 b 617 336 613 284 617 310 b 605 413 617 362 613 388 b 569 482 597 439 585 462 b 510 531 554 502 534 519 b 424 550 486 544 457 550 b 338 531 390 550 362 544 b 278 482 313 519 294 502 b 242 413 262 462 250 439 b 231 336 234 388 231 362 m 201 826 l 201 935 l 646 935 l 646 826 "},"Ŏ":{"ha":1179,"x_min":0,"x_max":0,"o":"m 61 494 b 101 708 61 573 74 644 b 210 869 127 771 164 825 b 377 972 257 914 313 948 b 588 1008 441 996 512 1008 b 800 972 664 1008 735 996 b 968 869 865 948 921 914 b 1078 708 1015 825 1052 771 b 1118 494 1105 644 1118 573 b 1078 284 1118 418 1105 347 b 968 120 1052 221 1015 166 b 800 13 921 74 865 39 b 588 -25 735 -12 664 -25 b 377 13 512 -25 441 -12 b 210 120 313 39 257 74 b 101 284 164 166 127 221 b 61 494 74 347 61 418 m 251 494 b 276 349 251 442 259 393 b 345 235 292 305 315 267 b 452 159 375 202 411 177 b 589 132 493 141 539 132 b 726 159 639 132 685 141 b 834 235 768 177 804 202 b 903 349 864 267 887 305 b 928 494 920 393 928 442 b 903 636 928 545 920 593 b 835 750 887 680 864 718 b 728 826 805 782 769 808 b 589 854 686 845 640 854 b 451 826 538 854 492 845 b 344 750 409 808 374 782 b 276 636 315 718 292 680 b 251 494 259 593 251 545 m 447 1261 b 497 1189 454 1226 470 1202 b 590 1169 524 1176 555 1169 b 685 1186 630 1169 662 1175 b 735 1261 708 1197 725 1222 l 826 1261 b 752 1110 819 1193 794 1142 b 589 1061 710 1077 656 1061 b 425 1109 522 1061 468 1077 b 354 1261 382 1141 359 1192 l 447 1261 "},"ŏ":{"ha":847,"x_min":0,"x_max":0,"o":"m 61 336 b 90 480 61 389 71 437 b 167 590 109 523 134 560 b 282 661 199 621 238 644 b 424 686 326 678 374 686 b 565 661 474 686 521 678 b 681 590 610 644 648 621 b 758 480 713 560 739 523 b 786 336 777 437 786 389 b 758 192 786 283 777 235 b 681 80 739 148 713 111 b 565 7 648 49 610 25 b 424 -19 521 -11 474 -19 b 282 7 374 -19 326 -11 b 167 80 238 25 199 49 b 90 192 134 111 109 148 b 61 336 71 235 61 283 m 231 336 b 242 258 231 310 234 284 b 278 189 250 232 262 209 b 338 139 294 169 313 152 b 424 119 362 126 390 119 b 510 139 457 119 486 126 b 569 189 534 152 554 169 b 605 258 585 209 597 232 b 617 336 613 284 617 310 b 605 413 617 362 613 388 b 569 482 597 439 585 462 b 510 531 554 502 534 519 b 424 550 486 544 457 550 b 338 531 390 550 362 544 b 278 482 313 519 294 502 b 242 413 262 462 250 439 b 231 336 234 388 231 362 m 281 983 b 331 911 287 948 304 924 b 424 892 357 898 388 892 b 518 908 463 892 495 897 b 568 983 541 919 558 944 l 660 983 b 585 832 652 915 628 864 b 422 783 543 800 489 783 b 258 831 356 783 301 799 b 188 983 216 863 192 914 l 281 983 "},"Ő":{"ha":1179,"x_min":0,"x_max":0,"o":"m 61 494 b 101 708 61 573 74 644 b 210 869 127 771 164 825 b 377 972 257 914 313 948 b 588 1008 441 996 512 1008 b 800 972 664 1008 735 996 b 968 869 865 948 921 914 b 1078 708 1015 825 1052 771 b 1118 494 1105 644 1118 573 b 1078 284 1118 418 1105 347 b 968 120 1052 221 1015 166 b 800 13 921 74 865 39 b 588 -25 735 -12 664 -25 b 377 13 512 -25 441 -12 b 210 120 313 39 257 74 b 101 284 164 166 127 221 b 61 494 74 347 61 418 m 251 494 b 276 349 251 442 259 393 b 345 235 292 305 315 267 b 452 159 375 202 411 177 b 589 132 493 141 539 132 b 726 159 639 132 685 141 b 834 235 768 177 804 202 b 903 349 864 267 887 305 b 928 494 920 393 928 442 b 903 636 928 545 920 593 b 835 750 887 680 864 718 b 728 826 805 782 769 808 b 589 854 686 845 640 854 b 451 826 538 854 492 845 b 344 750 409 808 374 782 b 276 636 315 718 292 680 b 251 494 259 593 251 545 m 704 1261 l 508 1061 l 378 1061 l 515 1261 m 989 1261 l 793 1061 l 663 1061 l 800 1261 "},"ő":{"ha":847,"x_min":0,"x_max":0,"o":"m 61 336 b 90 480 61 389 71 437 b 167 590 109 523 134 560 b 282 661 199 621 238 644 b 424 686 326 678 374 686 b 565 661 474 686 521 678 b 681 590 610 644 648 621 b 758 480 713 560 739 523 b 786 336 777 437 786 389 b 758 192 786 283 777 235 b 681 80 739 148 713 111 b 565 7 648 49 610 25 b 424 -19 521 -11 474 -19 b 282 7 374 -19 326 -11 b 167 80 238 25 199 49 b 90 192 134 111 109 148 b 61 336 71 235 61 283 m 231 336 b 242 258 231 310 234 284 b 278 189 250 232 262 209 b 338 139 294 169 313 152 b 424 119 362 126 390 119 b 510 139 457 119 486 126 b 569 189 534 152 554 169 b 605 258 585 209 597 232 b 617 336 613 284 617 310 b 605 413 617 362 613 388 b 569 482 597 439 585 462 b 510 531 554 502 534 519 b 424 550 486 544 457 550 b 338 531 390 550 362 544 b 278 482 313 519 294 502 b 242 413 262 462 250 439 b 231 336 234 388 231 362 m 547 983 l 351 783 l 221 783 l 358 983 m 832 983 l 636 783 l 506 783 l 643 983 "},"Ŕ":{"ha":874,"x_min":0,"x_max":0,"o":"m 450 983 b 585 969 496 983 541 978 b 701 921 628 959 667 943 b 782 833 734 899 762 869 b 813 701 802 797 813 753 b 752 527 813 630 792 572 b 588 436 712 482 657 452 l 850 0 l 639 0 l 411 417 l 283 417 l 283 0 l 108 0 l 108 983 m 426 560 b 501 565 451 560 476 562 b 569 586 526 569 549 576 b 618 630 589 596 605 611 b 638 703 631 649 638 673 b 619 769 638 730 631 752 b 574 810 607 786 592 800 b 510 831 555 820 534 827 b 442 836 487 834 464 836 l 283 836 l 283 560 l 426 560 m 638 1261 l 442 1061 l 311 1061 l 449 1261 "},"ŕ":{"ha":506,"x_min":0,"x_max":0,"o":"m 260 667 l 260 556 l 263 556 b 340 650 281 594 307 626 b 457 686 374 674 413 686 b 478 685 463 686 470 686 b 497 682 485 685 492 684 l 497 529 b 469 535 486 532 477 534 b 446 536 461 536 453 536 b 354 515 408 536 377 529 b 300 465 331 501 313 485 b 274 406 287 446 278 426 b 267 357 269 385 267 369 l 267 0 l 100 0 l 100 667 m 469 983 l 274 783 l 143 783 l 281 983 "},"Ŗ":{"ha":874,"x_min":0,"x_max":0,"o":"m 450 983 b 585 969 496 983 541 978 b 701 921 628 959 667 943 b 782 833 734 899 762 869 b 813 701 802 797 813 753 b 752 527 813 630 792 572 b 588 436 712 482 657 452 l 850 0 l 639 0 l 411 417 l 283 417 l 283 0 l 108 0 l 108 983 m 426 560 b 501 565 451 560 476 562 b 569 586 526 569 549 576 b 618 630 589 596 605 611 b 638 703 631 649 638 673 b 619 769 638 730 631 752 b 574 810 607 786 592 800 b 510 831 555 820 534 827 b 442 836 487 834 464 836 l 283 836 l 283 560 l 426 560 m 532 -62 l 421 -333 l 294 -333 l 385 -62 "},"ŗ":{"ha":506,"x_min":0,"x_max":0,"o":"m 260 667 l 260 556 l 263 556 b 340 650 281 594 307 626 b 457 686 374 674 413 686 b 478 685 463 686 470 686 b 497 682 485 685 492 684 l 497 529 b 469 535 486 532 477 534 b 446 536 461 536 453 536 b 354 515 408 536 377 529 b 300 465 331 501 313 485 b 274 406 287 446 278 426 b 267 357 269 385 267 369 l 267 0 l 100 0 l 100 667 m 276 -62 l 165 -333 l 39 -333 l 129 -62 "},"Ř":{"ha":874,"x_min":0,"x_max":0,"o":"m 450 983 b 585 969 496 983 541 978 b 701 921 628 959 667 943 b 782 833 734 899 762 869 b 813 701 802 797 813 753 b 752 527 813 630 792 572 b 588 436 712 482 657 452 l 850 0 l 639 0 l 411 417 l 283 417 l 283 0 l 108 0 l 108 983 m 426 560 b 501 565 451 560 476 562 b 569 586 526 569 549 576 b 618 630 589 596 605 611 b 638 703 631 649 638 673 b 619 769 638 730 631 752 b 574 810 607 786 592 800 b 510 831 555 820 534 827 b 442 836 487 834 464 836 l 283 836 l 283 560 l 426 560 m 426 1136 l 522 1261 l 675 1261 l 515 1061 l 331 1061 l 172 1261 l 331 1261 "},"ř":{"ha":506,"x_min":0,"x_max":0,"o":"m 260 667 l 260 556 l 263 556 b 340 650 281 594 307 626 b 457 686 374 674 413 686 b 478 685 463 686 470 686 b 497 682 485 685 492 684 l 497 529 b 469 535 486 532 477 534 b 446 536 461 536 453 536 b 354 515 408 536 377 529 b 300 465 331 501 313 485 b 274 406 287 446 278 426 b 267 357 269 385 267 369 l 267 0 l 100 0 l 100 667 m 294 858 l 390 983 l 543 983 l 383 783 l 199 783 l 40 983 l 199 983 "},"Ś":{"ha":797,"x_min":0,"x_max":0,"o":"m 610 778 b 531 838 591 802 565 822 b 429 863 497 854 463 863 b 368 855 409 863 388 860 b 313 831 348 850 329 842 b 272 790 296 821 282 807 b 256 728 261 772 256 752 b 269 671 256 706 260 687 b 308 631 279 655 291 642 b 367 601 324 619 344 610 b 443 576 390 593 415 585 b 541 542 475 566 507 555 b 634 490 575 529 606 512 b 703 410 662 469 685 442 b 731 289 722 377 731 337 b 701 151 731 236 721 190 b 624 53 682 111 656 79 b 510 -6 591 27 553 7 b 372 -25 466 -19 420 -25 b 185 10 308 -25 246 -13 b 35 115 124 34 74 69 l 160 232 b 256 153 184 199 216 172 b 375 124 297 133 336 124 b 438 131 395 124 416 126 b 495 157 459 136 478 145 b 537 202 512 169 526 184 b 553 269 547 220 553 243 b 535 334 553 295 547 317 b 486 378 523 351 506 366 b 414 411 466 391 442 402 l 326 440 b 238 474 297 450 267 461 b 158 525 208 487 181 504 b 100 603 134 546 115 572 b 78 719 85 634 78 673 b 109 849 78 769 88 813 b 191 938 130 885 157 915 b 306 991 225 962 263 979 b 438 1008 349 1003 393 1008 b 590 982 488 1008 538 1000 b 724 903 641 964 686 938 l 610 778 m 650 1261 l 454 1061 l 324 1061 l 461 1261 "},"ś":{"ha":617,"x_min":0,"x_max":0,"o":"m 465 489 b 404 540 450 508 430 525 b 319 561 378 554 350 561 b 246 544 293 561 268 556 b 213 489 224 533 213 515 b 249 434 213 463 225 445 b 357 401 274 423 310 413 b 433 379 382 396 407 388 b 502 342 458 370 481 358 b 553 285 523 327 540 308 b 572 203 566 263 572 235 b 549 99 572 162 565 128 b 488 31 534 71 514 48 b 399 -8 463 13 433 0 b 294 -19 366 -16 331 -19 b 143 9 243 -19 192 -10 b 21 90 94 28 53 55 l 131 193 b 203 133 149 169 173 149 b 301 110 232 118 265 110 b 338 114 313 110 326 111 b 373 127 351 117 362 121 b 399 151 384 133 392 141 b 408 189 405 162 408 174 b 370 249 408 217 396 237 b 256 285 345 261 306 273 b 183 306 231 290 206 297 b 119 341 159 315 138 327 b 75 394 101 355 86 373 b 58 474 64 416 58 442 b 81 569 58 511 66 543 b 142 635 97 596 117 618 b 226 674 167 653 195 665 b 324 686 258 682 290 686 b 465 661 372 686 419 678 b 574 585 510 644 547 619 l 465 489 m 546 983 l 350 783 l 219 783 l 357 983 "},"Ŝ":{"ha":797,"x_min":0,"x_max":0,"o":"m 610 778 b 531 838 591 802 565 822 b 429 863 497 854 463 863 b 368 855 409 863 388 860 b 313 831 348 850 329 842 b 272 790 296 821 282 807 b 256 728 261 772 256 752 b 269 671 256 706 260 687 b 308 631 279 655 291 642 b 367 601 324 619 344 610 b 443 576 390 593 415 585 b 541 542 475 566 507 555 b 634 490 575 529 606 512 b 703 410 662 469 685 442 b 731 289 722 377 731 337 b 701 151 731 236 721 190 b 624 53 682 111 656 79 b 510 -6 591 27 553 7 b 372 -25 466 -19 420 -25 b 185 10 308 -25 246 -13 b 35 115 124 34 74 69 l 160 232 b 256 153 184 199 216 172 b 375 124 297 133 336 124 b 438 131 395 124 416 126 b 495 157 459 136 478 145 b 537 202 512 169 526 184 b 553 269 547 220 553 243 b 535 334 553 295 547 317 b 486 378 523 351 506 366 b 414 411 466 391 442 402 l 326 440 b 238 474 297 450 267 461 b 158 525 208 487 181 504 b 100 603 134 546 115 572 b 78 719 85 634 78 673 b 109 849 78 769 88 813 b 191 938 130 885 157 915 b 306 991 225 962 263 979 b 438 1008 349 1003 393 1008 b 590 982 488 1008 538 1000 b 724 903 641 964 686 938 l 610 778 m 432 1186 l 336 1061 l 181 1061 l 340 1261 l 528 1261 l 686 1061 l 528 1061 "},"ŝ":{"ha":617,"x_min":0,"x_max":0,"o":"m 465 489 b 404 540 450 508 430 525 b 319 561 378 554 350 561 b 246 544 293 561 268 556 b 213 489 224 533 213 515 b 249 434 213 463 225 445 b 357 401 274 423 310 413 b 433 379 382 396 407 388 b 502 342 458 370 481 358 b 553 285 523 327 540 308 b 572 203 566 263 572 235 b 549 99 572 162 565 128 b 488 31 534 71 514 48 b 399 -8 463 13 433 0 b 294 -19 366 -16 331 -19 b 143 9 243 -19 192 -10 b 21 90 94 28 53 55 l 131 193 b 203 133 149 169 173 149 b 301 110 232 118 265 110 b 338 114 313 110 326 111 b 373 127 351 117 362 121 b 399 151 384 133 392 141 b 408 189 405 162 408 174 b 370 249 408 217 396 237 b 256 285 345 261 306 273 b 183 306 231 290 206 297 b 119 341 159 315 138 327 b 75 394 101 355 86 373 b 58 474 64 416 58 442 b 81 569 58 511 66 543 b 142 635 97 596 117 618 b 226 674 167 653 195 665 b 324 686 258 682 290 686 b 465 661 372 686 419 678 b 574 585 510 644 547 619 l 465 489 m 326 908 l 231 783 l 75 783 l 235 983 l 422 983 l 581 783 l 422 783 "},"Ş":{"ha":797,"x_min":0,"x_max":0,"o":"m 610 778 b 531 838 591 802 565 822 b 429 863 497 854 463 863 b 368 855 409 863 388 860 b 313 831 348 850 329 842 b 272 790 296 821 282 807 b 256 728 261 772 256 752 b 269 671 256 706 260 687 b 308 631 279 655 291 642 b 367 601 324 619 344 610 b 443 576 390 593 415 585 b 541 542 475 566 507 555 b 634 490 575 529 606 512 b 703 410 662 469 685 442 b 731 289 722 377 731 337 b 706 160 731 240 722 197 b 639 66 690 123 668 91 b 539 6 610 41 577 20 b 417 -22 501 -9 460 -19 l 371 -89 b 385 -87 376 -88 381 -87 l 397 -87 b 449 -92 415 -87 432 -89 b 496 -110 466 -96 482 -101 b 530 -144 510 -118 521 -130 b 543 -203 539 -159 543 -179 b 525 -266 543 -228 537 -249 b 480 -306 513 -283 498 -297 b 419 -327 462 -316 441 -323 b 354 -333 396 -331 375 -333 b 272 -323 326 -333 299 -330 b 201 -297 244 -316 221 -307 l 233 -231 b 347 -258 269 -249 306 -258 b 372 -256 355 -258 363 -258 b 398 -248 381 -255 390 -252 b 418 -231 406 -244 413 -238 b 426 -201 424 -223 426 -213 b 419 -176 426 -191 424 -183 b 400 -161 414 -170 407 -165 b 376 -153 393 -157 385 -155 b 353 -151 368 -152 360 -151 b 326 -153 345 -151 337 -152 b 299 -160 316 -155 307 -157 l 267 -125 l 336 -24 b 168 18 278 -19 222 -5 b 35 115 114 41 70 74 l 160 232 b 256 153 184 199 216 172 b 375 124 297 133 336 124 b 438 131 395 124 416 126 b 495 157 459 136 478 145 b 537 202 512 169 526 184 b 553 269 547 220 553 243 b 535 334 553 295 547 317 b 486 378 523 351 506 366 b 414 411 466 391 442 402 l 326 440 b 238 474 297 450 267 461 b 158 525 208 487 181 504 b 100 603 134 546 115 572 b 78 719 85 634 78 673 b 109 849 78 769 88 813 b 191 938 130 885 157 915 b 306 991 225 962 263 979 b 438 1008 349 1003 393 1008 b 590 982 488 1008 538 1000 b 724 903 641 964 686 938 l 610 778 "},"ş":{"ha":617,"x_min":0,"x_max":0,"o":"m 465 489 b 404 540 450 508 430 525 b 319 561 378 554 350 561 b 246 544 293 561 268 556 b 213 489 224 533 213 515 b 249 434 213 463 225 445 b 357 401 274 423 310 413 b 433 379 382 396 407 388 b 502 342 458 370 481 358 b 553 285 523 327 540 308 b 572 203 566 263 572 235 b 553 108 572 166 566 134 b 502 42 541 81 524 59 b 426 1 480 24 455 10 b 335 -18 398 -9 367 -15 l 285 -89 b 299 -87 290 -88 295 -87 l 311 -87 b 363 -92 329 -87 346 -89 b 410 -110 380 -96 396 -101 b 444 -144 424 -118 435 -130 b 457 -203 453 -159 457 -179 b 439 -266 457 -228 451 -249 b 394 -306 427 -283 412 -297 b 333 -327 376 -316 355 -323 b 268 -333 310 -331 288 -333 b 185 -323 240 -333 213 -330 b 115 -297 158 -316 135 -307 l 147 -231 b 261 -258 182 -249 220 -258 b 286 -256 269 -258 277 -258 b 312 -248 295 -255 304 -252 b 332 -231 320 -244 326 -238 b 340 -201 338 -223 340 -213 b 333 -176 340 -191 338 -183 b 314 -161 328 -170 321 -165 b 290 -153 306 -157 299 -155 b 267 -151 282 -152 274 -151 b 240 -153 259 -151 250 -152 b 213 -160 230 -155 221 -157 l 181 -125 l 254 -17 b 124 17 209 -12 166 -1 b 21 90 83 34 49 59 l 131 193 b 203 133 149 169 173 149 b 301 110 232 118 265 110 b 338 114 313 110 326 111 b 373 127 351 117 362 121 b 399 151 384 133 392 141 b 408 189 405 162 408 174 b 370 249 408 217 396 237 b 256 285 345 261 306 273 b 183 306 231 290 206 297 b 119 341 159 315 138 327 b 75 394 101 355 86 373 b 58 474 64 416 58 442 b 81 569 58 511 66 543 b 142 635 97 596 117 618 b 226 674 167 653 195 665 b 324 686 258 682 290 686 b 465 661 372 686 419 678 b 574 585 510 644 547 619 l 465 489 "},"Ţ":{"ha":789,"x_min":0,"x_max":0,"o":"m 6 831 l 6 983 l 783 983 l 783 831 l 482 831 l 482 0 l 307 0 l 307 831 m 383 -89 b 398 -87 389 -88 394 -87 l 410 -87 b 462 -92 427 -87 445 -89 b 508 -110 479 -96 494 -101 b 542 -144 522 -118 534 -130 b 556 -203 551 -159 556 -179 b 538 -266 556 -228 550 -249 b 492 -306 525 -283 510 -297 b 431 -327 474 -316 454 -323 b 367 -333 409 -331 387 -333 b 284 -323 339 -333 311 -330 b 214 -297 257 -316 233 -307 l 246 -231 b 360 -258 281 -249 319 -258 b 385 -256 367 -258 375 -258 b 410 -248 394 -255 403 -252 b 431 -231 418 -244 425 -238 b 439 -201 436 -223 439 -213 b 431 -176 439 -191 436 -183 b 413 -161 426 -170 420 -165 b 389 -153 405 -157 397 -155 b 365 -151 381 -152 373 -151 b 339 -153 358 -151 349 -152 b 311 -160 329 -155 319 -157 l 279 -125 l 365 0 l 446 0 l 383 -89 "},"ţ":{"ha":472,"x_min":0,"x_max":0,"o":"m 4 667 l 121 667 l 121 860 l 285 860 l 285 667 l 451 667 l 451 533 l 285 533 l 285 224 b 301 150 285 194 290 169 b 372 121 311 131 335 121 b 408 124 383 121 395 122 b 443 135 421 127 433 130 l 449 4 b 396 -9 434 -1 416 -6 b 338 -14 375 -12 356 -14 b 229 5 293 -14 257 -8 b 163 56 201 17 179 34 b 130 131 147 78 136 103 b 121 222 124 159 121 190 l 121 533 l 4 533 m 304 -89 b 319 -87 310 -88 315 -87 l 331 -87 b 383 -92 348 -87 366 -89 b 429 -110 400 -96 415 -101 b 463 -144 443 -118 454 -130 b 476 -203 472 -159 476 -179 b 458 -266 476 -228 470 -249 b 413 -306 446 -283 431 -297 b 352 -327 395 -316 375 -323 b 288 -333 329 -331 308 -333 b 205 -323 260 -333 232 -330 b 135 -297 178 -316 154 -307 l 167 -231 b 281 -258 202 -249 240 -258 b 306 -256 288 -258 296 -258 b 331 -248 315 -255 323 -252 b 351 -231 339 -244 346 -238 b 360 -201 357 -223 360 -213 b 352 -176 360 -191 357 -183 b 333 -161 347 -170 341 -165 b 310 -153 326 -157 318 -155 b 286 -151 301 -152 294 -151 b 260 -153 279 -151 270 -152 b 232 -160 250 -155 240 -157 l 200 -125 l 286 0 l 367 0 l 304 -89 "},"Ť":{"ha":789,"x_min":0,"x_max":0,"o":"m 6 831 l 6 983 l 783 983 l 783 831 l 482 831 l 482 0 l 307 0 l 307 831 m 400 1136 l 496 1261 l 649 1261 l 489 1061 l 304 1061 l 146 1261 l 304 1261 "},"ť":{"ha":472,"x_min":0,"x_max":0,"o":"m 4 667 l 121 667 l 121 860 l 285 860 l 285 667 l 451 667 l 451 533 l 285 533 l 285 224 b 301 150 285 194 290 169 b 372 121 311 131 335 121 b 408 124 383 121 395 122 b 443 135 421 127 433 130 l 449 4 b 396 -9 434 -1 416 -6 b 338 -14 375 -12 356 -14 b 229 5 293 -14 257 -8 b 163 56 201 17 179 34 b 130 131 147 78 136 103 b 121 222 124 159 121 190 l 121 533 l 4 533 m 560 1015 l 449 744 l 322 744 l 413 1015 "},"Ŧ":{"ha":789,"x_min":0,"x_max":0,"o":"m 482 600 l 482 0 l 307 0 l 307 600 l 100 600 l 100 704 l 307 704 l 307 831 l 6 831 l 6 983 l 783 983 l 783 831 l 482 831 l 482 704 l 703 704 l 703 600 "},"ŧ":{"ha":472,"x_min":0,"x_max":0,"o":"m 285 304 l 285 224 b 301 150 285 194 290 169 b 372 121 311 131 335 121 b 408 124 383 121 395 122 b 443 135 421 127 433 130 l 449 4 b 396 -9 434 -1 416 -6 b 338 -14 375 -12 356 -14 b 229 5 293 -14 257 -8 b 163 56 201 17 179 34 b 130 131 147 78 136 103 b 121 222 124 159 121 190 l 121 304 l 17 304 l 17 408 l 121 408 l 121 533 l 4 533 l 4 667 l 121 667 l 121 860 l 285 860 l 285 667 l 451 667 l 451 533 l 285 533 l 285 408 l 424 408 l 424 304 "},"Ũ":{"ha":992,"x_min":0,"x_max":0,"o":"m 892 361 b 861 201 892 302 881 248 b 778 79 841 153 813 113 b 653 2 743 46 701 20 b 496 -25 605 -16 552 -25 b 339 2 439 -25 387 -16 b 213 79 291 20 249 46 b 130 201 178 113 150 153 b 100 361 110 248 100 302 l 100 983 l 275 983 l 275 368 b 286 283 275 339 279 311 b 323 207 294 254 306 229 b 391 153 340 185 363 167 b 496 132 419 139 454 132 b 601 153 538 132 572 139 b 669 207 629 167 652 185 b 706 283 686 229 698 254 b 717 368 713 311 717 339 l 717 983 l 892 983 l 892 361 m 246 1067 b 262 1132 250 1089 255 1111 b 290 1188 269 1153 278 1172 b 335 1228 302 1204 317 1218 b 401 1243 353 1238 375 1243 b 458 1236 420 1243 439 1241 b 511 1218 477 1231 494 1225 b 562 1199 530 1211 547 1204 b 601 1192 577 1194 590 1192 b 644 1209 620 1192 634 1197 b 665 1250 653 1221 661 1234 l 757 1250 b 741 1185 753 1228 748 1206 b 713 1128 734 1163 725 1145 b 667 1089 700 1112 685 1099 b 601 1074 649 1079 627 1074 b 543 1082 582 1074 563 1076 b 488 1101 524 1088 505 1094 b 440 1119 471 1109 455 1115 b 401 1126 425 1124 413 1126 b 359 1108 383 1126 369 1120 b 338 1067 349 1096 342 1082 l 246 1067 "},"ũ":{"ha":808,"x_min":0,"x_max":0,"o":"m 550 0 l 550 107 l 547 107 b 470 19 532 74 507 44 b 340 -19 434 -7 390 -19 b 228 3 297 -19 259 -12 b 152 64 197 19 172 39 b 108 150 132 89 118 118 b 94 250 99 182 94 216 l 94 667 l 261 667 l 261 297 b 265 236 261 278 263 257 b 283 178 268 215 274 196 b 322 136 293 161 305 147 b 386 119 338 125 359 119 b 455 135 412 119 435 125 b 503 176 475 146 491 160 b 532 234 516 193 525 212 b 542 300 538 256 542 278 l 542 667 l 708 667 l 708 0 m 149 789 b 165 854 152 811 158 833 b 193 910 172 875 181 894 b 238 950 205 927 220 940 b 304 965 256 960 278 965 b 360 958 323 965 341 963 b 414 940 379 954 397 948 b 465 922 432 933 449 927 b 504 914 480 916 493 914 b 547 931 523 914 537 920 b 568 972 556 943 563 956 l 660 972 b 644 907 656 950 651 928 b 615 851 637 886 627 867 b 570 811 603 834 588 821 b 504 796 552 801 530 796 b 446 804 485 796 465 799 b 390 824 426 810 408 816 b 343 842 374 831 358 837 b 304 849 328 846 315 849 b 262 831 286 849 272 843 b 240 789 252 819 245 805 l 149 789 "},"Ū":{"ha":992,"x_min":0,"x_max":0,"o":"m 892 361 b 861 201 892 302 881 248 b 778 79 841 153 813 113 b 653 2 743 46 701 20 b 496 -25 605 -16 552 -25 b 339 2 439 -25 387 -16 b 213 79 291 20 249 46 b 130 201 178 113 150 153 b 100 361 110 248 100 302 l 100 983 l 275 983 l 275 368 b 286 283 275 339 279 311 b 323 207 294 254 306 229 b 391 153 340 185 363 167 b 496 132 419 139 454 132 b 601 153 538 132 572 139 b 669 207 629 167 652 185 b 706 283 686 229 698 254 b 717 368 713 311 717 339 l 717 983 l 892 983 l 892 361 m 279 1104 l 279 1213 l 724 1213 l 724 1104 "},"ū":{"ha":808,"x_min":0,"x_max":0,"o":"m 550 0 l 550 107 l 547 107 b 470 19 532 74 507 44 b 340 -19 434 -7 390 -19 b 228 3 297 -19 259 -12 b 152 64 197 19 172 39 b 108 150 132 89 118 118 b 94 250 99 182 94 216 l 94 667 l 261 667 l 261 297 b 265 236 261 278 263 257 b 283 178 268 215 274 196 b 322 136 293 161 305 147 b 386 119 338 125 359 119 b 455 135 412 119 435 125 b 503 176 475 146 491 160 b 532 234 516 193 525 212 b 542 300 538 256 542 278 l 542 667 l 708 667 l 708 0 m 181 826 l 181 935 l 625 935 l 625 826 "},"Ŭ":{"ha":992,"x_min":0,"x_max":0,"o":"m 892 361 b 861 201 892 302 881 248 b 778 79 841 153 813 113 b 653 2 743 46 701 20 b 496 -25 605 -16 552 -25 b 339 2 439 -25 387 -16 b 213 79 291 20 249 46 b 130 201 178 113 150 153 b 100 361 110 248 100 302 l 100 983 l 275 983 l 275 368 b 286 283 275 339 279 311 b 323 207 294 254 306 229 b 391 153 340 185 363 167 b 496 132 419 139 454 132 b 601 153 538 132 572 139 b 669 207 629 167 652 185 b 706 283 686 229 698 254 b 717 368 713 311 717 339 l 717 983 l 892 983 l 892 361 m 351 1261 b 401 1189 358 1226 375 1202 b 494 1169 428 1176 459 1169 b 589 1186 534 1169 566 1175 b 639 1261 612 1197 629 1222 l 731 1261 b 656 1110 723 1193 698 1142 b 493 1061 614 1077 560 1061 b 329 1109 426 1061 372 1077 b 258 1261 287 1141 263 1192 l 351 1261 "},"ŭ":{"ha":808,"x_min":0,"x_max":0,"o":"m 550 0 l 550 107 l 547 107 b 470 19 532 74 507 44 b 340 -19 434 -7 390 -19 b 228 3 297 -19 259 -12 b 152 64 197 19 172 39 b 108 150 132 89 118 118 b 94 250 99 182 94 216 l 94 667 l 261 667 l 261 297 b 265 236 261 278 263 257 b 283 178 268 215 274 196 b 322 136 293 161 305 147 b 386 119 338 125 359 119 b 455 135 412 119 435 125 b 503 176 475 146 491 160 b 532 234 516 193 525 212 b 542 300 538 256 542 278 l 542 667 l 708 667 l 708 0 m 258 983 b 308 911 265 948 281 924 b 401 892 335 898 366 892 b 496 908 441 892 473 897 b 546 983 519 919 536 944 l 638 983 b 563 832 630 915 605 864 b 400 783 521 800 467 783 b 236 831 333 783 279 799 b 165 983 194 863 170 914 l 258 983 "},"Ů":{"ha":992,"x_min":0,"x_max":0,"o":"m 892 361 b 861 201 892 302 881 248 b 778 79 841 153 813 113 b 653 2 743 46 701 20 b 496 -25 605 -16 552 -25 b 339 2 439 -25 387 -16 b 213 79 291 20 249 46 b 130 201 178 113 150 153 b 100 361 110 248 100 302 l 100 983 l 275 983 l 275 368 b 286 283 275 339 279 311 b 323 207 294 254 306 229 b 391 153 340 185 363 167 b 496 132 419 139 454 132 b 601 153 538 132 572 139 b 669 207 629 167 652 185 b 706 283 686 229 698 254 b 717 368 713 311 717 339 l 717 983 l 892 983 l 892 361 m 647 1188 b 606 1085 647 1146 633 1112 b 501 1046 578 1059 543 1046 b 397 1085 460 1046 425 1059 b 356 1186 369 1112 356 1145 b 367 1243 356 1206 359 1225 b 397 1288 374 1261 384 1276 b 443 1318 410 1301 425 1311 b 501 1329 461 1325 480 1329 b 606 1290 543 1329 578 1316 b 647 1188 633 1263 647 1229 m 583 1188 b 560 1244 583 1211 575 1230 b 501 1267 544 1259 525 1267 b 442 1244 477 1267 458 1259 b 419 1186 427 1228 419 1209 b 443 1131 419 1164 427 1145 b 501 1108 459 1116 478 1108 b 560 1131 525 1108 544 1116 b 583 1188 575 1145 583 1164 "},"ů":{"ha":808,"x_min":0,"x_max":0,"o":"m 550 0 l 550 107 l 547 107 b 470 19 532 74 507 44 b 340 -19 434 -7 390 -19 b 228 3 297 -19 259 -12 b 152 64 197 19 172 39 b 108 150 132 89 118 118 b 94 250 99 182 94 216 l 94 667 l 261 667 l 261 297 b 265 236 261 278 263 257 b 283 178 268 215 274 196 b 322 136 293 161 305 147 b 386 119 338 125 359 119 b 455 135 412 119 435 125 b 503 176 475 146 491 160 b 532 234 516 193 525 212 b 542 300 538 256 542 278 l 542 667 l 708 667 l 708 0 m 546 910 b 504 808 546 868 532 834 b 400 768 476 781 442 768 b 296 808 358 768 324 781 b 254 908 268 834 254 868 b 265 965 254 929 258 948 b 296 1010 273 983 283 998 b 342 1040 309 1023 324 1033 b 400 1051 359 1048 379 1051 b 504 1012 442 1051 476 1038 b 546 910 532 985 546 951 m 482 910 b 458 967 482 933 474 952 b 400 989 443 981 423 989 b 341 966 376 989 356 981 b 318 908 326 951 318 931 b 342 853 318 886 326 868 b 400 831 357 838 377 831 b 458 853 423 831 443 838 b 482 910 474 868 482 887 "},"Ű":{"ha":992,"x_min":0,"x_max":0,"o":"m 892 361 b 861 201 892 302 881 248 b 778 79 841 153 813 113 b 653 2 743 46 701 20 b 496 -25 605 -16 552 -25 b 339 2 439 -25 387 -16 b 213 79 291 20 249 46 b 130 201 178 113 150 153 b 100 361 110 248 100 302 l 100 983 l 275 983 l 275 368 b 286 283 275 339 279 311 b 323 207 294 254 306 229 b 391 153 340 185 363 167 b 496 132 419 139 454 132 b 601 153 538 132 572 139 b 669 207 629 167 652 185 b 706 283 686 229 698 254 b 717 368 713 311 717 339 l 717 983 l 892 983 l 892 361 m 608 1261 l 413 1061 l 282 1061 l 419 1261 m 893 1261 l 697 1061 l 567 1061 l 704 1261 "},"ű":{"ha":808,"x_min":0,"x_max":0,"o":"m 550 0 l 550 107 l 547 107 b 470 19 532 74 507 44 b 340 -19 434 -7 390 -19 b 228 3 297 -19 259 -12 b 152 64 197 19 172 39 b 108 150 132 89 118 118 b 94 250 99 182 94 216 l 94 667 l 261 667 l 261 297 b 265 236 261 278 263 257 b 283 178 268 215 274 196 b 322 136 293 161 305 147 b 386 119 338 125 359 119 b 455 135 412 119 435 125 b 503 176 475 146 491 160 b 532 234 516 193 525 212 b 542 300 538 256 542 278 l 542 667 l 708 667 l 708 0 m 513 983 l 317 783 l 186 783 l 324 983 m 797 983 l 601 783 l 471 783 l 608 983 "},"Ų":{"ha":992,"x_min":0,"x_max":0,"o":"m 656 -272 b 591 -310 636 -288 615 -301 b 517 -325 567 -320 543 -325 b 463 -317 498 -325 480 -322 b 417 -294 446 -312 431 -304 b 385 -255 404 -283 393 -270 b 374 -201 378 -240 374 -222 b 404 -107 374 -170 384 -138 b 474 -24 425 -75 448 -48 b 325 8 420 -21 370 -10 b 207 86 280 27 240 53 b 128 206 174 119 147 159 b 100 361 109 252 100 304 l 100 983 l 275 983 l 275 368 b 286 283 275 339 279 311 b 323 207 294 254 306 229 b 391 153 340 185 363 167 b 496 132 419 139 454 132 b 601 153 538 132 572 139 b 669 207 629 167 652 185 b 706 283 686 229 698 254 b 717 368 713 311 717 339 l 717 983 l 892 983 l 892 361 b 867 216 892 308 884 260 b 800 101 851 172 829 134 b 697 22 771 69 737 42 b 567 -19 657 1 614 -13 b 536 -53 556 -30 546 -41 b 509 -92 526 -66 517 -79 b 490 -131 501 -105 495 -118 b 482 -169 484 -145 482 -157 b 501 -215 482 -187 488 -202 b 546 -233 513 -227 528 -233 b 585 -225 559 -233 572 -231 b 621 -204 599 -219 611 -212 l 656 -272 "},"ų":{"ha":808,"x_min":0,"x_max":0,"o":"m 697 -272 b 633 -310 678 -288 656 -301 b 558 -325 609 -320 584 -325 b 505 -317 540 -325 522 -322 b 459 -294 488 -312 472 -304 b 427 -255 446 -283 435 -270 b 415 -201 419 -240 415 -222 b 428 -142 415 -182 419 -162 b 460 -85 436 -122 447 -103 b 504 -35 474 -67 488 -50 b 550 6 520 -19 535 -6 l 550 107 l 547 107 b 470 19 532 74 507 44 b 340 -19 434 -7 390 -19 b 228 3 297 -19 259 -12 b 152 64 197 19 172 39 b 108 150 132 89 118 118 b 94 250 99 182 94 216 l 94 667 l 261 667 l 261 297 b 265 236 261 278 263 257 b 283 178 268 215 274 196 b 322 136 293 161 305 147 b 386 119 338 125 359 119 b 455 135 412 119 435 125 b 503 176 475 146 491 160 b 532 234 516 193 525 212 b 542 300 538 256 542 278 l 542 667 l 708 667 l 708 0 l 629 0 b 594 -35 618 -10 606 -22 b 560 -78 582 -49 571 -63 b 534 -125 550 -94 541 -109 b 524 -169 527 -141 524 -156 b 542 -215 524 -187 530 -202 b 588 -233 555 -227 570 -233 b 627 -225 600 -233 614 -231 b 663 -204 641 -219 652 -212 l 697 -272 "},"Ŵ":{"ha":1394,"x_min":0,"x_max":0,"o":"m 200 983 l 390 261 l 393 261 l 610 983 l 790 983 l 1003 261 l 1006 261 l 1200 983 l 1386 983 l 1099 0 l 929 0 l 699 738 l 696 738 l 465 0 l 296 0 l 8 983 m 697 1186 l 601 1061 l 446 1061 l 606 1261 l 793 1261 l 951 1061 l 793 1061 "},"ŵ":{"ha":1117,"x_min":0,"x_max":0,"o":"m 186 667 l 325 189 l 328 189 l 471 667 l 649 667 l 793 189 l 796 189 l 938 667 l 1111 667 l 881 0 l 711 0 l 560 467 l 557 467 l 407 0 l 238 0 l 6 667 m 560 908 l 464 783 l 308 783 l 468 983 l 656 983 l 814 783 l 656 783 "},"Ŷ":{"ha":864,"x_min":0,"x_max":0,"o":"m -24 983 l 190 983 l 438 569 l 688 983 l 890 983 l 521 426 l 521 0 l 346 0 l 346 426 m 436 1186 l 340 1061 l 185 1061 l 344 1261 l 532 1261 l 690 1061 l 532 1061 "},"ŷ":{"ha":713,"x_min":0,"x_max":0,"o":"m 185 667 l 371 182 l 374 182 l 539 667 l 713 667 l 397 -143 b 358 -224 385 -174 372 -201 b 308 -284 344 -248 328 -268 b 240 -321 289 -300 266 -312 b 144 -333 213 -329 181 -333 b 102 -331 131 -333 116 -333 b 58 -324 88 -330 73 -327 l 72 -179 b 105 -187 83 -183 94 -185 b 135 -189 116 -188 125 -189 b 179 -183 152 -189 167 -187 b 210 -163 191 -178 201 -172 b 232 -131 218 -154 225 -144 b 253 -85 238 -118 245 -102 l 286 0 l 0 667 m 368 908 l 272 783 l 117 783 l 276 983 l 464 983 l 622 783 l 464 783 "},"Ź":{"ha":849,"x_min":0,"x_max":0,"o":"m 583 831 l 57 831 l 57 983 l 792 983 l 792 825 l 254 156 l 800 156 l 800 0 l 49 0 l 49 158 m 651 1261 l 456 1061 l 325 1061 l 463 1261 "},"ź":{"ha":669,"x_min":0,"x_max":0,"o":"m 407 533 l 64 533 l 64 667 l 606 667 l 606 519 l 244 136 l 622 136 l 622 0 l 47 0 l 47 147 m 568 983 l 372 783 l 242 783 l 379 983 "},"Ż":{"ha":849,"x_min":0,"x_max":0,"o":"m 583 831 l 57 831 l 57 983 l 792 983 l 792 825 l 254 156 l 800 156 l 800 0 l 49 0 l 49 158 m 322 1171 b 352 1241 322 1198 332 1221 b 428 1271 372 1261 397 1271 b 505 1242 458 1271 484 1261 b 536 1171 526 1223 536 1200 b 505 1099 536 1142 526 1118 b 428 1071 484 1080 458 1071 b 352 1101 397 1071 372 1081 b 322 1171 332 1121 322 1144 "},"ż":{"ha":669,"x_min":0,"x_max":0,"o":"m 407 533 l 64 533 l 64 667 l 606 667 l 606 519 l 244 136 l 622 136 l 622 0 l 47 0 l 47 147 m 231 893 b 260 963 231 920 241 943 b 336 993 280 983 306 993 b 413 965 367 993 392 984 b 444 893 434 946 444 922 b 413 822 444 864 434 841 b 336 793 392 803 367 793 b 260 823 306 793 280 803 b 231 893 241 843 231 866 "},"ƒ":{"ha":847,"x_min":0,"x_max":0,"o":"m 475 467 l 396 67 b 307 -130 378 -22 349 -88 b 136 -193 265 -172 208 -193 b 63 -185 112 -193 88 -190 b -6 -160 39 -179 16 -171 l 57 -32 b 88 -47 66 -38 77 -43 b 122 -51 100 -50 111 -51 b 199 -10 158 -51 184 -38 b 233 93 213 17 225 51 l 307 467 l 150 467 l 150 592 l 332 592 l 363 746 b 390 844 369 780 378 813 b 438 925 402 875 418 902 b 509 980 457 948 481 966 b 613 1000 537 993 572 1000 b 697 989 642 1000 670 996 b 775 957 723 981 749 971 l 711 828 b 635 850 686 843 661 850 b 585 837 614 850 598 846 b 553 803 572 828 561 817 b 534 758 544 790 538 775 b 522 708 530 742 526 725 l 497 592 l 667 592 l 667 467 "},"Ș":{"ha":797,"x_min":0,"x_max":0,"o":"m 610 778 b 531 838 591 802 565 822 b 429 863 497 854 463 863 b 368 855 409 863 388 860 b 313 831 348 850 329 842 b 272 790 296 821 282 807 b 256 728 261 772 256 752 b 269 671 256 706 260 687 b 308 631 279 655 291 642 b 367 601 324 619 344 610 b 443 576 390 593 415 585 b 541 542 475 566 507 555 b 634 490 575 529 606 512 b 703 410 662 469 685 442 b 731 289 722 377 731 337 b 701 151 731 236 721 190 b 624 53 682 111 656 79 b 510 -6 591 27 553 7 b 372 -25 466 -19 420 -25 b 185 10 308 -25 246 -13 b 35 115 124 34 74 69 l 160 232 b 256 153 184 199 216 172 b 375 124 297 133 336 124 b 438 131 395 124 416 126 b 495 157 459 136 478 145 b 537 202 512 169 526 184 b 553 269 547 220 553 243 b 535 334 553 295 547 317 b 486 378 523 351 506 366 b 414 411 466 391 442 402 l 326 440 b 238 474 297 450 267 461 b 158 525 208 487 181 504 b 100 603 134 546 115 572 b 78 719 85 634 78 673 b 109 849 78 769 88 813 b 191 938 130 885 157 915 b 306 991 225 962 263 979 b 438 1008 349 1003 393 1008 b 590 982 488 1008 538 1000 b 724 903 641 964 686 938 l 610 778 m 483 -62 l 372 -333 l 246 -333 l 336 -62 "},"ș":{"ha":617,"x_min":0,"x_max":0,"o":"m 465 489 b 404 540 450 508 430 525 b 319 561 378 554 350 561 b 246 544 293 561 268 556 b 213 489 224 533 213 515 b 249 434 213 463 225 445 b 357 401 274 423 310 413 b 433 379 382 396 407 388 b 502 342 458 370 481 358 b 553 285 523 327 540 308 b 572 203 566 263 572 235 b 549 99 572 162 565 128 b 488 31 534 71 514 48 b 399 -8 463 13 433 0 b 294 -19 366 -16 331 -19 b 143 9 243 -19 192 -10 b 21 90 94 28 53 55 l 131 193 b 203 133 149 169 173 149 b 301 110 232 118 265 110 b 338 114 313 110 326 111 b 373 127 351 117 362 121 b 399 151 384 133 392 141 b 408 189 405 162 408 174 b 370 249 408 217 396 237 b 256 285 345 261 306 273 b 183 306 231 290 206 297 b 119 341 159 315 138 327 b 75 394 101 355 86 373 b 58 474 64 416 58 442 b 81 569 58 511 66 543 b 142 635 97 596 117 618 b 226 674 167 653 195 665 b 324 686 258 682 290 686 b 465 661 372 686 419 678 b 574 585 510 644 547 619 l 465 489 m 400 -62 l 289 -333 l 163 -333 l 253 -62 "},"Ț":{"ha":789,"x_min":0,"x_max":0,"o":"m 6 831 l 6 983 l 783 983 l 783 831 l 482 831 l 482 0 l 307 0 l 307 831 m 486 -62 l 375 -333 l 249 -333 l 339 -62 "},"ț":{"ha":472,"x_min":0,"x_max":0,"o":"m 4 667 l 121 667 l 121 860 l 285 860 l 285 667 l 451 667 l 451 533 l 285 533 l 285 224 b 301 150 285 194 290 169 b 372 121 311 131 335 121 b 408 124 383 121 395 122 b 443 135 421 127 433 130 l 449 4 b 396 -9 434 -1 416 -6 b 338 -14 375 -12 356 -14 b 229 5 293 -14 257 -8 b 163 56 201 17 179 34 b 130 131 147 78 136 103 b 121 222 124 159 121 190 l 121 533 l 4 533 m 374 -62 l 263 -333 l 136 -333 l 226 -62 "},"ˆ":{"ha":361,"x_min":0,"x_max":0,"o":"m 179 908 l 83 783 l -72 783 l 88 983 l 275 983 l 433 783 l 275 783 "},"ˇ":{"ha":361,"x_min":0,"x_max":0,"o":"m 183 858 l 279 983 l 432 983 l 272 783 l 88 783 l -71 983 l 88 983 "},"ˉ":{"ha":361,"x_min":0,"x_max":0,"o":"m -42 1104 l -42 1213 l 403 1213 l 403 1104 "},"˘":{"ha":361,"x_min":0,"x_max":0,"o":"m 38 983 b 88 911 44 948 61 924 b 181 892 114 898 145 892 b 275 908 220 892 252 897 b 325 983 298 919 315 944 l 417 983 b 342 832 409 915 384 864 b 179 783 300 800 246 783 b 15 831 113 783 58 799 b -56 983 -27 863 -51 914 l 38 983 "},"˙":{"ha":361,"x_min":0,"x_max":0,"o":"m 75 893 b 105 963 75 920 85 943 b 181 993 125 983 150 993 b 258 965 211 993 237 984 b 289 893 278 946 289 922 b 258 822 289 864 278 841 b 181 793 237 803 211 793 b 105 823 150 793 125 803 b 75 893 85 843 75 866 "},"˚":{"ha":361,"x_min":0,"x_max":0,"o":"m 326 910 b 285 808 326 868 313 834 b 181 768 257 781 222 768 b 76 808 139 768 104 781 b 35 908 49 834 35 868 b 46 965 35 929 38 948 b 76 1010 53 983 63 998 b 122 1040 89 1023 105 1033 b 181 1051 140 1048 159 1051 b 285 1012 222 1051 257 1038 b 326 910 313 985 326 951 m 263 910 b 239 967 263 933 255 952 b 181 989 223 981 204 989 b 122 966 156 989 137 981 b 99 908 106 951 99 931 b 122 853 99 886 106 868 b 181 831 138 838 157 831 b 239 853 204 831 223 838 b 263 910 255 868 263 887 "},"˛":{"ha":361,"x_min":0,"x_max":0,"o":"m 281 -272 b 216 -310 261 -288 240 -301 b 142 -325 192 -320 168 -325 b 88 -317 123 -325 105 -322 b 42 -294 71 -312 56 -304 b 10 -255 29 -283 18 -270 b -1 -201 3 -240 -1 -222 b 12 -142 -1 -182 3 -162 b 46 -84 21 -121 32 -102 b 91 -33 60 -66 75 -49 b 138 8 107 -16 123 -3 l 222 8 b 186 -26 211 -1 199 -12 b 149 -72 173 -40 161 -55 b 119 -122 137 -88 127 -104 b 107 -169 111 -139 107 -155 b 126 -215 107 -187 113 -202 b 171 -233 138 -227 153 -233 b 210 -225 184 -233 197 -231 b 246 -204 224 -219 236 -212 l 281 -272 "},"˜":{"ha":361,"x_min":0,"x_max":0,"o":"m -75 789 b -59 854 -71 811 -66 833 b -31 910 -52 875 -43 894 b 15 950 -19 927 -3 940 b 81 965 33 960 55 965 b 137 958 99 965 118 963 b 190 940 156 954 174 948 b 241 922 209 933 226 927 b 281 914 256 916 269 914 b 323 931 299 914 313 920 b 344 972 333 943 340 956 l 436 972 b 420 907 432 950 427 928 b 392 851 413 886 404 867 b 347 811 380 834 365 821 b 281 796 328 801 306 796 b 222 804 261 796 242 799 b 167 824 203 810 184 816 b 119 842 150 831 134 837 b 81 849 105 846 92 849 b 38 831 62 849 48 843 b 17 789 28 819 21 805 l -75 789 "},"˝":{"ha":361,"x_min":0,"x_max":0,"o":"m 299 983 l 103 783 l -28 783 l 110 983 m 583 983 l 388 783 l 257 783 l 394 983 "},"–":{"ha":556,"x_min":0,"x_max":0,"o":"m 42 278 l 42 406 l 514 406 l 514 278 "},"—":{"ha":833,"x_min":0,"x_max":0,"o":"m 42 278 l 42 406 l 792 406 l 792 278 "},"‘":{"ha":375,"x_min":0,"x_max":0,"o":"m 58 617 l 176 983 l 317 983 l 219 617 "},"’":{"ha":375,"x_min":0,"x_max":0,"o":"m 317 983 l 199 617 l 58 617 l 156 983 "},"‚":{"ha":375,"x_min":0,"x_max":0,"o":"m 317 192 l 199 -175 l 58 -175 l 156 192 "},"“":{"ha":646,"x_min":0,"x_max":0,"o":"m 58 617 l 176 983 l 317 983 l 219 617 m 329 617 l 447 983 l 588 983 l 490 617 "},"”":{"ha":646,"x_min":0,"x_max":0,"o":"m 588 983 l 469 617 l 329 617 l 426 983 m 317 983 l 199 617 l 58 617 l 156 983 "},"„":{"ha":646,"x_min":0,"x_max":0,"o":"m 588 192 l 469 -175 l 329 -175 l 426 192 m 317 192 l 199 -175 l 58 -175 l 156 192 "},"†":{"ha":824,"x_min":0,"x_max":0,"o":"m 767 701 l 767 568 l 490 568 l 490 -175 l 332 -175 l 332 568 l 57 568 l 57 701 l 332 701 l 332 983 l 490 983 l 490 701 "},"‡":{"ha":824,"x_min":0,"x_max":0,"o":"m 758 726 l 758 593 l 490 593 l 490 217 l 758 217 l 758 83 l 490 83 l 490 -175 l 332 -175 l 332 83 l 65 83 l 65 217 l 332 217 l 332 593 l 65 593 l 65 726 l 332 726 l 332 983 l 490 983 l 490 726 "},"•":{"ha":694,"x_min":0,"x_max":0,"o":"m 101 492 b 121 588 101 526 108 558 b 174 665 134 617 151 643 b 251 718 196 688 222 705 b 347 738 281 731 313 738 b 443 718 381 738 413 731 b 521 665 473 705 499 688 b 574 588 543 643 561 617 b 593 492 587 558 593 526 b 574 396 593 457 587 425 b 521 318 561 366 543 340 b 443 265 499 296 473 278 b 347 246 413 252 381 246 b 251 265 313 246 281 252 b 174 318 222 278 196 296 b 121 396 151 340 134 366 b 101 492 108 425 101 457 "},"…":{"ha":1389,"x_min":0,"x_max":0,"o":"m 121 97 b 153 174 121 127 132 152 b 232 206 175 195 201 206 b 310 175 262 206 288 195 b 343 100 332 155 343 130 b 310 24 343 70 332 45 b 232 -8 289 2 263 -8 b 190 0 217 -8 203 -6 b 154 22 176 6 164 13 b 130 56 144 31 136 43 b 121 97 124 69 121 82 m 583 97 b 616 174 583 127 594 152 b 694 206 638 195 664 206 b 772 175 724 206 750 195 b 806 100 794 155 806 130 b 773 24 806 70 795 45 b 694 -8 751 2 725 -8 b 652 0 680 -8 666 -6 b 617 22 639 6 627 13 b 592 56 606 31 598 43 b 583 97 586 69 583 82 m 1046 97 b 1078 174 1046 127 1057 152 b 1157 206 1100 195 1126 206 b 1235 175 1187 206 1213 195 b 1268 100 1257 155 1268 130 b 1235 24 1268 70 1257 45 b 1157 -8 1214 2 1188 -8 b 1115 0 1142 -8 1128 -6 b 1079 22 1101 6 1089 13 b 1055 56 1069 31 1061 43 b 1046 97 1049 69 1046 82 "}}}
